<?xml version="1.0" encoding="utf-8"?>
<!-- Generator: Adobe Illustrator 24.3.0, SVG Export Plug-In . SVG Version: 6.00 Build 0)  -->
<svg version="1.1" id="Layer_1" xmlns="http://www.w3.org/2000/svg" xmlns:xlink="http://www.w3.org/1999/xlink" x="0px" y="0px"
	 viewBox="0 0 1216.1 1241.9" style="enable-background:new 0 0 1216.1 1241.9;" xml:space="preserve">
<style type="text/css">
	.st0{fill:url(#SVGID_1_);}
	.st1{fill:url(#SVGID_2_);}
	.st2{fill:url(#SVGID_3_);}
	.st3{fill:url(#SVGID_4_);}
	.st4{fill:url(#SVGID_5_);}
	.st5{opacity:0.2;}
	.st6{fill:url(#SVGID_6_);}
	.st7{fill:url(#SVGID_7_);}
	.st8{fill:url(#SVGID_8_);}
	.st9{fill:url(#SVGID_9_);}
	.st10{fill:url(#SVGID_10_);}
	.st11{fill:url(#SVGID_11_);}
	.st12{fill:url(#SVGID_12_);}
	.st13{fill:url(#SVGID_13_);}
	.st14{fill:url(#SVGID_14_);}
	.st15{fill:url(#SVGID_15_);}
	.st16{fill:#76DDCE;}
	.st17{fill:#57C6B5;}
	.st18{fill:#E51A4F;}
	.st19{fill:#D3114D;}
	.st20{fill:#FF3E6A;}
	.st21{fill:#FF80A1;}
	.st22{fill:url(#SVGID_16_);}
	.st23{fill:#1290DD;}
	.st24{fill:#0A87C6;}
	.st25{fill:#30C0FD;}
	.st26{fill:#5FD6FF;}
	.st27{fill:#DD4B12;}
	.st28{fill:#C63C0A;}
	.st29{fill:#FD6330;}
	.st30{fill:#FF845F;}
	.st31{fill:#DD1292;}
	.st32{fill:#C60A87;}
	.st33{fill:#FD30C1;}
	.st34{fill:#FF5FD7;}
	.st35{fill:#12DD7D;}
	.st36{fill:#0AC666;}
	.st37{fill:#30FD8B;}
	.st38{fill:#5FFF9F;}
	.st39{fill:#1297DD;}
	.st40{fill:#0A8CC6;}
	.st41{fill:#30C8FD;}
	.st42{fill:#5FDCFF;}
	.st43{fill:#C054DD;}
	.st44{fill:#A645C6;}
	.st45{fill:#D77BFD;}
	.st46{fill:#E3ABFF;}
	.st47{fill:#DDB41F;}
	.st48{fill:#C69E15;}
	.st49{fill:#FDD03F;}
	.st50{fill:#FFDB6E;}
</style>
<g>
	
		<radialGradient id="SVGID_1_" cx="608.6895" cy="1282.365" r="432.7029" gradientTransform="matrix(1.0727 0 0 0.291 -30.4731 447.235)" gradientUnits="userSpaceOnUse">
		<stop  offset="0.3556" style="stop-color:#000000"/>
		<stop  offset="0.4257" style="stop-color:#050505"/>
		<stop  offset="0.5055" style="stop-color:#121212"/>
		<stop  offset="0.59" style="stop-color:#292929"/>
		<stop  offset="0.678" style="stop-color:#494949"/>
		<stop  offset="0.7685" style="stop-color:#727272"/>
		<stop  offset="0.8612" style="stop-color:#A5A5A5"/>
		<stop  offset="0.954" style="stop-color:#DFDFDF"/>
		<stop  offset="1" style="stop-color:#FFFFFF"/>
	</radialGradient>
	<ellipse class="st0" cx="622.5" cy="820.4" rx="464.2" ry="125.9"/>
	<g>
		<g>
			<g>
				<g>
					<g>
						
							<radialGradient id="SVGID_2_" cx="-27.9854" cy="18.4197" r="1783.6565" gradientTransform="matrix(0.5669 0 0 0.5669 249.2713 233.7533)" gradientUnits="userSpaceOnUse">
							<stop  offset="0" style="stop-color:#D4B18E"/>
							<stop  offset="0.996" style="stop-color:#D7A763"/>
						</radialGradient>
						<path class="st1" d="M1048.2,807.9c0,50.8-200.9,111.2-438.3,111.2s-421.4-60.4-421.4-111.2c0-12.8-18.4-332.8-4.8-380.1
							c26.2-57.7,254.5-28.2,426.5-28.2c178.4,0,411.5-43.8,443.1,31.2C1067.1,463.7,1048.2,796.4,1048.2,807.9z"/>
					</g>
				</g>
				<linearGradient id="SVGID_3_" gradientUnits="userSpaceOnUse" x1="359.8622" y1="718.9822" x2="1105.6057" y2="909.5606">
					<stop  offset="0" style="stop-color:#8E5D3F"/>
					<stop  offset="1" style="stop-color:#552F1C"/>
				</linearGradient>
				<path class="st2" d="M609.8,896.6c13.2-0.6,26.2-1.2,38.9-1.5c17.2-0.5,33.9-2.1,50.9-3c16.8-0.9,33.8,2.3,50.5-0.2
					c23.1-3.5,46-9.2,68.4-14.5c18.4-4.3,37.7-2.7,56.3-6c17.7-3.2,34.2-11.3,52.3-13.5c26.6-3.2,48.1-14.9,72-25.6
					c10.6-4.8,48.8-18,49.4-32.3c0.5-11.3,1.4-33.8,2.6-62.7c-0.8,18.6-51.2,34.7-64.8,41.3c-10.6,5.2-20.4,8.3-32.2,10
					c-11.4,1.7-21.7,3.3-33,6.1c-23.8,6-47.9,13.3-71.5,20.2c-27.2,8-50.4,10.5-78.7,11.2c-14.9,0.3-30,2.8-44.9,4.7
					c-25.4,3.2-50.8,4.9-76.2,4.4c-12.9-0.3-25.2,4-38.1,3.8c-14.9-0.2-29.5-3.9-44.3-4.7c-29.2-1.5-56.5,1.1-85.7-5.1
					c-12.7-2.7-25.1-5-38.1-5.6c-46.5-2.4-86.2-13.1-130.4-26.1c-24.3-7.2-48.2-15.6-71.5-25.5c-11-4.7-55.6-18.1-56.2-34.1
					c1.2,29.3,2.2,51.8,2.6,62.8c0.6,14.1,39,26.5,48.5,31.1c10.9,5.3,19.4,14.6,31.1,18.3c12.2,3.8,24.2,2.6,36.3,8
					c12.7,5.7,23,11.7,36.9,14.1c28.2,4.9,55.1,10.3,83.6,13.5c27,3,53.9,4.7,80.8,8.6C538.6,899.2,574.8,898.1,609.8,896.6z"/>
				<linearGradient id="SVGID_4_" gradientUnits="userSpaceOnUse" x1="357.2471" y1="602.3369" x2="1112.1587" y2="795.2583">
					<stop  offset="0" style="stop-color:#8E5D3F"/>
					<stop  offset="1" style="stop-color:#552F1C"/>
				</linearGradient>
				<path class="st3" d="M609.3,788.8c10.2,0.7,20.4,1,31.1-0.1c24.5-2.6,49.1-3.7,73.6-6.9c32.6-4.2,63.8-6.3,95.8-12.9
					c37.6-7.7,77.3-8.1,114.3-16.6c18.9-4.3,35.6-13.7,53.9-19.2c16.7-5,31.5-6.9,45.8-17.3c7.9-5.7,29.6-19.3,30-29.4
					c0.5-11.5,1.5-34.2,2.7-63.5c-0.8,18.9-45.8,36.1-60.9,41.6c-7.6,2.7-14.9,9.2-22.5,12.1c-30.3,11.5-64.6,11-95.8,22.9
					c-15.3,5.8-29.3,7.3-45.9,9.1c-30.3,3.3-61.9,4.6-92.2,8.9c-15.5,2.2-30.7,0.8-46.2,1.2c-11,0.3-21.1,3.5-32.3,3.9
					c-30.4,1.2-60.8-0.3-91.2-0.8c-27.9-0.5-56.6,4-84.5-1.9c-6.6-1.4-11.8-4.5-18.9-5.4c-20.8-2.7-41.7-3.2-62.4-6.4
					c-23.9-3.7-51.3-8.1-74.1-16.2c-20.9-7.4-45.9-8.3-66.6-16.2c-16.1-6.2-81.7-29.9-82.6-52c1.2,29.6,2.2,52.4,2.7,63.6
					c0.3,7,42.6,34.3,49.1,37.4c14.5,7,31.3,7.8,46.6,12.7c32,10.2,64.1,17.5,95.9,27c27.5,8.2,56.6,12.3,85.2,13
					c19.7,0.4,38.7,6.4,58.3,8c20.6,1.7,41.2,0.2,61.8,1.2C590,787.1,599.7,788.2,609.3,788.8z"/>
				<linearGradient id="SVGID_5_" gradientUnits="userSpaceOnUse" x1="358.446" y1="483.9341" x2="1113.4486" y2="676.8787">
					<stop  offset="0" style="stop-color:#8E5D3F"/>
					<stop  offset="1" style="stop-color:#552F1C"/>
				</linearGradient>
				<path class="st4" d="M610.5,669.4c3.7,0.3,7.4,0.3,11.3-0.1c15.6-1.4,30.9-6.4,46.3-5.7c42.3,2,84.4-4.1,126-11.2
					c20.5-3.5,39.1-1.9,59.1-3.4c24.5-1.8,48.1-16.3,72.4-20.8c31-5.7,58.2-19,87.4-29.4c11.2-4,41.4-15,42-30.6
					c0.5-11.5,1.5-34.2,2.7-63.5c-0.3,7.5-20.5,18.9-25.7,22.1c-28.5,17.6-61.7,28.6-93.9,37.4c-21.5,5.9-43.4,12.7-65.6,15.6
					c-20.4,2.7-38.9,4.1-58.6,10.9c-24.4,8.4-50,6.8-75.3,8.9c-22.4,1.8-44.5,8.6-67.3,6c-19.9-2.3-40.1-1.1-60.3-1.1
					c-57.4,0-116.5-5.1-172.8-9.4c-11.3-0.9-20.1-8.5-31.7-9.4c-12.3-1-22.3-1.3-33.8-4.1c-32.9-8.1-71.1-11.1-100.3-25.8
					c-6-3-12.7-4.1-19-6.4c-17.5-6.4-70.7-20-71.6-44c1.2,29.6,2.2,52.5,2.7,63.6c0.3,7.5,16.3,19,22.8,22.7
					c14.8,8.4,32,7.9,47.5,13.6c13.3,4.9,28,8.2,40.9,13.7c10.4,4.5,18.9,11,30.2,14.2c14.7,4.2,28.8,4.2,43.3,8
					c16.8,4.4,32.8,11.5,50.3,12.7c11.4,0.7,19.1,0.8,29.8,4.1c9.1,2.8,18.9,4.6,28.6,5.3c32,2.5,64.9,0.9,97.1,1.6
					C587.2,665.3,598.4,668.5,610.5,669.4z"/>
				<g>
					<g class="st5">
						<linearGradient id="SVGID_6_" gradientUnits="userSpaceOnUse" x1="190.2686" y1="461.9971" x2="1020.6204" y2="751.2212">
							<stop  offset="0" style="stop-color:#3D150B"/>
							<stop  offset="1" style="stop-color:#340D07"/>
						</linearGradient>
						<path class="st6" d="M1044.8,661.5c3.1,0.5,9-3.1,9.4-6.8c2.3-24.5-0.1-80.1,1.3-98.8c0.9-12.4,2-24.8,2.5-37.3
							c0.2-5.6,3.9-32.6-0.3-36.1c-3.6-3-8.7-3.4-12.6-6.2c-13.4-9.6-38.2-11.5-55.1-16c-70.1-18.7-140.9-23.3-214.5-29.4
							c-13.5-1.1-26.9-2-40.3-2.8c-42.5,2.3-85.1,4.2-125,4.2c-41.6,0-86.4-1.5-130.9-3.1c-42.4,2.4-84.7,5.9-126.9,10.3
							c-31.5,3.3-61.1,9.4-91,17.5c-17.9,4.9-63.3,11.8-74.3,23.6c-3.9,4.2-6.5,9.2-8.2,14.6c-0.8,26-0.6,183.9,2.1,209.8
							c1.2,11-0.4,24.5,2.8,35.1c3.5,11.5,13.5,8.9,17.8-0.4c5.3-11.3,5.1-31.2,4.8-43.5c-0.1-6.1-3.1-166.3,6.5-167.9
							c6.9-1.1,12.3,22.8,19.3,26.4c11.4,6,17.5,4.6,28.8,11.7c21.5,13.5,7.1,171.9,63.4,148.8c15-6.2,20.8-26.7,25.1-41.1
							c3.2-10.9,11-101.3,25.3-97.1c8.5,2.5,7.8,10.5,14.7,15.1c23.8,15.7,48.6-6.7,62.4-24.5c5.6-7.3,10.1-17.1,20.6-17.2
							c21-0.1,29.7,21.2,38.4,36.4c10.8,18.8,13.2,76.3,13.7,97.6c0.5,21.3,2.2,48,20.2,62.3c15.8,12.6,47.6,16.8,61.5-0.8
							c17.3-21.9,8.2-59.6,8.4-85.3c0.1-10.3-2.2-22.7,9.6-27.8c10.2-4.4,19.9,3.1,24.4,12.1c3.5,6.9,4,15.7,12.7,17.9
							c28.9,7.3,29.5-83.8,65-58.7c12.5,8.8,18.6,13.7,33.2,4.5c11.9-7.5,21.9-56.3,36.4-59c40.3-7.4,26.1,140.7,62.4,142.9
							c17,1,31-26.7,44.1-8.6c10.1,13.9,17.5,31.4,29.3,44.6c11.5,12.8,26.6,17.6,40.8,12.5c27.5-9.9,26.6-48.1,21.5-70.3
							c-2.7-11.7-3.4-37.7-2.2-49.8c2.1-21,5.5-65.4,15.5-60.6c14.5,7,19.5-6.5,24.5-16.8c6.2-12.8,11.8-2.5,10.4,8.3
							c-1.8,13.8-6.3,68-7.2,82.6C1034.7,641.2,1033.2,659.5,1044.8,661.5z"/>
					</g>
					<linearGradient id="SVGID_7_" gradientUnits="userSpaceOnUse" x1="605.0671" y1="534.064" x2="682.3928" y2="534.064">
						<stop  offset="0.1044" style="stop-color:#76DDCE"/>
						<stop  offset="0.996" style="stop-color:#51CAB8"/>
					</linearGradient>
					<path class="st7" d="M1062.5,409.4c10.4,25.1,1.9,60.6-1.1,86.6c-2.6,22.1-4.2,88.4,2.5,110.2c2.5,8.1,11.1,21,5.4,29.6
						c-4.9,7.4-15.2,6.6-21,0.6c-13.3-13.7,9.2-128.2-12.8-128.5c-11.3-0.2-8.4,12.9-9.3,19.6c-0.9,6.7-2.1,19.4-12,19.7
						c-10.2,0.3-9-11.3-12-18.3c-12.5-30.1-16.2,76.1-16.6,91c-0.7,23.9,9,53.1-0.4,75.7c-8.9,21.6-28.3,30.8-48.8,18.2
						c-9.5-5.8-15.9-14.2-20-24.3c-3.3-8.1-5-24.7-13.4-29.6c-10.8-6.4-21.1,3.9-30.9,7.8c-42.3,16.9-31.8-28.5-35.4-52.7
						c-3.5-23.6-27.5-100.9-47.5-91.5c-21.3,10-32.6,76.9-60.8,70.3c-9.4-2.2-18.7-13.2-29.4-10.2c-21,5.9-7.6,45.2-34.4,45.6
						c-20.3,0.3-29.4-59.4-49.9-23.9c-8.4,14.5-2.9,33.8-1.8,49.4c1.4,19.8,2.4,44.3-5.8,62.8c-16,36.1-56.6,23.4-74-3.8
						c-21.7-33.9,7.1-119.1-20.6-152.9c-12.9-15.8-28.1-36.2-51.3-30.8c-16.6,3.9-26,19.9-40.9,26.8c-19.8,9.2-32.2-3.6-51-2.4
						c-12.7,0.8-26.6,93.9-28.9,104.4c-4.2,19.2-11.3,60-42.4,39.5c-23.4-15.4,0.8-138.1-24.7-151.3c-11.4-5.9-26.3,4.6-37.1-4.7
						c-10.1-8.6-5.2-27.3-16.7-35.3c-23.2-16-23.9,165.2-24.2,176.6c-0.3,11.7,1.6,73.6-23.4,47.4c-9.2-9.6-2.8-22.9,0.6-33.3
						c15.6-47-14.7-256.8,11.7-294.8c11.1-15.9,56.7-25.2,74.7-31.8c30-10.9,59.8-19.1,91.5-23.5c87.1-12.1,174.5-19.1,262.4-19.1
						c54.7,0,108.7,1.5,163.2,7.5c74.1,8.2,145.2,14.5,215.7,39.6c17,6.1,42,8.6,55.4,21.6C1052.4,402,1059.2,401.5,1062.5,409.4z"
						/>
					<linearGradient id="SVGID_8_" gradientUnits="userSpaceOnUse" x1="209.4991" y1="613.0762" x2="1037.52" y2="613.0762">
						<stop  offset="0.2129" style="stop-color:#57C6B5"/>
						<stop  offset="0.3012" style="stop-color:#34B4A7"/>
					</linearGradient>
					<path class="st8" d="M1058.5,624c-3.9-2.3-7.6-5-8.7-8.7c-2.5-8.4-4-59.8-2.7-67.9c2.2-13.8,9.2-39.5-3.5-49.9
						c-23.1-18.8-17.5,35.1-29.7,28.7c-10.5-5.5-18.4-41.5-33.1-15.7c-10.2,17.8-4.1,112.8-2.1,132.3c1.5,15,1.3,41.1-15.9,47.8
						c-9.2,3.6-23.5,1.2-31.2-4.7c-15-11.6-12.7-31.7-19.1-47.4c-9.7-24.1-21,14.6-35.4,18.1c-21.3,5.1-24.9-17.6-29.1-31.4
						c-5.8-19-27.1-133.8-54.1-125.6c-26.5,8-38.2,101-71.7,77.8c-16.1-11.1-29.5-10.5-38.5,8.5c-4.7,9.9-15.2,40.9-30.9,24.6
						c-10.4-10.8-2.4-34.6-14.5-43.5c-34.8-25.7-30.3,82.7-30.6,91.3c-0.6,15.1-2.1,38.2-18.5,44.9c-24,9.9-43.3-12.6-48.5-32.9
						c-7.7-30.1-13.2-97.2-17.6-127.9c-1.9-13.3-7.1-23.4-17.9-31.7c-18.2-14.1-40.9-1.5-54,13.2C438.4,538,426.6,551.6,406,552
						c-15.1,0.3-25.4-12.3-31.4-24.2c-3.5-6.9-5.4-14.6-13.8-9.8c-6.2,3.6-4.5,14.5-6.7,20.8c-5.2,14.6-17,113.2-25.4,126.3
						c-12.1,18.7-32.8,15.6-38.6-5.8c-3.1-11.2,4.9-102.5,1.5-113.5c-7.9-25.7-35.7,2-48.9-11.8c-7.2-7.6-7-20.1-10.5-29.5
						c-3.4-9.2-11-20.5-22.7-17.7c-23.3,5.7-13.1,200.1-17.9,216.3c-1.6,5.4-3.9,16.5-7.6,20.9c-2,2.3-12.1,7.5-14.6,2.8
						c0.8,1.5,1.7,2.9,2.9,4.1c25,26.2,23.1-35.8,23.4-47.4c0.3-11.4,1-192.6,24.2-176.6c11.5,8,6.6,26.6,16.7,35.3
						c10.9,9.3,25.7-1.2,37.1,4.7c25.6,13.2,1.3,135.9,24.7,151.3c31.1,20.5,38.1-20.4,42.4-39.5c2.3-10.5,16.2-103.5,28.9-104.4
						c18.8-1.2,31.2,11.6,51,2.4c15-6.9,24.4-23,40.9-26.8c23.2-5.4,38.4,15,51.3,30.8c27.6,33.8-1.2,119,20.6,152.9
						c17.4,27.1,58,39.9,74,3.8c8.2-18.5,7.2-43,5.8-62.8c-1.1-15.6-6.5-34.8,1.8-49.4c20.5-35.5,29.6,24.1,49.9,23.9
						c26.8-0.4,13.4-39.7,34.4-45.6c10.7-3,20,8,29.4,10.2c28.1,6.6,39.5-60.3,60.8-70.3c20-9.4,43.9,67.9,47.5,91.5
						c3.8,25.4-6.7,69.5,35.4,52.7c9.8-3.9,20.1-14.2,30.9-7.8c8.4,5,10.1,21.6,13.4,29.6c4.2,10.2,10.5,18.5,20,24.3
						c20.5,12.6,39.9,3.4,48.8-18.2c9.4-22.6-0.3-51.8,0.4-75.7c0.4-14.9,4.1-121.1,16.6-91c2.9,7,1.8,18.6,12,18.3
						c9.9-0.3,11.1-13,12-19.7c0.9-6.8-2-19.8,9.3-19.6c22,0.4-0.4,109.8,11.2,127.9c4.2,6.5,21.2,9.3,23.7-1
						C1070.9,630.3,1064.4,627.5,1058.5,624z"/>
					
						<radialGradient id="SVGID_9_" cx="643.6532" cy="-1441.9373" r="2027.8439" gradientTransform="matrix(0.9806 0 0 0.9806 -14.2079 -56.9274)" gradientUnits="userSpaceOnUse">
						<stop  offset="0.7455" style="stop-color:#D4F8EB"/>
						<stop  offset="0.8347" style="stop-color:#D2F7EA"/>
						<stop  offset="0.8826" style="stop-color:#CAF5E9"/>
						<stop  offset="0.9208" style="stop-color:#BCF2E5"/>
						<stop  offset="0.9537" style="stop-color:#A9EDE1"/>
						<stop  offset="0.9831" style="stop-color:#90E7DB"/>
						<stop  offset="1" style="stop-color:#7EE3D7"/>
					</radialGradient>
					<path class="st9" d="M1064.2,414.8c0,46.4-206.6,76.2-450.8,76.2C369.2,491,180,461.2,180,414.8s189.2-91.7,433.4-91.7
						C857.6,323.2,1064.2,368.5,1064.2,414.8z"/>
					
						<radialGradient id="SVGID_10_" cx="585.2305" cy="-1249.9835" r="1822.1934" gradientTransform="matrix(0.9513 0 0 0.8831 23.061 1.4985)" gradientUnits="userSpaceOnUse">
						<stop  offset="0.87" style="stop-color:#ABF8EB"/>
						<stop  offset="0.9073" style="stop-color:#A6F6E9"/>
						<stop  offset="0.9486" style="stop-color:#99F0E3"/>
						<stop  offset="0.9918" style="stop-color:#83E5D9"/>
						<stop  offset="1" style="stop-color:#7EE3D7"/>
					</radialGradient>
					<path class="st10" d="M680.5,470.4c-236.9-0.6-420.4-28-420.3-69.8c0.1-19.2,39-38.2,104-52.9
						c-106.5,15.5-174.6,40.4-174.7,65.8c-0.1,41.8,183.4,69.2,420.3,69.8c153,0.4,290.8-10.5,369.3-29.5
						C900.2,464.7,794.6,470.7,680.5,470.4z"/>
					
						<radialGradient id="SVGID_11_" cx="189.3035" cy="609.8832" r="187.4928" gradientTransform="matrix(-0.7185 0 0 0.7185 1067.9197 119.484)" gradientUnits="userSpaceOnUse">
						<stop  offset="0.5358" style="stop-color:#51CAB8"/>
						<stop  offset="0.6833" style="stop-color:#57CDBC"/>
						<stop  offset="0.8854" style="stop-color:#69D6C6"/>
						<stop  offset="1" style="stop-color:#76DDCE"/>
					</radialGradient>
					<path class="st11" d="M957.5,687.9c21.3-5.2,20.3-38.1,19.8-50.2c-2.6-58.4-11.1-25.9-29.6-28c-17.6-2-34.7-26.3-43.4-38
						C913.9,598.6,906.6,700.4,957.5,687.9z"/>
					
						<radialGradient id="SVGID_12_" cx="265.3833" cy="592.5947" r="156.3204" gradientTransform="matrix(-0.7185 0 0 0.7185 1067.9197 119.484)" gradientUnits="userSpaceOnUse">
						<stop  offset="0.6471" style="stop-color:#51CAB8"/>
						<stop  offset="0.7592" style="stop-color:#57CDBC"/>
						<stop  offset="0.9129" style="stop-color:#69D6C6"/>
						<stop  offset="1" style="stop-color:#76DDCE"/>
					</radialGradient>
					<path class="st12" d="M876,656.8c14.2-2.8,25.2-31.6,36.5-39.9c31.1-22.8-28.3-11.8-40.4-14c-11.5-2.1-32.9-38.5-38.1-46.5
						C845.4,594.1,844.8,663.1,876,656.8z"/>
					
						<radialGradient id="SVGID_13_" cx="217.7772" cy="635.6351" r="187.5169" gradientTransform="matrix(0.5094 0 0 0.5094 211.4243 259.2841)" gradientUnits="userSpaceOnUse">
						<stop  offset="0.5358" style="stop-color:#76DDCE"/>
						<stop  offset="0.6527" style="stop-color:#7CE0D1"/>
						<stop  offset="0.8133" style="stop-color:#8EE9DB"/>
						<stop  offset="0.9985" style="stop-color:#ABF8EB"/>
						<stop  offset="1" style="stop-color:#ABF8EB"/>
					</radialGradient>
					<path class="st13" d="M304.2,675.4c-15.1-3.7-14.4-27-14-35.6c1.9-41.4,7.9-18.4,21-19.9c12.5-1.4,24.6-18.6,30.8-26.9
						C335.1,612.1,340.3,684.3,304.2,675.4z"/>
					<radialGradient id="SVGID_14_" cx="587.5253" cy="561.6575" r="146.7364" gradientUnits="userSpaceOnUse">
						<stop  offset="0.5358" style="stop-color:#76DDCE"/>
						<stop  offset="0.6527" style="stop-color:#7CE0D1"/>
						<stop  offset="0.8133" style="stop-color:#8EE9DB"/>
						<stop  offset="0.9985" style="stop-color:#ABF8EB"/>
						<stop  offset="1" style="stop-color:#ABF8EB"/>
					</radialGradient>
					<path class="st14" d="M584,704.2c24.2-4.2,23.1-40.7,22.5-54.1c-3-65-12.7-29.6-33.7-33.3c-20-3.6-39.5-67.9-49.4-81.6
						C534.4,565.8,526.1,714.3,584,704.2z"/>
					
						<radialGradient id="SVGID_15_" cx="897.3786" cy="422.1508" r="178.627" gradientTransform="matrix(-0.7185 0 0 0.7185 1067.9197 119.484)" gradientUnits="userSpaceOnUse">
						<stop  offset="0.7169" style="stop-color:#76DDCE"/>
						<stop  offset="0.7882" style="stop-color:#7CE0D1"/>
						<stop  offset="0.8861" style="stop-color:#8EE9DB"/>
						<stop  offset="0.9991" style="stop-color:#ABF8EB"/>
						<stop  offset="1" style="stop-color:#ABF8EB"/>
					</radialGradient>
					<path class="st15" d="M467.3,506.6c-24.6,13.2-30,39.4-50.9,43.1c-27.7,4.8-40.2-18.4-47-47.3L467.3,506.6z"/>
				</g>
			</g>
			<g>
				<path class="st16" d="M187.3,399.8c-1.1,1-2,2.1-2.7,3.1C185.3,401.9,186.3,400.8,187.3,399.8z"/>
			</g>
		</g>
		<g>
			<path class="st17" d="M835.1,360.8c-4.8,6.5-10.5,15.6-10.5,19c0,2.6,11.1,6.1,14.6,9.1c-12.3-5.8-36-23.8-41.1-14.9
				c-3.9,6.8-13.8,8.7-13.6,12.3c0.2,3.5,2.1,12.4,12.3,18.9c29.8,18.8,82.4,23.2,98.1,17.4c8-4.7,11.3-13.6,11.1-23.7
				c-0.1-6-9.2-20.1-15-25.3C872,355.1,842.2,351.2,835.1,360.8z"/>
			<path class="st18" d="M835.2,354.7c-4.6,6.5-10,15.6-10,19c0,2.6,10.5,6.1,13.8,9.1c-11.6-5.8-39.6-25.7-44.4-16.8
				c-3.7,6.8-7.5,15.6-7.4,19.1c0.2,3.5,5.5,10.4,11.4,14.3c25.1,16.6,89.2,23.4,94.7,19.3c4.1-4.2,9-16,8.8-26
				c-0.1-6-3.7-11-3.7-15.8C880.5,358.5,841.9,345.1,835.2,354.7z"/>
			<path class="st19" d="M897.9,374.8c-2.4-2.4-10.2-1.6-13.4-3.8l8.8,47.7c0,0,0,0,0,0c5.4-4.2,9-16,8.8-26
				C902,386.6,900.4,380.4,897.9,374.8z"/>
			<path class="st19" d="M814.4,373.1c-8.7-4.3-17.5-11.5-19.8-7.2c-3.7,6.8-7.5,15.6-7.4,19.1c0.2,3.5,5.5,10.4,11.4,14.3
				C806.7,375.9,814.4,373.1,814.4,373.1z"/>
			<path class="st20" d="M842.3,350.5c-9.8,2.6-10.9,9.5-3.4,16.3c-11.6-5.8-27-8.4-36.8-5.8c-11.4,3-11,11.8,0.9,19.6
				c25.1,16.6,75.4,17.5,87.1,19.9c-0.2-5.4,22.6-22.6-5.7-41.3C872.6,351.4,853.7,347.5,842.3,350.5z"/>
			<g>
				<path class="st21" d="M813.1,381.5c-11.9-7.8-12.2-16.6-0.9-19.6c2.5-0.6,5.3-1,8.3-1c-6.7-1.1-13.3-1.2-18.4,0.1
					c-11.4,3-11,11.8,0.9,19.6c25.1,16.6,75.4,17.5,87.1,19.9c0-0.1,0.1-0.3,0.1-0.4C870.8,398.1,833.6,395,813.1,381.5z"/>
			</g>
		</g>
		<g>
			<path class="st17" d="M603.2,325.7c-2.4,3.9-5.2,9.4-5,11.3c0.1,1.5,6.6,2.9,8.7,4.4c-7.3-2.7-21.7-11.7-24.1-6.4
				c-1.8,4.1-7.4,5.7-7.1,7.7c0.3,2,1.8,7,7.9,10.1c17.9,9.2,48,9,56.6,4.9c4.3-3.1,5.7-8.3,5.1-14c-0.4-3.4-6.2-10.9-9.8-13.6
				C623.8,320.6,606.7,319.9,603.2,325.7z"/>
			<path class="st18" d="M602.9,322.2c-2.3,3.9-4.9,9.3-4.7,11.3c0.1,1.5,6.3,2.9,8.3,4.4c-6.9-2.7-23.8-12.6-26.1-7.3
				c-1.7,4.1-3.5,9.2-3.2,11.2c0.3,2,3.6,5.6,7.2,7.6c15.1,8.1,51.8,8.7,54.8,6.1c2.1-2.6,4.3-9.5,3.7-15.2c-0.4-3.4-2.7-6-2.9-8.8
				C628.9,322.1,606.3,316.4,602.9,322.2z"/>
			<path class="st19" d="M639.6,330.5c-1.5-1.3-5.9-0.4-7.8-1.5l7.4,26.6c0,0,0,0,0,0c2.9-2.7,4.3-9.5,3.7-15.2
				C642.5,337,641.2,333.5,639.6,330.5z"/>
			<path class="st19" d="M592,333.7c-5.2-2-10.5-5.6-11.6-3.1c-1.7,4.1-3.5,9.2-3.2,11.2c0.3,2,3.6,5.6,7.2,7.6
				C587.8,335.7,592,333.7,592,333.7z"/>
			<path class="st20" d="M606.8,319.5c-5.4,2-5.7,5.9-1.1,9.4c-6.9-2.7-15.8-3.4-21.2-1.4c-6.3,2.3-5.6,7.2,1.5,11.1
				c15.1,8.1,43.7,6.1,50.4,6.9c-0.4-3.1,11.7-14-5.3-23.2C624,318.5,613.1,317.2,606.8,319.5z"/>
			<g>
				<path class="st21" d="M591.7,338.6c-7.1-3.8-7.8-8.8-1.5-11.1c1.4-0.5,2.9-0.8,4.6-1c-3.9-0.3-7.6,0-10.4,1
					c-6.3,2.3-5.6,7.2,1.5,11.1c15.1,8.1,43.7,6.1,50.4,6.9c0-0.1,0-0.2,0-0.2C625.3,345.1,604,345.2,591.7,338.6z"/>
			</g>
		</g>
		<g>
			<linearGradient id="SVGID_16_" gradientUnits="userSpaceOnUse" x1="265.5597" y1="382.5571" x2="387.1464" y2="382.5571">
				<stop  offset="0.2129" style="stop-color:#57C6B5"/>
				<stop  offset="0.3012" style="stop-color:#34B4A7"/>
			</linearGradient>
			<path class="st22" d="M358.5,369.9c6.2,2.8-0.1,6.8-14,9.6c16.6-1.7,32.6-4.4,38.8-1.6c7.2,3.2,6.9,10.6-24.4,15.9
				c-39.8,6.7-90.4,4.5-92.9-2.2c-2.7-4.6,8.7-17.1,45.4-22.6C330.2,366.3,351.4,366.7,358.5,369.9z"/>
			<path class="st19" d="M356,361.5c5.8,2.6-3.5,8.3-16.7,11c15.7-1.6,30.4-14.1,33.9-8.7c1.1,1.7,6.2,16.4,6.5,16.9
				c1.5,2.9-7.2,6.5-22.2,8.7c-37.8,5.6-72.9,3.6-88.6-0.4c-3.6-6.9-0.4-17.4,0.6-18.4c12.6-11.2,82.3-16.7,82.3-16.7
				C354.5,357.1,355.6,361.3,356,361.5z"/>
			<path class="st20" d="M350,352.5c5.2,2.4-0.1,5.7-11.8,8.1c14-1.4,27.9-0.8,33.1,1.5c6,2.7-2,6.8-17.9,9.2
				c-33.7,4.9-72.8-0.4-83.8-0.6c1.8-2.4,9.8-14.3,40.7-18.9C326.2,349.4,344,349.8,350,352.5z"/>
			<g>
				<g>
					<path class="st21" d="M309.5,353.9c14.7-2.2,31.1-1.9,36.7,0.7c2.6,1.2,2.3,2.6-0.1,4c5.9-2,7.7-4.3,3.9-6
						c-6-2.7-23.8-3.1-39.7-0.7c-30.9,4.6-38.9,16.5-40.7,18.9c0.8,0,1.7,0.1,2.7,0.1C274.6,367.8,282.8,357.9,309.5,353.9z"/>
				</g>
				<g>
					<path class="st21" d="M371.3,362.2c-4.7-2.1-16.7-2.8-29.3-1.8c-1.9,0.6-4.1,1.2-6.7,1.7c12.9-1.3,25.7-0.8,30.5,1.4
						c5.4,2.4-1.4,6-15.1,8.2c0.9-0.1,1.8-0.2,2.7-0.3C369.3,369,377.3,364.9,371.3,362.2z"/>
				</g>
			</g>
		</g>
		<g>
			<g>
				<path class="st17" d="M592.5,401.4c3.3,6.9,7.1,16.3,6.5,19.5c-0.5,2.4-11.4,3.7-15.1,5.9c12.5-3.2,37.6-15.8,40.8-6.6
					c2.4,7,11.2,10.5,10.5,13.8s-4.1,11.2-14.7,15.4c-31,12.3-80.6,7.2-94.1-1c-6.7-5.7-8.2-14.6-6.2-23.9
					c1.2-5.6,12.1-17.1,18.4-20.9C559.2,389.7,587.5,391.2,592.5,401.4z"/>
				<path class="st19" d="M593.5,395.7c3.1,6.8,4.7,10.7,4.1,13.9c-0.5,2.4-9,9.3-12.5,11.5c11.8-3.3,41.3-17,44.2-7.8
					c2.2,7,4.2,15.8,3.5,19.1c-0.8,3.3-6.9,8.7-13.1,11.3c-26.2,11-86.9,6.1-91.3,1.3c-3.1-4.7-5.6-16.4-3.6-25.7
					c1.2-5.6,5.4-9.5,6.2-14C550.7,391.3,588.9,385.6,593.5,395.7z"/>
				<path class="st18" d="M531.7,403.4c2.6-1.8,9.8,0.3,13.1-1.2L528.2,445c0,0,0,0,0,0c-4.3-4.9-5.6-16.4-3.6-25.7
					C525.8,413.7,528.4,408.2,531.7,403.4z"/>
				<path class="st18" d="M621.6,422.6c1.7,5.8,3.3,11.5,4.7,17.1c3.4-2.5,5.9-5.4,6.4-7.4c0.8-3.3-1.3-12.1-3.5-19.1
					c-0.9-2.9-5.3-1.7-10.7,0.2C619.6,416.5,620.6,419.6,621.6,422.6z"/>
				<path class="st20" d="M587.5,390.6c8.7,4.1,8.4,10.7,0.3,15.7c11.8-3.3,26.5-3,35.2,1.1c10,4.8,8.2,12.8-4.2,18
					c-26.2,11-73.1,3.1-84.3,3.3c1.2-5-17.1-24.9,12.5-37.4C559.3,386.1,577.5,385.8,587.5,390.6z"/>
			</g>
			<g>
				<path class="st21" d="M548.6,398.8c12.4-5.2,30.6-5.5,40.6-0.8c1.7,0.8,3,1.8,4,2.7c1.8-3.7,0-7.5-5.7-10.3
					c-10-4.8-28.2-4.4-40.6,0.8c-19.8,8.3-18.2,20-15.3,28.3C531.2,412.7,534.3,404.9,548.6,398.8z"/>
			</g>
		</g>
		<g>
			<g>
				<path class="st17" d="M1014.4,407.5c1.4,2.9,3,6.8,2.7,8.2c-0.2,1-4.8,1.5-6.3,2.5c5.2-1.3,13-2.7,17.1-2.8
					c3.5-0.1,4.7,4.4,4.4,5.8c-0.3,1.4-1.7,4.7-6.2,6.4c-13,5.1-33.8,3-39.4-0.4c-2.8-2.4-3.4-6.1-2.6-10c0.5-2.3,5.1-7.1,7.7-8.7
					C1000.5,402.5,1012.3,403.2,1014.4,407.5z"/>
				<path class="st19" d="M1014.4,405.4c1.3,2.8,1.9,4.4,1.7,5.7c-0.2,1-3.7,3.8-5.2,4.8c4.9-1.4,17.1-7,18.3-3.2
					c0.9,2.9,1.8,6.5,1.4,7.9c-0.3,1.4-2.9,3.6-5.4,4.7c-10.8,4.5-35.9,2.5-37.8,0.6c-1.3-1.9-2.3-6.8-1.5-10.6
					c0.5-2.3,2.2-3.9,2.6-5.8C996.7,403.5,1012.5,401.2,1014.4,405.4z"/>
				<path class="st18" d="M988.8,408.5c1.1-0.8,4.1,0.1,5.4-0.5l-6.8,17.7c0,0,0,0,0,0c-1.8-2-2.3-6.8-1.5-10.6
					C986.4,412.8,987.5,410.5,988.8,408.5z"/>
				<path class="st18" d="M1026,416.5c0.7,2.4,1.4,4.7,2,7.1c1.4-1,2.5-2.2,2.6-3.1c0.3-1.4-0.5-5-1.4-7.9c-0.4-1.2-2.2-0.7-4.4,0.1
					C1025.2,414,1025.6,415.2,1026,416.5z"/>
				<path class="st20" d="M1012,403.2c3.6,1.7,3.5,4.4,0.1,6.5c4.9-1.4,11-1.3,14.6,0.4c4.2,2,3.4,5.3-1.7,7.5
					c-10.8,4.5-30.2,1.3-34.9,1.4c0.5-2.1-7.1-10.3,5.2-15.5C1000.3,401.4,1007.8,401.2,1012,403.2z"/>
			</g>
			<g>
				<path class="st21" d="M995.8,406.6c5.1-2.1,12.6-2.3,16.8-0.3c0.7,0.3,1.2,0.7,1.7,1.1c0.7-1.5,0-3.1-2.4-4.2
					c-4.2-2-11.7-1.8-16.8,0.3c-8.2,3.4-7.5,8.3-6.3,11.7C988.6,412.4,989.9,409.1,995.8,406.6z"/>
			</g>
		</g>
		<g>
			<path class="st17" d="M724.6,395.5c-4.9,6.7-25.7,10.4-46.3,8.2c-20.7-2.1-33.4-9.3-28.5-16c4.9-6.7,25.7-10.4,46.3-8.2
				C716.7,381.7,729.5,388.8,724.6,395.5z"/>
			<path class="st23" d="M720.8,393.2c-4.9,5.6-17.9,10.2-42.8,8c-18.6-1.6-28.2-7.1-26.7-14.4c0.6-3,2.6-7.1,5.4-10.3
				c7.6-8.7,43.5,0.2,60.1,1.9c0,0,4.8,7.1,5.1,11.8C722.1,391.3,721.7,392.2,720.8,393.2z"/>
			<path class="st24" d="M704,376.7c-8.7-1.4-18.8-3.1-27.6-3.6c-3.4,8.8-7.3,17.5-11.2,26.1c3.6,0.9,7.9,1.7,12.8,2.1
				c16.6,1.4,27.8-0.1,35-3C709.8,391.1,706.8,383.9,704,376.7z"/>
			<path class="st25" d="M716.4,382.7c-4.3,4.9-21.2,7.5-37.7,5.8c-16.5-1.7-26.3-7.1-22-12c4.3-4.9,21.2-7.5,37.7-5.8
				C710.9,372.4,720.7,377.8,716.4,382.7z"/>
			<path class="st26" d="M661.9,378.6c4-4.5,19.4-6.9,34.4-5.3c11.8,1.2,19.8,4.5,20.8,8.1c1.6-4.5-7.8-9.1-22.7-10.6
				c-16.5-1.7-33.4,0.9-37.7,5.8c-3.4,3.8,1.9,7.9,12.2,10.4C662.3,384.7,659.3,381.6,661.9,378.6z"/>
		</g>
		<g>
			<path class="st17" d="M772,446.8c-3.4,4.2-17,6.1-30.4,4.2c-13.4-1.9-21.6-6.9-18.2-11.1c3.4-4.2,17-6.1,30.4-4.2
				C767.2,437.6,775.4,442.5,772,446.8z"/>
			<path class="st27" d="M769.6,445.2c-3.3,3.5-11.9,6.2-28.1,4.2c-12.1-1.5-18.2-5.3-17-10c0.5-2,1.9-4.6,3.7-6.6
				c5.1-5.5,28.4,1.2,39.2,2.7c0,0,3,4.8,3.1,7.8C770.4,443.9,770.2,444.6,769.6,445.2z"/>
			<path class="st28" d="M759,434c-5.7-1.1-12.2-2.5-17.9-3c-2.5,5.7-5.2,11.2-8,16.8c2.3,0.7,5.1,1.3,8.3,1.7
				c10.8,1.3,18.2,0.6,22.9-1.1C762.5,443.5,760.7,438.8,759,434z"/>
			<path class="st29" d="M767,438.2c-2.9,3.1-14,4.4-24.7,2.9c-10.7-1.5-17-5.3-14.1-8.4c2.9-3.1,14-4.4,24.7-2.9
				C763.6,431.4,769.9,435.1,767,438.2z"/>
			<path class="st30" d="M731.5,434.2c2.7-2.8,12.8-4,22.6-2.7c7.7,1.1,12.8,3.4,13.4,5.8c1.2-2.9-4.9-6.1-14.6-7.5
				c-10.7-1.5-21.8-0.2-24.7,2.9c-2.3,2.4,1.1,5.2,7.7,7.1C731.6,438.2,729.7,436.1,731.5,434.2z"/>
		</g>
		<g>
			<path class="st17" d="M804.5,338.9c-2.5,3.2-12.7,4.6-22.7,3.2c-10-1.4-16.1-5.1-13.6-8.3c2.5-3.2,12.7-4.6,22.7-3.2
				C800.9,332,807,335.7,804.5,338.9z"/>
			<path class="st31" d="M802.7,337.7c-2.5,2.6-8.9,4.6-21,3.1c-9.1-1.1-13.6-4-12.7-7.5c0.4-1.5,1.4-3.4,2.8-4.9
				c3.8-4.1,21.2,0.9,29.3,2c0,0,2.2,3.6,2.3,5.8C803.3,336.8,803.1,337.3,802.7,337.7z"/>
			<path class="st32" d="M794.8,329.4c-4.2-0.8-9.1-1.8-13.4-2.3c-1.8,4.2-3.9,8.4-6,12.5c1.8,0.5,3.8,1,6.2,1.2
				c8.1,1,13.6,0.4,17.1-0.8C797.4,336.5,796,332.9,794.8,329.4z"/>
			<path class="st33" d="M800.7,332.5c-2.2,2.3-10.5,3.3-18.5,2.2c-8-1.1-12.7-3.9-10.5-6.3c2.2-2.3,10.5-3.3,18.5-2.2
				C798.2,327.4,802.9,330.2,800.7,332.5z"/>
			<path class="st34" d="M774.2,329.6c2-2.1,9.6-3,16.9-2c5.7,0.8,9.6,2.6,10,4.3c0.9-2.2-3.6-4.6-10.9-5.6
				c-8-1.1-16.3-0.2-18.5,2.2c-1.7,1.8,0.8,3.9,5.8,5.3C774.3,332.5,772.9,330.9,774.2,329.6z"/>
		</g>
		<g>
			<path class="st17" d="M427,432c-3.1,4.5-16.5,7.3-30.1,6.3c-13.5-1-22-5.4-19-9.8c3.1-4.5,16.5-7.3,30.1-6.3
				C421.6,423.2,430.1,427.6,427,432z"/>
			<path class="st35" d="M424.5,430.6c-3.1,3.7-11.4,7-27.8,6.1c-12.2-0.7-18.5-4.1-17.7-8.8c0.4-2,1.6-4.7,3.3-6.8
				c4.8-5.8,28.4-0.7,39.3,0c0,0,3.3,4.6,3.6,7.6C425.3,429.3,425.1,429.9,424.5,430.6z"/>
			<path class="st36" d="M413.2,420.1c-5.7-0.7-12.4-1.6-18.1-1.8c-2.1,5.8-4.4,11.6-6.8,17.3c2.4,0.5,5.2,0.9,8.4,1.1
				c10.9,0.6,18.1-0.7,22.8-2.7C417.3,429.5,415.2,424.8,413.2,420.1z"/>
			<path class="st37" d="M421.4,423.9c-2.7,3.3-13.7,5.4-24.5,4.6c-10.8-0.8-17.3-4.1-14.6-7.4c2.7-3.3,13.7-5.4,24.5-4.6
				C417.6,417.2,424.2,420.5,421.4,423.9z"/>
			<path class="st38" d="M385.8,422.3c2.5-3,12.5-4.9,22.4-4.2c7.7,0.6,13,2.5,13.8,4.8c0.9-3-5.3-5.8-15.1-6.5
				c-10.8-0.8-21.8,1.3-24.5,4.6c-2.1,2.6,1.4,5.1,8.2,6.5C386.2,426.2,384.1,424.3,385.8,422.3z"/>
		</g>
		<g>
			<path class="st17" d="M264.3,413.2c-3.1,4.5-16.5,7.3-30.1,6.3c-13.5-1-22-5.4-19-9.8c3.1-4.5,16.5-7.3,30.1-6.3
				C258.9,404.3,267.4,408.7,264.3,413.2z"/>
			<path class="st39" d="M261.9,411.7c-3.1,3.7-11.4,7-27.8,6.1c-12.2-0.7-18.5-4.1-17.7-8.8c0.4-2,1.6-4.7,3.3-6.8
				c4.8-5.8,28.4-0.7,39.3,0c0,0,3.3,4.6,3.6,7.6C262.6,410.4,262.4,411.1,261.9,411.7z"/>
			<path class="st40" d="M250.5,401.3c-5.7-0.7-12.4-1.6-18.1-1.8c-2.1,5.8-4.4,11.6-6.8,17.3c2.4,0.5,5.2,0.9,8.4,1.1
				c10.9,0.6,18.1-0.7,22.8-2.7C254.6,410.6,252.5,405.9,250.5,401.3z"/>
			<path class="st41" d="M258.7,405c-2.7,3.3-13.7,5.4-24.5,4.6c-10.8-0.8-17.3-4.1-14.6-7.4c2.7-3.3,13.7-5.4,24.5-4.6
				C254.9,398.4,261.5,401.7,258.7,405z"/>
			<path class="st42" d="M223.1,403.4c2.5-3,12.5-4.9,22.4-4.2c7.7,0.6,13,2.5,13.8,4.8c0.9-3-5.3-5.8-15.1-6.5
				c-10.8-0.8-21.8,1.3-24.5,4.6c-2.1,2.6,1.4,5.1,8.2,6.5C223.5,407.4,221.4,405.4,223.1,403.4z"/>
		</g>
		<g>
			<path class="st17" d="M992.9,383.6c-2.8,3.1-13.3,3.8-23.5,1.6c-10.2-2.2-16.2-6.4-13.4-9.5c2.8-3.1,13.3-3.8,23.5-1.6
				C989.7,376.3,995.7,380.5,992.9,383.6z"/>
			<path class="st43" d="M991.2,382.2c-2.7,2.5-9.4,4.1-21.8,1.7c-9.2-1.8-13.7-5.1-12.5-8.6c0.5-1.5,1.7-3.4,3.2-4.8
				c4.2-3.9,21.7,2.4,29.9,4.2c0,0,2,3.8,1.9,6.1C991.9,381.3,991.7,381.8,991.2,382.2z"/>
			<path class="st44" d="M983.7,373.1c-4.3-1.2-9.2-2.5-13.6-3.3c-2.2,4.2-4.6,8.3-7,12.4c1.8,0.7,3.8,1.2,6.3,1.7
				c8.2,1.6,13.9,1.4,17.6,0.4C985.8,380.6,984.7,376.8,983.7,373.1z"/>
			<path class="st45" d="M989.5,376.8c-2.4,2.2-11,2.6-19.1,0.9c-8.1-1.7-12.8-4.9-10.3-7.2c2.4-2.2,11-2.6,19.1-0.9
				C987.3,371.3,992,374.5,989.5,376.8z"/>
			<path class="st46" d="M962.6,371.8c2.2-2,10-2.4,17.4-0.8c5.8,1.2,9.6,3.3,10,5.1c1-2.2-3.4-4.9-10.8-6.5
				c-8.1-1.7-16.7-1.3-19.1,0.9c-1.9,1.7,0.5,4.1,5.5,5.8C962.5,374.9,961.1,373.1,962.6,371.8z"/>
		</g>
		<g>
			<path class="st17" d="M529.3,387.9c-2.5,3.4-12.8,5.2-23.2,4.2c-10.4-1-16.8-4.6-14.3-8c2.5-3.4,12.8-5.2,23.2-4.2
				C525.3,381,531.8,384.6,529.3,387.9z"/>
			<path class="st43" d="M527.4,386.8c-2.4,2.8-8.9,5.1-21.5,4.1c-9.3-0.8-14.1-3.5-13.4-7.2c0.3-1.5,1.3-3.6,2.7-5.2
				c3.8-4.4,21.8,0,30.1,0.9c0,0,2.4,3.6,2.6,5.9C528,385.8,527.9,386.3,527.4,386.8z"/>
			<path class="st44" d="M519,378.5c-4.4-0.7-9.4-1.5-13.8-1.8c-1.7,4.4-3.6,8.8-5.6,13.1c1.8,0.5,4,0.8,6.4,1
				c8.3,0.7,13.9-0.1,17.5-1.5C521.9,385.7,520.4,382.1,519,378.5z"/>
			<path class="st45" d="M525.2,381.5c-2.2,2.5-10.6,3.8-18.9,3c-8.3-0.8-13.2-3.5-11.1-6c2.2-2.5,10.6-3.8,18.9-3
				C522.4,376.4,527.4,379,525.2,381.5z"/>
			<path class="st46" d="M497.9,379.5c2-2.3,9.7-3.5,17.2-2.7c5.9,0.6,9.9,2.2,10.5,4c0.8-2.3-3.9-4.5-11.4-5.3
				c-8.3-0.8-16.7,0.5-18.9,3c-1.7,1.9,1,4,6.1,5.2C498.1,382.6,496.6,381,497.9,379.5z"/>
		</g>
		<g>
			<path class="st17" d="M515.4,344.2c-3.1,4.7-17,7.9-31.2,7.2c-14.1-0.7-23-5.1-19.9-9.8c3.1-4.7,17-7.9,31.2-7.2
				C509.5,335.1,518.5,339.5,515.4,344.2z"/>
			<path class="st47" d="M512.8,342.8c-3.1,4-11.8,7.5-28.8,7c-12.7-0.4-19.4-3.8-18.6-8.8c0.3-2.1,1.5-4.9,3.3-7.2
				c4.8-6.2,29.6-1.4,40.9-0.8c0,0,3.5,4.7,3.9,7.8C513.5,341.4,513.3,342.1,512.8,342.8z"/>
			<path class="st48" d="M500.7,332.1c-6-0.6-12.9-1.4-18.9-1.5c-2,6.1-4.3,12.1-6.7,18.1c2.5,0.5,5.4,0.8,8.8,1
				c11.3,0.4,18.9-1.1,23.6-3.3C505.2,341.7,502.9,337,500.7,332.1z"/>
			<path class="st49" d="M509.4,335.7c-2.7,3.5-14.1,6-25.3,5.5c-11.3-0.5-18.2-3.7-15.4-7.2c2.7-3.5,14.1-6,25.3-5.5
				C505.2,328.9,512.1,332.1,509.4,335.7z"/>
			<path class="st50" d="M472.2,335c2.5-3.2,12.9-5.4,23.2-4.9c8.1,0.4,13.6,2.4,14.4,4.7c0.9-3.1-5.6-5.9-15.8-6.4
				c-11.3-0.6-22.6,1.8-25.4,5.3c-2.1,2.7,1.6,5.3,8.7,6.6C472.7,339.1,470.6,337.1,472.2,335z"/>
		</g>
		<g>
			<path class="st17" d="M905.8,456.4c-2.8,3.7-14.4,5.7-25.9,4.5c-11.5-1.2-18.7-5.2-15.9-9c2.8-3.7,14.4-5.7,25.9-4.5
				C901.4,448.7,908.5,452.7,905.8,456.4z"/>
			<path class="st47" d="M903.7,455.1c-2.7,3.1-10,5.7-23.9,4.4c-10.4-0.9-15.7-4-14.9-8.1c0.4-1.7,1.5-4,3-5.7
				c4.2-4.8,24.3,0.2,33.6,1.2c0,0,2.7,4,2.9,6.6C904.4,454.1,904.2,454.6,903.7,455.1z"/>
			<path class="st48" d="M894.3,445.9c-4.9-0.8-10.5-1.8-15.4-2.1c-1.9,4.9-4.1,9.8-6.3,14.6c2,0.5,4.4,0.9,7.2,1.2
				c9.3,0.8,15.5,0,19.5-1.6C897.5,453.9,895.8,449.9,894.3,445.9z"/>
			<path class="st49" d="M901.2,449.2c-2.4,2.8-11.8,4.3-21,3.4c-9.2-0.9-14.7-3.9-12.3-6.7c2.4-2.8,11.8-4.3,21-3.4
				C898.1,443.4,903.6,446.4,901.2,449.2z"/>
			<path class="st50" d="M870.8,446.9c2.2-2.5,10.8-3.8,19.2-2.9c6.6,0.7,11.1,2.6,11.6,4.5c0.9-2.5-4.3-5.1-12.7-6
				c-9.2-1-18.6,0.5-21.1,3.2c-1.9,2.1,1.1,4.4,6.8,5.8C871,450.3,869.3,448.5,870.8,446.9z"/>
		</g>
	</g>
</g>
</svg>
