<?xml version="1.0" encoding="utf-8"?>
<!-- Generator: Adobe Illustrator 24.3.0, SVG Export Plug-In . SVG Version: 6.00 Build 0)  -->
<svg version="1.1" id="Layer_1" xmlns="http://www.w3.org/2000/svg" xmlns:xlink="http://www.w3.org/1999/xlink" x="0px" y="0px"
	 viewBox="0 0 1216.1 1241.9" style="enable-background:new 0 0 1216.1 1241.9;" xml:space="preserve">
<style type="text/css">
	.st0{fill:url(#SVGID_1_);}
	.st1{fill:url(#SVGID_2_);}
	.st2{fill:#E0B582;}
	.st3{fill:#E33B41;}
	.st4{fill:url(#SVGID_3_);}
	.st5{fill:url(#SVGID_4_);}
	.st6{fill:#C61D29;}
	.st7{fill:url(#SVGID_5_);}
	.st8{fill:url(#SVGID_6_);}
	.st9{fill:#FFF5FE;}
	.st10{fill:#FFFAFE;}
	.st11{fill:#FCDEFA;}
	.st12{fill:#E2ACE1;}
</style>
<g>
	
		<radialGradient id="SVGID_1_" cx="583.2612" cy="1500.1488" r="424.8484" gradientTransform="matrix(1.0727 0 0 0.291 -30.4731 447.235)" gradientUnits="userSpaceOnUse">
		<stop  offset="0.3556" style="stop-color:#000000"/>
		<stop  offset="0.4257" style="stop-color:#050505"/>
		<stop  offset="0.5055" style="stop-color:#121212"/>
		<stop  offset="0.59" style="stop-color:#292929"/>
		<stop  offset="0.678" style="stop-color:#494949"/>
		<stop  offset="0.7685" style="stop-color:#727272"/>
		<stop  offset="0.8612" style="stop-color:#A5A5A5"/>
		<stop  offset="0.954" style="stop-color:#DFDFDF"/>
		<stop  offset="1" style="stop-color:#FFFFFF"/>
	</radialGradient>
	<ellipse class="st0" cx="595.2" cy="883.8" rx="455.7" ry="123.6"/>
	<g>
		<g>
			<g>
				<radialGradient id="SVGID_2_" cx="372.3383" cy="396.1554" r="739.1926" gradientUnits="userSpaceOnUse">
					<stop  offset="0" style="stop-color:#ECD7C2"/>
					<stop  offset="0.996" style="stop-color:#EFC993"/>
				</radialGradient>
				<path class="st1" d="M1016.3,871.5c0,49.9-197.3,109.2-430.4,109.2s-413.7-59.3-413.7-109.2c0-12.6-18.1-327.3-4.7-373.8
					C193.2,441,417.4,470,586.2,470c175.2,0,404-43,435,30.6C1034.9,533,1016.3,860.3,1016.3,871.5z"/>
				<path class="st2" d="M1025.6,539.2c-0.7-19.3-2.1-33.1-4.4-38.6c-2.4-5.7-6.1-10.7-10.8-15c-19.4-10.3-50.2-19.2-89.3-26.6
					C831,452.6,697.8,470,586.2,470c-141.2,0-321.1-20.2-391.2,6.3c-7,3-12.9,6.2-17.7,9.5c-4.4,3.5-7.8,7.4-9.9,11.9
					c-1.7,6-2.9,16.4-3.7,30c1.1,7.4,6.1,10.7,12.4,15.1c2.7,1.9,5.4,0.9,8.3,3.4c3.6,3.1,4.4,9.1,7.7,12.7c6.3,7,13.5,6.2,21.3,9.3
					c8.3,3.3,6.2,4.7,13.7,10.1c17.3,12.4,42.6,2,61.5,2.2c13.4,0.1,27.2,4.5,40.8,5c13.9,0.6,27.7,0.3,41.4,2.8
					c19,3.5,33.4,20.8,53.5,19.5c11.7-0.8,24.8-1.6,36.1-5c24.8-7.5,56.7-13.3,82.9-7.4c31,6.9,58.5,15.6,90.1,7.1
					c29.9-8.1,60.3-5.5,90.9-3.8c29.9,1.7,61,13.5,90.6,4.9c31.3-9,60.7-29.3,95.2-24.2c29,4.3,50,0.4,76-12.4
					C996.7,561.9,1015.9,551.6,1025.6,539.2z"/>
				<path class="st3" d="M585.6,785.5c24.1-1,48.2-2.1,72.5-2.1c28.3,0.1,57.1,0.6,85-4.9c19.6-3.8,39.3-11.5,59.1-13.8
					c13.8-1.6,28.5,0.1,42.1-3.1c8.5-2,15.2-5.5,24.1-6.4c25.4-2.7,49.7-9,74.5-14.8c23.8-5.6,54.8-14.8,73.4-31.6
					c6.5-5.9,7.6-9.4,8.7-17.8c0.3-2.5-0.4-28.9-0.1-29.1c-72.8,29.2-224.8,54.1-439.3,54.1c-212.8,0-384.9-12.2-423.5-58.9
					c2.9,3.5,1.2,30.1,3.1,35.6c3,8.6,12.7,13.5,20.3,18.8c23,15.9,49.4,25.7,76.5,32c19.5,4.5,37.5,12.5,56.4,18.9
					c20.1,6.8,40.2,7.6,61.2,9.2c20.4,1.6,39.7,6.9,59.7,10.4c20.8,3.6,42,3.3,63.1,4.3C530.3,787.7,557.9,786.7,585.6,785.5z"/>
				<linearGradient id="SVGID_3_" gradientUnits="userSpaceOnUse" x1="158.2072" y1="668.4191" x2="1027.7444" y2="668.4191">
					<stop  offset="0" style="stop-color:#FFF5FE"/>
					<stop  offset="1" style="stop-color:#FDE8FC"/>
				</linearGradient>
				<path class="st4" d="M585.5,748.6c43.6,0.3,87.2,5,130.7,1.8c37.8-2.8,75.7-12.1,112.4-21.6c19.3-5,39.9-3.2,59.1-7.8
					c26.8-6.4,53.9-12.1,79.7-21.7c13-4.8,55-21.2,57.3-37.3c4.3-29.2,3-48.5,1.3-72.4c-12.4,14.6-27.6,18.2-43.1,27
					c-16.8,9.5-28.8,22.6-48,28.4c-45.7,13.6-96.4,21.9-143.5,27.1c-29.9,3.3-59.4,6.4-89,8.8c-20.1,1.7-39,6.8-59.1,8.9
					c-10.8,1.2-21.4-1.9-32.2-2.3c-34.9-1.2-69.5-0.5-104.3-2.2c-29-1.4-56.9-8.9-85.8-11.4c-23.4-2.1-45.2-13.4-68.1-13.9
					c-15.6-0.3-32,1.7-47.4-2.2c-16.4-4.1-29.6-13.6-44.4-21.2c-15.6-8-32.3-10.3-48.9-14.2c-7-1.7-51.5-28-49.9-37.1
					c-3.6,21.1-9.7,63.8,5.2,82.3c14.1,17.6,40.2,23.2,59.8,31.3c25.1,10.3,49.5,18.8,75.7,26.1c32.8,9.1,63.5,10.6,97.3,12.6
					c41.7,2.5,82.3,10.7,124.2,10.7C545.1,748.3,565.3,748.5,585.5,748.6z"/>
				<path class="st3" d="M586.3,932.1c24-1,48-2.1,72.1-2.1c28.1,0.1,56.8,0.6,84.5-4.9c19.5-3.8,39.1-11.5,58.7-13.7
					c13.7-1.6,28.4,0.1,41.8-3.1c8.4-2,15.1-5.4,23.9-6.4c25.3-2.7,49.4-8.9,74.1-14.7c23.7-5.5,54.5-14.8,73-31.4
					c0.6-0.5,5.9-27,5-20.4c-0.3,2.5,1.1-30.4,1.4-30.6C948.6,834,799.6,863,586.3,863c-211.6,0-379-3.6-417.3-50.1
					c2.9,3.5-2.6,21.4-0.7,26.9c3,8.6,12.7,13.5,20.2,18.7c22.9,15.9,49.1,25.6,76.1,31.8c19.4,4.5,37.3,12.4,56.1,18.8
					c20,6.8,40,7.6,60.8,9.2c20.3,1.6,39.4,6.9,59.4,10.4c20.7,3.6,41.8,3.3,62.7,4.3C531.4,934.2,558.8,933.3,586.3,932.1z"/>
				<linearGradient id="SVGID_4_" gradientUnits="userSpaceOnUse" x1="161.83" y1="817.1283" x2="1023.8509" y2="817.1283">
					<stop  offset="0" style="stop-color:#FFF5FE"/>
					<stop  offset="1" style="stop-color:#FDE8FC"/>
				</linearGradient>
				<path class="st5" d="M586.2,895.3c43.3,0.3,86.7,5,130,1.8c37.6-2.8,75.3-12.1,111.8-21.5c19.2-5,39.7-3.2,58.8-7.7
					c26.6-6.3,53.6-12,79.3-21.6c12.9-4.8,52.5-25.3,54.9-41.4c4.3-29.1,3-45,1.4-68.9c-12.3,14.6-25.3,19.2-40.8,27.9
					c-16.7,9.4-28.6,22.5-47.7,28.3c-45.4,13.5-95.9,21.8-142.7,27c-29.7,3.3-59,6.3-88.5,8.8c-20,1.7-38.7,6.7-58.7,8.9
					c-10.7,1.2-21.3-1.9-32-2.3c-34.7-1.2-69.1-0.5-103.7-2.2c-28.9-1.4-56.5-8.8-85.3-11.4c-23.3-2.1-44.9-13.4-67.7-13.8
					c-15.6-0.3-31.8,1.7-47.1-2.2c-16.3-4.1-29.4-13.6-44.2-21.1c-15.5-7.9-32.1-10.2-48.6-14.2c-6.9-1.7-50.2-21.9-48.7-30.9
					c-3.6,21-10.6,57.6,4.2,76c14,17.5,40,23.1,59.5,31.1c25,10.2,49.2,18.7,75.3,26c32.6,9.1,63.2,10.5,96.7,12.6
					c41.4,2.5,81.8,10.6,123.5,10.7C546.1,895,566.2,895.2,586.2,895.3z"/>
				<path class="st6" d="M1031.7,516.6c0,18.8-31,35.6-45.5,42.7c-26,12.8-47,16.8-76,12.4c-34.5-5.2-63.9,15.2-95.2,24.2
					c-29.7,8.5-60.8-3.3-90.6-4.9c-30.5-1.7-60.9-4.3-90.9,3.8c-31.7,8.5-59.2-0.1-90.1-7.1c-26.2-5.9-58.1-0.1-82.9,7.4
					c-11.3,3.4-24.3,4.3-36.1,5c-20.1,1.3-34.6-16-53.5-19.5c-13.7-2.5-27.6-2.3-41.4-2.8c-13.6-0.6-27.4-4.9-40.8-5
					c-18.9-0.2-44.2,10.2-61.5-2.2c-7.5-5.4-5.4-6.9-13.7-10.1c-7.9-3.1-15-2.3-21.3-9.3c-3.2-3.6-4.1-9.6-7.7-12.7
					c-2.8-2.5-5.6-1.5-8.3-3.4c-7.2-5-12.6-8.6-12.6-18.4c0-1.2-0.2-19.9,0-21c8.8-44.3,191.7-69,425.5-69
					c224.7,0,419.4,26.6,442.6,69C1031.7,495.6,1031.7,513.7,1031.7,516.6z"/>
				<path class="st3" d="M1031.7,507.1c0,18.8-31,35.6-45.5,42.7c-26,12.8-47,16.8-76,12.4c-34.5-5.2-63.9,15.2-95.2,24.2
					c-29.7,8.5-60.8-3.3-90.6-4.9c-30.5-1.7-60.9-4.3-90.9,3.8c-31.7,8.5-59.2-0.1-90.1-7.1c-26.2-5.9-58.1-0.1-82.9,7.4
					c-11.3,3.4-24.3,4.3-36.1,5c-20.1,1.3-34.6-16-53.5-19.5c-13.7-2.5-27.6-2.3-41.4-2.8c-13.6-0.6-27.4-4.9-40.8-5
					c-18.9-0.2-44.2,10.2-61.5-2.2c-7.5-5.4-5.4-6.9-13.7-10.1c-7.9-3.1-15-2.3-21.3-9.3c-3.2-3.6-4.1-9.6-7.7-12.7
					c-2.8-2.5-5.6-1.5-8.3-3.4c-7.2-5-12.6-8.6-12.6-18.4c0-1.2-0.2-19.9,0-21c8.8-44.3,191.7-69,425.5-69
					c224.7,0,419.4,26.6,442.6,69C1031.7,486.1,1031.7,504.3,1031.7,507.1z"/>
				
					<radialGradient id="SVGID_5_" cx="617.0005" cy="-1352.8215" r="1991.0264" gradientTransform="matrix(0.9806 0 0 0.9806 -14.2079 -56.9274)" gradientUnits="userSpaceOnUse">
					<stop  offset="0.9292" style="stop-color:#F8626E"/>
					<stop  offset="0.9596" style="stop-color:#F7606C"/>
					<stop  offset="0.9756" style="stop-color:#F35964"/>
					<stop  offset="0.9881" style="stop-color:#ED4E56"/>
					<stop  offset="0.9988" style="stop-color:#E43D44"/>
					<stop  offset="1" style="stop-color:#E33B41"/>
				</radialGradient>
				<path class="st7" d="M1031.7,486.1c0,45.5-202.9,74.8-442.6,74.8c-239.7,0-425.5-29.3-425.5-74.8s185.8-90,425.5-90
					C828.8,396.1,1031.7,440.6,1031.7,486.1z"/>
				
					<radialGradient id="SVGID_6_" cx="560.6373" cy="-1139.296" r="1789.1163" gradientTransform="matrix(0.9513 0 0 0.8831 23.061 1.4985)" gradientUnits="userSpaceOnUse">
					<stop  offset="0.87" style="stop-color:#F8626E"/>
					<stop  offset="0.9073" style="stop-color:#F65E69"/>
					<stop  offset="0.9486" style="stop-color:#F0535C"/>
					<stop  offset="0.9918" style="stop-color:#E53F46"/>
					<stop  offset="1" style="stop-color:#E33B41"/>
				</radialGradient>
				<path class="st8" d="M655.3,539.6C422.7,539,242.6,512.1,242.7,471c0.1-18.9,38.3-37.5,102.1-52
					c-104.6,15.2-171.4,39.7-171.5,64.6c-0.1,41.1,180.1,68,412.6,68.6c150.2,0.4,285.5-10.3,362.5-29
					C871,534,767.3,539.9,655.3,539.6z"/>
			</g>
		</g>
		<g>
			<path class="st6" d="M715,424.5c-15.7,13.5,22.6,15,31.8,18.9c4.1,4.2,13.7,7.2,33.6,5.9c-0.1-0.2-0.2-0.3-0.3-0.5
				c8.5-6.3,74.9-4.8,55.1-23.5L715,424.5z"/>
			<g>
				<g>
					<path class="st9" d="M798.5,380.8c8,14.5-12.6,47.5-34.9,61.9c18,3.7,18.2-3.2,25.9-4C860.2,431.2,823.5,393.9,798.5,380.8z"/>
					<path class="st10" d="M722,426.8c-12.4-1.4-6.3-17.2,5.9-23.3c17.4-8.7,68.4-22.4,35-38.9C825.3,367,769.3,432.2,722,426.8z"/>
					<path class="st9" d="M722,426.8c-5.3-0.6-7.2-3.8-6.7-7.8c0.6-5.3-0.6,3.7,16.8-3c28-10.9,75.2-34.1,30.7-51.4
						C825.3,367,769.3,432.2,722,426.8z"/>
					<path class="st11" d="M715.3,419c0.7,4.4,4.6,8.1,21.6,0.4c37-16.8,74.3-43.7,25.9-54.8c57.6,2.2,30.2,70.5-14,74.7
						C741.9,433.7,710.9,438.5,715.3,419z"/>
					<path class="st12" d="M745.8,430.7c-5.8,1.3-11.8,1.6-17.8,0.2c-4.7-1.1-9.1-2.9-12.8-5.6c3.2,12.1,27.6,9.1,33.6,14
						c2.1-0.2,4.2-0.6,6.3-1.1C751,436.6,748,434,745.8,430.7z"/>
					<path class="st10" d="M746.3,437.3c-9.7-10.8-2.5-20.3,9.6-26.4c17.4-8.7,60.1-35,6.9-46.2
						C842.7,372.4,758.5,433.7,746.3,437.3z"/>
					<path class="st9" d="M780.4,444.1c-53.2,3.5-33-23.3-30-24.8c35.3-17.9,71.8-46.2,12.4-54.7c61.5,3.1,40.3,60.4,0.6,68.7
						C759.2,434.2,758.9,434.7,780.4,444.1z"/>
					<path class="st11" d="M780.4,444.1c-38.7,1.2-23.6-11.7-15.3-15.8c39.7-19.7,36.1-39.7,30.5-51.6
						C825.6,424.4,766.8,423.3,780.4,444.1z"/>
					<path class="st11" d="M798.5,380.8c73.1,45.2-24.8,49.8-19,63.3c7-7.8,64.9,2.1,56.9-29.3C832.7,400,802.6,382.9,798.5,380.8z"
						/>
					<path class="st10" d="M798.3,380.8c36,30.6-18.8,50-19,61.5C792.3,425,860.4,416.6,798.3,380.8z"/>
					<path class="st9" d="M727.8,403.6c17.4-8.7,70.7-21.2,35-38.9C771.1,378.4,753.3,389.5,727.8,403.6z"/>
				</g>
				<path class="st12" d="M780.8,427.9c32.1-20.5,20.4-39.3,14.7-51.2c26.3,41.8-15.4,46.1-17.2,60.5
					C778.2,439.2,772.8,433,780.8,427.9z"/>
				<path class="st12" d="M782.7,438.6c-2.7,1.7-4,3.5-3.2,5.5c6.1-6.8,51-0.1,57-19.2C826.1,436,797.3,436.1,782.7,438.6z"/>
			</g>
		</g>
		<g>
			<path class="st6" d="M376.4,422.1c-15.7,13.5,22.6,15,31.8,18.9c4.1,4.2,13.7,7.2,33.6,5.9c-0.1-0.2-0.2-0.3-0.3-0.5
				c8.5-6.3,74.9-4.8,55.1-23.5L376.4,422.1z"/>
			<g>
				<g>
					<path class="st9" d="M459.9,378.4c8,14.5-12.6,47.5-34.9,61.9c18,3.7,18.2-3.2,25.9-4C521.6,428.9,484.9,391.5,459.9,378.4z"/>
					<path class="st10" d="M383.4,424.4c-12.4-1.4-6.3-17.2,5.9-23.3c17.4-8.7,68.4-22.4,35-38.9
						C486.7,364.6,430.7,429.9,383.4,424.4z"/>
					<path class="st9" d="M383.4,424.4c-5.3-0.6-7.2-3.8-6.7-7.8c0.6-5.3-0.6,3.7,16.8-3c28-10.9,75.2-34.1,30.7-51.4
						C486.7,364.6,430.7,429.9,383.4,424.4z"/>
					<path class="st11" d="M376.6,416.7c0.7,4.4,4.6,8.1,21.6,0.4c37-16.8,74.3-43.7,25.9-54.8c57.6,2.2,30.2,70.5-14,74.7
						C403.3,431.3,372.3,436.1,376.6,416.7z"/>
					<path class="st12" d="M407.2,428.3c-5.8,1.3-11.8,1.6-17.8,0.2c-4.7-1.1-9.1-2.9-12.8-5.6c3.2,12.1,27.6,9.1,33.6,14
						c2.1-0.2,4.2-0.6,6.3-1.1C412.4,434.3,409.3,431.6,407.2,428.3z"/>
					<path class="st10" d="M407.7,434.9c-9.7-10.8-2.5-20.3,9.6-26.4c17.4-8.7,60.1-35,6.9-46.2
						C504.1,370.1,419.9,431.3,407.7,434.9z"/>
					<path class="st9" d="M441.8,441.7c-53.2,3.5-33-23.3-30-24.8c35.3-17.9,71.8-46.2,12.4-54.7c61.5,3.1,40.3,60.4,0.6,68.7
						C420.5,431.8,420.3,432.4,441.8,441.7z"/>
					<path class="st11" d="M441.8,441.7c-38.7,1.2-23.6-11.7-15.3-15.8c39.7-19.7,36.1-39.7,30.5-51.6
						C487,422,428.2,420.9,441.8,441.7z"/>
					<path class="st11" d="M459.9,378.4c73.1,45.2-24.8,49.8-19,63.3c7-7.8,64.9,2.1,56.9-29.3C494,397.6,463.9,380.5,459.9,378.4z"
						/>
					<path class="st10" d="M459.7,378.5c36,30.6-18.8,50-19,61.5C453.7,422.6,521.8,414.2,459.7,378.5z"/>
					<path class="st9" d="M389.2,401.2c17.4-8.7,70.7-21.2,35-38.9C432.4,376,414.7,387.1,389.2,401.2z"/>
				</g>
				<path class="st12" d="M442.2,425.5c32.1-20.5,20.4-39.3,14.7-51.2c26.3,41.8-15.4,46.1-17.2,60.5
					C439.5,436.9,434.2,430.6,442.2,425.5z"/>
				<path class="st12" d="M444.1,436.3c-2.7,1.7-4,3.5-3.2,5.5c6.1-6.8,51-0.1,57-19.2C487.5,433.7,458.7,433.8,444.1,436.3z"/>
			</g>
		</g>
		<g>
			<path class="st6" d="M713.1,453c-4.6,2-9.7,3.3-15.5,3.4c-36.3,1-69.8,4.4-106.3-1.7c-16.7-2.8-33.2-6.2-49.7-10h-47.8
				c-6.6,7.3-20.9,0.1-19.7,10.6c-1.8,30.8,96.3,52.3,127.6,47.9c33.6-4.8,72.8,9.1,90.8,11.9c-3.1-9.5-11.5-27.9-12.3-28.8
				c16.6-0.5,46.9-10.9,48-12.6C734.5,459.2,725.2,455.3,713.1,453z"/>
			<g>
				<g>
					<path class="st12" d="M499.6,410.2c21.6-13,8.8-32.7,19.5-36.8c31.9,8.2,139.6-42.9,156.3-24.2c0,0,41.7,48.8-42.8,91.9
						C600.2,405.8,476.4,428.7,499.6,410.2z"/>
					<path class="st11" d="M684.4,463c-100,52.1-101.4-39.7-79.2-58.8c37.9-3.9,56.7-18.7,104.1-17.1c7.6,0.3,16.1-1,18.4-5.5
						C699.7,416.1,710.7,446.8,684.4,463z"/>
					<path class="st12" d="M546.9,308.4c21.6-13,19.7-20,43.1-14c31.9,8.2,56.1,1.3,72.9,20.1c0,0-21.4,38.7-43.5,45.7
						C587,324.9,523.7,326.9,546.9,308.4z"/>
					<path class="st9" d="M545,309.2c-8.7,4.8-27.8,11.3-29.3,19.7c8.3-4.9,19-14,61,18.2c43.6,33.4,111.2,3,93.2-23.3
						c-24.2-35.3-25.1-2.8-30-0.8C566.4,353.3,562.8,299.5,545,309.2z"/>
					<g>
						<path class="st9" d="M609.9,234.1c-30.1,48.7,28.2,45.1,30,86.6C671.9,255.9,584.9,285.3,609.9,234.1z"/>
						<path class="st11" d="M609.9,234.1c-25.2,41.8,31.9,49.1,30,86.6C591.2,298.7,575.6,273.8,609.9,234.1z"/>
						<path class="st9" d="M609.9,234.1c-52.9,36-68.8,68.5-15.2,82.3c31.9,8.2,36.5-1.8,45.2,4.3c0,0,4.3-12-15.4-21.2
							C601.8,288.9,580.4,271.4,609.9,234.1z"/>
						<path class="st10" d="M607.2,236.2c-10.7,11.8-66.7,43.3,11.2,72.9C581.9,284.4,582,268.2,607.2,236.2z"/>
						<path class="st11" d="M561.7,288.2c-0.4,11.7,9.8,21.1,33.2,27.2c31.9,8.2,34.8-1.6,44.9,5.4c0,0-7,1.4-29.1,8.4
							C587.2,336.6,553.9,317.8,561.7,288.2z"/>
						<path class="st10" d="M609.9,234.1c-12.6,33.8,27.5,23.8,35.8,54.3C637.2,265.3,589.6,274.9,609.9,234.1z"/>
					</g>
					<path class="st11" d="M519.3,371.9c5.8-13.9-5.9-41.7-3.5-43.1c8.3-4.9,19-16.5,61,15.6c43.6,33.4,111.3,5.5,93.2-20.8
						c15.6,18.1-12.2,43-16.3,46.5C586.9,426.7,515,382.1,519.3,371.9z"/>
					<path class="st9" d="M518.4,373.4c-29.2-1-45,13.2-53.1,30.6c-8.1,17.4,48.1,52.3,112.9,50c64.8-2.3,93.8,46.6,107.5,53.7
						c-10-30.5-42.2-88.3-70.3-97.3C587.3,401.4,516.5,404.1,518.4,373.4z"/>
					<path class="st10" d="M515.7,328.8c8.3-4.9,19-13.3,61,18.9c43.6,33.4,114.2,2,93.2-24c10.6,22.3-38.7,25.9-71.4,16.4
						C563.5,329.7,529.5,311.5,515.7,328.8z"/>
					<path class="st10" d="M666.4,480c-5.5-6.9-49.2-41.3-109.7-44.5c-57.2-3-121.2-45.5-47.8-59.9c-20.2,17.8,4.8,38.3,39.3,41.3
						C587.3,420.5,619.9,403.9,666.4,480z"/>
					<path class="st11" d="M478.2,448c-1.5-14-12.2-10.7-13.3-37.8c4.9,18.3,57,41.3,114.6,39.3c64.8-2.3,92.5,51,106.2,58.1
						c-18-2.8-50.9-16.8-84.5-12C569.8,500.1,476.4,478.8,478.2,448z"/>
					<path class="st9" d="M675.4,349.2c-3.7,22.7-51.2,49.7-70.2,55c47.1,9.6,56.7-18.7,104.1-17.1
						C734.6,387.9,736.7,351.2,675.4,349.2z"/>
					<path class="st10" d="M675.4,349.2c36.4,7,45.7,18.5,34.6,26.9c-8.5,6.4-34.9,9.7-35,15.7c0,0,24.6-3.6,38.5-3.1
						C738.8,389.5,736.7,351.2,675.4,349.2z"/>
				</g>
				<path class="st11" d="M654.8,447.2c5.5,8.4,18.6,30.5,18.8,32c16.6-0.5,47.6-9.8,48.7-11.5c8.2-19.3,21.8-24.2,24.4-47.3
					C749,400.1,697.3,451.8,654.8,447.2z"/>
				<path class="st9" d="M655.3,447.9c34.9-9.3,48.3-20.8,53.3-31.8c2.3-10.6,6.8-15.7,7.9-17.5c13.2,0.9,33.3,1.4,30.2,21.8
					C743.6,440.9,681.7,446.1,655.3,447.9z"/>
				<path class="st12" d="M655.3,447.9c34.9-9.3,48.3-20.8,53.3-31.8c2.3-10.6,6.8-15.7,7.9-17.5l2.4-4.3c-22.5,4.7-10,37-70.5,44
					L655.3,447.9z"/>
				<path class="st12" d="M478.2,448c-0.7-7-3.8-9.7-6.8-14c65.2,28.4,8.5,41.4,126.3,52.5c63.7,6,74.2,14,87.9,21.1
					c-18-2.8-50.9-16.8-84.5-12C569.8,500.1,476.4,478.8,478.2,448z"/>
			</g>
		</g>
		<g>
			<path class="st6" d="M269.2,439.2c-15.7,13.5,22.6,15,31.8,18.9c4.1,4.2,13.7,7.2,33.6,5.9c-0.1-0.2-0.2-0.3-0.3-0.5
				c8.5-6.3,74.9-4.8,55.1-23.5L269.2,439.2z"/>
			<g>
				<g>
					<path class="st9" d="M352.7,395.5c8,14.5-12.6,47.5-34.9,61.9c18,3.7,18.2-3.2,25.9-4C414.4,445.9,377.7,408.6,352.7,395.5z"/>
					<path class="st10" d="M276.2,441.5c-12.4-1.4-6.3-17.2,5.9-23.3c17.4-8.7,68.4-22.4,35-38.9
						C379.5,381.7,323.5,446.9,276.2,441.5z"/>
					<path class="st9" d="M276.2,441.5c-5.3-0.6-7.2-3.8-6.7-7.8c0.6-5.3-0.6,3.7,16.8-3c28-10.9,75.2-34.1,30.7-51.4
						C379.5,381.7,323.5,446.9,276.2,441.5z"/>
					<path class="st11" d="M269.5,433.7c0.7,4.4,4.6,8.1,21.6,0.4c37-16.8,74.3-43.7,25.9-54.8c57.6,2.2,30.2,70.5-14,74.7
						C296.1,448.4,265.1,453.2,269.5,433.7z"/>
					<path class="st12" d="M300,445.4c-5.8,1.3-11.8,1.6-17.8,0.2c-4.7-1.1-9.1-2.9-12.8-5.6c3.2,12.1,27.6,9.1,33.6,14
						c2.1-0.2,4.2-0.6,6.3-1.1C305.3,451.3,302.2,448.7,300,445.4z"/>
					<path class="st10" d="M300.5,452c-9.7-10.8-2.5-20.3,9.6-26.4c17.4-8.7,60.1-35,6.9-46.2C397,387.1,312.7,448.4,300.5,452z"/>
					<path class="st9" d="M334.6,458.8c-53.2,3.5-33-23.3-30-24.8c35.3-17.9,71.8-46.2,12.4-54.7c61.5,3.1,40.3,60.4,0.6,68.7
						C313.4,448.9,313.1,449.4,334.6,458.8z"/>
					<path class="st11" d="M334.6,458.8c-38.7,1.2-23.6-11.7-15.3-15.8c39.7-19.7,36.1-39.7,30.5-51.6
						C379.8,439.1,321,438,334.6,458.8z"/>
					<path class="st11" d="M352.7,395.5c73.1,45.2-24.8,49.8-19,63.3c7-7.8,64.9,2.1,56.9-29.3C386.9,414.7,356.8,397.5,352.7,395.5
						z"/>
					<path class="st10" d="M352.5,395.5c36,30.6-18.8,50-19,61.5C346.5,439.6,414.7,431.2,352.5,395.5z"/>
					<path class="st9" d="M282.1,418.2c17.4-8.7,70.7-21.2,35-38.9C325.3,393,307.5,404.2,282.1,418.2z"/>
				</g>
				<path class="st12" d="M335,442.6c32.1-20.5,20.3-39.3,14.7-51.2c26.3,41.8-15.4,46.1-17.2,60.5
					C332.4,453.9,327.1,447.7,335,442.6z"/>
				<path class="st12" d="M336.9,453.3c-2.7,1.7-4,3.5-3.2,5.5c6.1-6.8,51-0.1,57-19.2C380.4,450.7,351.5,450.8,336.9,453.3z"/>
			</g>
		</g>
		<g>
			<path class="st6" d="M820.9,433.3c-15.7,13.5,22.6,15,31.8,18.9c4.1,4.2,13.7,7.2,33.6,5.9c-0.1-0.2-0.2-0.3-0.3-0.5
				c8.5-6.3,74.9-4.8,55.1-23.5L820.9,433.3z"/>
			<g>
				<g>
					<path class="st9" d="M904.4,389.5c8,14.5-12.6,47.5-34.9,61.9c18,3.7,18.2-3.2,25.9-4C966.1,440,929.3,402.7,904.4,389.5z"/>
					<path class="st10" d="M827.8,435.6c-12.4-1.4-6.3-17.2,5.9-23.3c17.4-8.7,68.4-22.4,35-38.9C931.1,375.7,875.2,441,827.8,435.6
						z"/>
					<path class="st9" d="M827.8,435.6c-5.3-0.6-7.2-3.8-6.7-7.8c0.6-5.3-0.6,3.7,16.8-3c28-10.9,75.2-34.1,30.7-51.4
						C931.1,375.7,875.2,441,827.8,435.6z"/>
					<path class="st11" d="M821.1,427.8c0.7,4.4,4.6,8.1,21.6,0.4c37-16.8,74.3-43.7,25.9-54.8c57.6,2.2,30.2,70.5-14,74.7
						C847.8,442.4,816.7,447.2,821.1,427.8z"/>
					<path class="st12" d="M851.7,439.4c-5.8,1.3-11.8,1.6-17.8,0.2c-4.7-1.1-9.1-2.9-12.8-5.6c3.2,12.1,27.6,9.1,33.6,14
						c2.1-0.2,4.2-0.6,6.3-1.1C856.9,445.4,853.8,442.7,851.7,439.4z"/>
					<path class="st10" d="M852.2,446c-9.7-10.8-2.5-20.3,9.6-26.4c17.4-8.7,60.1-35,6.9-46.2C948.6,381.2,864.3,442.4,852.2,446z"
						/>
					<path class="st9" d="M886.3,452.8c-53.2,3.5-33-23.3-30-24.8c35.3-17.9,71.8-46.2,12.4-54.7c61.5,3.1,40.3,60.4,0.6,68.7
						C865,442.9,864.8,443.5,886.3,452.8z"/>
					<path class="st11" d="M886.3,452.8c-38.7,1.2-23.6-11.7-15.3-15.8c39.7-19.7,36.1-39.7,30.5-51.6
						C931.5,433.1,872.7,432,886.3,452.8z"/>
					<path class="st11" d="M904.4,389.5c73.1,45.2-24.8,49.8-19,63.3c7-7.8,64.9,2.1,56.9-29.3C938.5,408.7,908.4,391.6,904.4,389.5
						z"/>
					<path class="st10" d="M904.2,389.6c36,30.6-18.8,50-19,61.5C898.2,433.7,966.3,425.3,904.2,389.6z"/>
					<path class="st9" d="M833.7,412.3c17.4-8.7,70.7-21.2,35-38.9C876.9,387.1,859.1,398.2,833.7,412.3z"/>
				</g>
				<path class="st12" d="M886.7,436.6c32.1-20.5,20.3-39.3,14.7-51.2c26.3,41.8-15.4,46.1-17.2,60.5
					C884,448,878.7,441.7,886.7,436.6z"/>
				<path class="st12" d="M888.6,447.4c-2.7,1.7-4,3.5-3.2,5.5c6.1-6.8,51-0.1,57-19.2C932,444.8,903.2,444.9,888.6,447.4z"/>
			</g>
		</g>
		<g>
			<path class="st6" d="M175.9,476.7c-18.1,15.6,26,17.3,36.6,21.7c4.7,4.9,15.8,8.2,38.7,6.7c-0.1-0.2-0.2-0.4-0.3-0.6
				c9.8-7.2,86.3-5.5,63.4-27L175.9,476.7z"/>
			<g>
				<g>
					<path class="st9" d="M272,426.3c9.2,16.7-14.5,54.7-40.1,71.3c20.7,4.3,21-3.6,29.8-4.6C343,484.4,300.7,441.4,272,426.3z"/>
					<path class="st10" d="M183.9,479.3c-14.3-1.6-7.2-19.8,6.7-26.8c20-10,78.8-25.8,40.3-44.8
						C302.8,410.4,238.4,485.5,183.9,479.3z"/>
					<path class="st9" d="M183.9,479.3c-6.1-0.7-8.3-4.4-7.7-9c0.7-6.1-0.7,4.3,19.4-3.5c32.2-12.5,86.5-39.3,35.4-59.2
						C302.8,410.4,238.4,485.5,183.9,479.3z"/>
					<path class="st11" d="M176.2,470.4c0.8,5.1,5.3,9.4,24.9,0.5c42.6-19.4,85.6-50.3,29.9-63.1c66.3,2.5,34.7,81.1-16.1,86
						C206.8,487.3,171.1,492.7,176.2,470.4z"/>
					<path class="st12" d="M211.3,483.8c-6.7,1.5-13.6,1.8-20.5,0.3c-5.5-1.2-10.5-3.4-14.8-6.4c3.7,13.9,31.7,10.4,38.7,16.1
						c2.5-0.2,4.9-0.7,7.2-1.2C217.3,490.6,213.8,487.6,211.3,483.8z"/>
					<path class="st10" d="M211.9,491.4c-11.1-12.4-2.9-23.4,11-30.4c20-10,69.2-40.3,8-53.2C322.9,416.7,225.9,487.2,211.9,491.4z"
						/>
					<path class="st9" d="M251.2,499.2c-61.2,4-37.9-26.8-34.5-28.5c40.7-20.6,82.7-53.1,14.3-62.9c70.8,3.6,46.3,69.6,0.7,79.1
						C226.7,487.8,226.4,488.4,251.2,499.2z"/>
					<path class="st11" d="M251.2,499.2c-44.6,1.3-27.2-13.5-17.7-18.2c45.7-22.7,41.5-45.7,35.1-59.4
						C303.2,476.5,235.5,475.2,251.2,499.2z"/>
					<path class="st11" d="M272,426.3c84.2,52-28.6,57.3-21.9,72.9c8-8.9,74.7,2.4,65.5-33.8C311.3,448.4,276.6,428.7,272,426.3z"/>
					<path class="st10" d="M271.8,426.4c41.4,35.2-21.7,57.5-21.9,70.8C264.9,477.2,343.3,467.5,271.8,426.4z"/>
					<path class="st9" d="M190.6,452.5c20-10,81.4-24.4,40.3-44.8C240.4,423.5,219.9,436.3,190.6,452.5z"/>
				</g>
				<path class="st12" d="M251.6,480.6c37-23.6,23.4-45.3,17-59c30.3,48.1-17.8,53.1-19.7,69.6C248.5,493.6,242.4,486.4,251.6,480.6
					z"/>
				<path class="st12" d="M253.8,492.9c-3.1,2-4.7,4-3.7,6.3c7-7.8,58.7-0.2,65.6-22.1C303.8,489.9,270.6,490,253.8,492.9z"/>
			</g>
		</g>
		<g>
			<path class="st6" d="M279.3,512.3c-18.1,15.6,26,17.3,36.6,21.7c4.7,4.9,15.8,8.2,38.7,6.7c-0.1-0.2-0.2-0.4-0.3-0.6
				c9.8-7.2,86.3-5.5,63.4-27L279.3,512.3z"/>
			<g>
				<g>
					<path class="st9" d="M375.4,462c9.2,16.7-14.5,54.7-40.1,71.3c20.7,4.3,21-3.6,29.8-4.6C446.5,520.1,404.2,477.1,375.4,462z"/>
					<path class="st10" d="M287.4,515c-14.3-1.6-7.2-19.8,6.7-26.8c20-10,78.8-25.8,40.3-44.8C406.3,446.1,341.8,521.2,287.4,515z"
						/>
					<path class="st9" d="M287.4,515c-6.1-0.7-8.3-4.4-7.7-9c0.7-6.1-0.7,4.3,19.4-3.5c32.2-12.5,86.5-39.3,35.4-59.2
						C406.3,446.1,341.8,521.2,287.4,515z"/>
					<path class="st11" d="M279.6,506c0.8,5.1,5.3,9.4,24.9,0.5c42.6-19.4,85.6-50.3,29.9-63.1c66.3,2.5,34.7,81.1-16.1,86
						C310.3,522.9,274.6,528.4,279.6,506z"/>
					<path class="st12" d="M314.8,519.5c-6.7,1.5-13.6,1.8-20.5,0.3c-5.5-1.2-10.5-3.4-14.8-6.4c3.7,13.9,31.7,10.4,38.7,16.1
						c2.5-0.2,4.9-0.7,7.2-1.2C320.8,526.3,317.3,523.3,314.8,519.5z"/>
					<path class="st10" d="M315.4,527c-11.1-12.4-2.9-23.4,11-30.4c20-10,69.2-40.3,8-53.2C426.4,452.4,329.4,522.9,315.4,527z"/>
					<path class="st9" d="M354.6,534.9c-61.2,4-37.9-26.8-34.5-28.5c40.7-20.6,82.7-53.1,14.3-62.9c70.8,3.6,46.3,69.6,0.7,79.1
						C330.2,523.5,329.9,524.1,354.6,534.9z"/>
					<path class="st11" d="M354.6,534.9c-44.6,1.3-27.2-13.5-17.7-18.2c45.7-22.7,41.5-45.7,35.1-59.4
						C406.7,512.2,339,510.9,354.6,534.9z"/>
					<path class="st11" d="M375.4,462c84.2,52-28.6,57.3-21.9,72.9c8-8.9,74.7,2.4,65.5-33.8C414.8,484.1,380.1,464.4,375.4,462z"/>
					<path class="st10" d="M375.2,462.1c41.4,35.2-21.7,57.5-21.9,70.8C368.3,512.9,446.8,503.2,375.2,462.1z"/>
					<path class="st9" d="M294.1,488.2c20-10,81.4-24.4,40.3-44.8C343.9,459.2,323.4,472,294.1,488.2z"/>
				</g>
				<path class="st12" d="M355.1,516.2c37-23.6,23.4-45.3,17-59c30.3,48.1-17.8,53.1-19.7,69.6C352,529.3,345.9,522.1,355.1,516.2z"
					/>
				<path class="st12" d="M357.3,528.6c-3.1,2-4.7,4-3.7,6.3c7-7.8,58.7-0.2,65.6-22.1C407.3,525.6,374.1,525.7,357.3,528.6z"/>
			</g>
		</g>
		<g>
			<path class="st6" d="M413.3,523.4c-18.1,15.6,26,17.3,36.6,21.7c4.7,4.9,15.8,8.2,38.7,6.7c-0.1-0.2-0.2-0.4-0.3-0.6
				c9.8-7.2,86.3-5.5,63.4-27L413.3,523.4z"/>
			<g>
				<g>
					<path class="st9" d="M509.4,473c9.2,16.7-14.5,54.7-40.1,71.3c20.7,4.3,21-3.6,29.8-4.6C580.4,531.1,538.1,488.1,509.4,473z"/>
					<path class="st10" d="M421.3,526c-14.3-1.6-7.2-19.8,6.7-26.8c20-10,78.8-25.8,40.3-44.8C540.2,457.1,475.7,532.2,421.3,526z"
						/>
					<path class="st9" d="M421.3,526c-6.1-0.7-8.3-4.4-7.7-9c0.7-6.1-0.7,4.3,19.4-3.5c32.2-12.5,86.5-39.3,35.4-59.2
						C540.2,457.1,475.7,532.2,421.3,526z"/>
					<path class="st11" d="M413.6,517.1c0.8,5.1,5.3,9.4,24.9,0.5c42.6-19.4,85.6-50.3,29.9-63.1c66.3,2.5,34.7,81.1-16.1,86
						C444.2,533.9,408.5,539.4,413.6,517.1z"/>
					<path class="st12" d="M448.7,530.5c-6.7,1.5-13.6,1.8-20.5,0.3c-5.5-1.2-10.5-3.4-14.8-6.4c3.7,13.9,31.7,10.4,38.7,16.1
						c2.5-0.2,4.9-0.7,7.2-1.2C454.7,537.3,451.2,534.3,448.7,530.5z"/>
					<path class="st10" d="M449.3,538.1c-11.1-12.4-2.9-23.4,11-30.4c20-10,69.2-40.3,8-53.2C560.3,463.4,463.3,533.9,449.3,538.1z"
						/>
					<path class="st9" d="M488.6,545.9c-61.2,4-37.9-26.8-34.5-28.5c40.7-20.6,82.7-53.2,14.3-62.9c70.8,3.6,46.3,69.6,0.7,79.1
						C464.1,534.5,463.8,535.1,488.6,545.9z"/>
					<path class="st11" d="M488.6,545.9c-44.6,1.3-27.2-13.5-17.7-18.2c45.7-22.7,41.5-45.7,35.1-59.4
						C540.6,523.2,472.9,521.9,488.6,545.9z"/>
					<path class="st11" d="M509.4,473c84.2,52-28.6,57.3-21.9,72.9c8-8.9,74.7,2.4,65.5-33.8C548.7,495.1,514,475.4,509.4,473z"/>
					<path class="st10" d="M509.2,473.1c41.4,35.2-21.7,57.5-21.9,70.8C502.3,523.9,580.7,514.2,509.2,473.1z"/>
					<path class="st9" d="M428,499.2c20-10,81.4-24.4,40.3-44.8C477.8,470.2,457.3,483,428,499.2z"/>
				</g>
				<path class="st12" d="M489,527.3c37-23.6,23.4-45.3,17-59c30.3,48.1-17.8,53.1-19.7,69.6C485.9,540.3,479.8,533.1,489,527.3z"/>
				<path class="st12" d="M491.2,539.6c-3.1,2-4.7,4-3.7,6.3c7-7.8,58.7-0.2,65.6-22.1C541.2,536.6,508,536.7,491.2,539.6z"/>
			</g>
		</g>
		<g>
			<path class="st6" d="M886.6,475.8c-18.1,15.6,26,17.3,36.6,21.7c4.7,4.9,15.8,8.2,38.7,6.7c-0.1-0.2-0.2-0.4-0.3-0.6
				c9.8-7.2,86.3-5.5,63.4-27L886.6,475.8z"/>
			<g>
				<g>
					<path class="st9" d="M982.7,425.4c9.2,16.7-14.5,54.7-40.1,71.3c20.7,4.3,21-3.6,29.8-4.6
						C1053.7,483.5,1011.4,440.6,982.7,425.4z"/>
					<path class="st10" d="M894.6,478.4c-14.3-1.6-7.2-19.8,6.7-26.8c20-10,78.8-25.8,40.3-44.8C1013.5,409.5,949,484.7,894.6,478.4
						z"/>
					<path class="st9" d="M894.6,478.4c-6.1-0.7-8.3-4.4-7.7-9c0.7-6.1-0.7,4.3,19.4-3.5c32.2-12.5,86.5-39.3,35.4-59.2
						C1013.5,409.5,949,484.7,894.6,478.4z"/>
					<path class="st11" d="M886.9,469.5c0.8,5.1,5.3,9.4,24.9,0.5c42.6-19.4,85.6-50.3,29.9-63.1c66.3,2.5,34.7,81.1-16.1,86
						C917.5,486.4,881.8,491.8,886.9,469.5z"/>
					<path class="st12" d="M922,482.9c-6.7,1.5-13.6,1.8-20.5,0.3c-5.5-1.2-10.5-3.4-14.8-6.4c3.7,13.9,31.7,10.4,38.7,16.1
						c2.5-0.2,4.9-0.7,7.2-1.2C928,489.7,924.5,486.7,922,482.9z"/>
					<path class="st10" d="M922.6,490.5c-11.1-12.4-2.9-23.4,11-30.4c20-10,69.2-40.3,8-53.2C1033.6,415.8,936.6,486.3,922.6,490.5z
						"/>
					<path class="st9" d="M961.9,498.3c-61.2,4-37.9-26.8-34.5-28.5c40.7-20.6,82.7-53.1,14.3-62.9c70.8,3.6,46.3,69.6,0.7,79.1
						C937.4,486.9,937.1,487.5,961.9,498.3z"/>
					<path class="st11" d="M961.9,498.3c-44.6,1.3-27.2-13.5-17.7-18.2c45.7-22.7,41.5-45.7,35.1-59.4
						C1013.9,475.7,946.2,474.3,961.9,498.3z"/>
					<path class="st11" d="M982.7,425.4c84.2,52-28.6,57.3-21.9,72.9c8-8.9,74.7,2.4,65.5-33.8C1022,447.5,987.3,427.8,982.7,425.4z
						"/>
					<path class="st10" d="M982.5,425.5c41.4,35.2-21.7,57.5-21.9,70.8C975.6,476.3,1054,466.6,982.5,425.5z"/>
					<path class="st9" d="M901.3,451.6c20-10,81.4-24.4,40.3-44.8C951.1,422.6,930.6,435.4,901.3,451.6z"/>
				</g>
				<path class="st12" d="M962.3,479.7c37-23.6,23.4-45.3,17-59c30.3,48.1-17.8,53.1-19.7,69.6C959.2,492.7,953.1,485.5,962.3,479.7
					z"/>
				<path class="st12" d="M964.5,492c-3.1,2-4.7,4-3.7,6.3c7-7.8,58.7-0.2,65.6-22.1C1014.5,489,981.3,489.1,964.5,492z"/>
			</g>
		</g>
		<g>
			<path class="st6" d="M810.3,507.7c-18.1,15.6,26,17.3,36.6,21.7c4.7,4.9,15.8,8.2,38.7,6.7c-0.1-0.2-0.2-0.4-0.3-0.6
				c9.8-7.2,86.3-5.5,63.4-27L810.3,507.7z"/>
			<g>
				<g>
					<path class="st9" d="M906.4,457.4c9.2,16.7-14.5,54.7-40.1,71.3c20.7,4.3,21-3.6,29.8-4.6C977.5,515.5,935.2,472.5,906.4,457.4
						z"/>
					<path class="st10" d="M818.3,510.4c-14.3-1.6-7.2-19.8,6.7-26.8c20-10,78.8-25.8,40.3-44.8
						C937.3,441.5,872.8,516.6,818.3,510.4z"/>
					<path class="st9" d="M818.3,510.4c-6.1-0.7-8.3-4.4-7.7-9c0.7-6.1-0.7,4.3,19.4-3.5c32.2-12.5,86.5-39.3,35.4-59.2
						C937.3,441.5,872.8,516.6,818.3,510.4z"/>
					<path class="st11" d="M810.6,501.4c0.8,5.1,5.3,9.4,24.9,0.5c42.6-19.4,85.6-50.3,29.9-63.1c66.3,2.5,34.7,81.1-16.1,86
						C841.3,518.3,805.6,523.8,810.6,501.4z"/>
					<path class="st12" d="M845.8,514.9c-6.7,1.5-13.6,1.8-20.5,0.3c-5.5-1.2-10.5-3.4-14.8-6.4c3.7,13.9,31.7,10.4,38.7,16.1
						c2.5-0.2,4.9-0.7,7.2-1.2C851.8,521.7,848.3,518.7,845.8,514.9z"/>
					<path class="st10" d="M846.4,522.4c-11.1-12.4-2.9-23.4,11-30.4c20-10,69.2-40.3,8-53.2C957.4,447.8,860.4,518.3,846.4,522.4z"
						/>
					<path class="st9" d="M885.6,530.3c-61.2,4-37.9-26.8-34.5-28.5c40.7-20.6,82.7-53.2,14.3-62.9c70.8,3.6,46.3,69.6,0.7,79.1
						C861.1,518.9,860.8,519.5,885.6,530.3z"/>
					<path class="st11" d="M885.6,530.3c-44.6,1.3-27.2-13.5-17.7-18.2c45.7-22.7,41.5-45.7,35.1-59.4
						C937.6,507.6,870,506.3,885.6,530.3z"/>
					<path class="st11" d="M906.4,457.4c84.2,52-28.6,57.3-21.9,72.9c8-8.9,74.7,2.4,65.5-33.8C945.7,479.5,911.1,459.8,906.4,457.4
						z"/>
					<path class="st10" d="M906.2,457.5c41.4,35.2-21.7,57.5-21.9,70.8C899.3,508.3,977.7,498.6,906.2,457.5z"/>
					<path class="st9" d="M825.1,483.6c20-10,81.4-24.4,40.3-44.8C874.8,454.6,854.4,467.4,825.1,483.6z"/>
				</g>
				<path class="st12" d="M886.1,511.7c37-23.6,23.4-45.3,17-59c30.3,48.1-17.8,53.1-19.7,69.6C883,524.7,876.9,517.5,886.1,511.7z"
					/>
				<path class="st12" d="M888.2,524c-3.1,2-4.7,4-3.7,6.3c7-7.8,58.7-0.2,65.6-22.1C938.2,521,905.1,521.1,888.2,524z"/>
			</g>
		</g>
		<g>
			<path class="st6" d="M685,521.1c-18.1,15.6,26,17.3,36.6,21.7c4.7,4.9,15.8,8.2,38.7,6.7c-0.1-0.2-0.2-0.4-0.3-0.6
				c9.8-7.2,86.3-5.5,63.4-27L685,521.1z"/>
			<g>
				<g>
					<path class="st9" d="M781.1,470.8c9.2,16.7-14.5,54.7-40.1,71.3c20.7,4.3,21-3.6,29.8-4.6C852.2,528.9,809.9,485.9,781.1,470.8
						z"/>
					<path class="st10" d="M693.1,523.8c-14.3-1.6-7.2-19.8,6.7-26.8c20-10,78.8-25.8,40.3-44.8C812,454.9,747.5,530,693.1,523.8z"
						/>
					<path class="st9" d="M693.1,523.8c-6.1-0.7-8.3-4.4-7.7-9c0.7-6.1-0.7,4.3,19.4-3.5c32.2-12.5,86.5-39.3,35.4-59.2
						C812,454.9,747.5,530,693.1,523.8z"/>
					<path class="st11" d="M685.3,514.8c0.8,5.1,5.3,9.4,24.9,0.5c42.6-19.4,85.6-50.3,29.9-63.1c66.3,2.5,34.7,81.1-16.1,86
						C716,531.7,680.3,537.2,685.3,514.8z"/>
					<path class="st12" d="M720.5,528.3c-6.7,1.5-13.6,1.8-20.5,0.3c-5.5-1.2-10.5-3.4-14.8-6.4C689,536,717,532.5,724,538.2
						c2.5-0.2,4.9-0.7,7.2-1.2C726.5,535.1,723,532,720.5,528.3z"/>
					<path class="st10" d="M721.1,535.8c-11.1-12.4-2.9-23.4,11-30.4c20-10,69.2-40.3,8-53.2C832.1,461.2,735.1,531.6,721.1,535.8z"
						/>
					<path class="st9" d="M760.3,543.6c-61.2,4-37.9-26.8-34.5-28.5c40.7-20.6,82.7-53.1,14.3-62.9c70.8,3.6,46.3,69.6,0.7,79.1
						C735.9,532.3,735.6,532.9,760.3,543.6z"/>
					<path class="st11" d="M760.3,543.6c-44.6,1.3-27.2-13.5-17.7-18.2c45.7-22.7,41.5-45.7,35.1-59.4
						C812.4,521,744.7,519.7,760.3,543.6z"/>
					<path class="st11" d="M781.1,470.8c84.2,52-28.6,57.3-21.9,72.9c8-8.9,74.7,2.4,65.5-33.8C820.5,492.9,785.8,473.2,781.1,470.8
						z"/>
					<path class="st10" d="M780.9,470.8c41.4,35.2-21.7,57.5-21.9,70.8C774,521.6,852.5,512,780.9,470.8z"/>
					<path class="st9" d="M699.8,497c20-10,81.4-24.4,40.3-44.8C749.6,468,729.1,480.8,699.8,497z"/>
				</g>
				<path class="st12" d="M760.8,525c37-23.6,23.4-45.3,17-59c30.3,48.1-17.8,53.1-19.7,69.6C757.7,538,751.6,530.9,760.8,525z"/>
				<path class="st12" d="M763,537.4c-3.1,2-4.7,4-3.7,6.3c7-7.8,58.7-0.2,65.6-22.1C813,534.4,779.8,534.5,763,537.4z"/>
			</g>
		</g>
		<g>
			<path class="st6" d="M552.8,526.4c-18.1,15.6,26,17.3,36.6,21.7c4.7,4.9,15.8,8.2,38.7,6.7c-0.1-0.2-0.2-0.4-0.3-0.6
				c9.8-7.2,86.3-5.5,63.4-27L552.8,526.4z"/>
			<g>
				<g>
					<path class="st9" d="M648.9,476c9.2,16.7-14.5,54.7-40.1,71.3c20.7,4.3,21-3.6,29.8-4.6C719.9,534.1,677.7,491.1,648.9,476z"/>
					<path class="st10" d="M560.8,529c-14.3-1.6-7.2-19.8,6.7-26.8c20-10,78.8-25.8,40.3-44.8C679.7,460.1,615.3,535.2,560.8,529z"
						/>
					<path class="st9" d="M560.8,529c-6.1-0.7-8.3-4.4-7.7-9c0.7-6.1-0.7,4.3,19.4-3.5c32.2-12.5,86.5-39.3,35.4-59.2
						C679.7,460.1,615.3,535.2,560.8,529z"/>
					<path class="st11" d="M553.1,520.1c0.8,5.1,5.3,9.4,24.9,0.5c42.6-19.4,85.6-50.3,29.9-63.1c66.3,2.5,34.7,81.1-16.1,86
						C583.8,536.9,548,542.4,553.1,520.1z"/>
					<path class="st12" d="M588.3,533.5c-6.7,1.5-13.6,1.8-20.5,0.3c-5.5-1.2-10.5-3.4-14.8-6.4c3.7,13.9,31.7,10.4,38.7,16.1
						c2.5-0.2,4.9-0.7,7.2-1.2C594.3,540.3,590.7,537.3,588.3,533.5z"/>
					<path class="st10" d="M588.8,541.1c-11.1-12.4-2.9-23.4,11-30.4c20-10,69.2-40.3,8-53.2C699.8,466.4,602.8,536.9,588.8,541.1z"
						/>
					<path class="st9" d="M628.1,548.9c-61.2,4-37.9-26.8-34.5-28.5c40.7-20.6,82.7-53.2,14.3-62.9c70.8,3.6,46.3,69.6,0.7,79.1
						C603.6,537.5,603.3,538.1,628.1,548.9z"/>
					<path class="st11" d="M628.1,548.9c-44.6,1.3-27.2-13.5-17.7-18.2c45.7-22.7,41.5-45.7,35.1-59.4
						C680.1,526.2,612.4,524.9,628.1,548.9z"/>
					<path class="st11" d="M648.9,476c84.2,52-28.6,57.3-21.9,72.9c8-8.9,74.7,2.4,65.5-33.8C688.2,498.1,653.6,478.4,648.9,476z"/>
					<path class="st10" d="M648.7,476.1c41.4,35.2-21.7,57.5-21.9,70.8C641.8,526.9,720.2,517.2,648.7,476.1z"/>
					<path class="st9" d="M567.6,502.2c20-10,81.4-24.4,40.3-44.8C617.3,473.2,596.8,486,567.6,502.2z"/>
				</g>
				<path class="st12" d="M628.5,530.3c37-23.6,23.4-45.3,17-59c30.3,48.1-17.8,53.1-19.7,69.6C625.5,543.3,619.4,536.1,628.5,530.3
					z"/>
				<path class="st12" d="M630.7,542.6c-3.1,2-4.7,4-3.7,6.3c7-7.8,58.7-0.2,65.6-22.1C680.7,539.6,647.6,539.7,630.7,542.6z"/>
			</g>
		</g>
	</g>
</g>
</svg>
