<?xml version="1.0" encoding="utf-8"?>
<!-- Generator: Adobe Illustrator 24.3.0, SVG Export Plug-In . SVG Version: 6.00 Build 0)  -->
<svg version="1.1" id="Layer_1" xmlns="http://www.w3.org/2000/svg" xmlns:xlink="http://www.w3.org/1999/xlink" x="0px" y="0px"
	 viewBox="0 0 1216.1 1241.9" style="enable-background:new 0 0 1216.1 1241.9;" xml:space="preserve">
<style type="text/css">
	.st0{fill:url(#SVGID_1_);}
	.st1{fill:url(#SVGID_2_);}
	.st2{opacity:0.3;}
	.st3{fill:url(#SVGID_3_);}
	.st4{fill:#3D150B;}
	.st5{fill:url(#SVGID_4_);}
	.st6{fill:#512013;}
	.st7{fill:#64332F;}
	.st8{fill:url(#SVGID_5_);}
	.st9{fill:url(#SVGID_6_);}
	.st10{fill:url(#SVGID_7_);}
	.st11{fill:url(#SVGID_8_);}
	.st12{fill:url(#SVGID_9_);}
	.st13{opacity:0.6;fill:url(#SVGID_10_);}
	.st14{fill:#FFF5FE;}
	.st15{fill:#FFFAFE;}
	.st16{fill:#FCDEFA;}
	.st17{fill:#E2ACE1;}
	.st18{opacity:0.6;fill:url(#SVGID_11_);}
	.st19{fill:url(#SVGID_12_);}
	.st20{fill:url(#SVGID_13_);}
	.st21{fill:url(#SVGID_14_);}
	.st22{opacity:0.6;fill:url(#SVGID_15_);}
	.st23{opacity:0.6;fill:url(#SVGID_16_);}
	.st24{fill:url(#SVGID_17_);}
	.st25{fill:url(#SVGID_18_);}
	.st26{fill:url(#SVGID_19_);}
	.st27{fill:url(#SVGID_20_);}
	.st28{fill:url(#SVGID_21_);}
	.st29{fill:url(#SVGID_22_);}
	.st30{fill:url(#SVGID_23_);}
	.st31{fill:url(#SVGID_24_);}
	.st32{fill:url(#SVGID_25_);}
	.st33{fill:url(#SVGID_26_);}
	.st34{fill:url(#SVGID_27_);}
	.st35{fill:url(#SVGID_28_);}
	.st36{fill:#632D1A;}
	.st37{fill:url(#SVGID_29_);}
	.st38{opacity:0.4;fill:url(#SVGID_30_);}
	.st39{opacity:0.6;fill:url(#SVGID_31_);}
	.st40{opacity:0.6;fill:url(#SVGID_32_);}
	.st41{opacity:0.6;fill:url(#SVGID_33_);}
	.st42{opacity:0.6;fill:url(#SVGID_34_);}
	.st43{opacity:0.6;fill:url(#SVGID_35_);}
	.st44{opacity:0.6;fill:url(#SVGID_36_);}
	.st45{opacity:0.6;fill:url(#SVGID_37_);}
	.st46{opacity:0.6;fill:url(#SVGID_38_);}
	.st47{opacity:0.6;fill:url(#SVGID_39_);}
	.st48{opacity:0.6;fill:url(#SVGID_40_);}
	.st49{opacity:0.6;fill:url(#SVGID_41_);}
	.st50{opacity:0.6;fill:url(#SVGID_42_);}
	.st51{opacity:0.6;fill:url(#SVGID_43_);}
	.st52{opacity:0.6;fill:url(#SVGID_44_);}
	.st53{opacity:0.6;fill:url(#SVGID_45_);}
	.st54{opacity:0.6;fill:url(#SVGID_46_);}
	.st55{opacity:0.6;fill:url(#SVGID_47_);}
	.st56{opacity:0.6;fill:url(#SVGID_48_);}
</style>
<g>
	
		<radialGradient id="SVGID_1_" cx="588.0777" cy="1843.0703" r="396.3503" gradientTransform="matrix(1.0727 0 0 0.291 -30.4731 447.235)" gradientUnits="userSpaceOnUse">
		<stop  offset="0.3556" style="stop-color:#000000"/>
		<stop  offset="0.4257" style="stop-color:#050505"/>
		<stop  offset="0.5055" style="stop-color:#121212"/>
		<stop  offset="0.59" style="stop-color:#292929"/>
		<stop  offset="0.678" style="stop-color:#494949"/>
		<stop  offset="0.7685" style="stop-color:#727272"/>
		<stop  offset="0.8612" style="stop-color:#A5A5A5"/>
		<stop  offset="0.954" style="stop-color:#DFDFDF"/>
		<stop  offset="1" style="stop-color:#FFFFFF"/>
	</radialGradient>
	<ellipse class="st0" cx="600.4" cy="983.6" rx="425.2" ry="115.3"/>
	<g>
		<g>
			<g>
				<g>
					<linearGradient id="SVGID_2_" gradientUnits="userSpaceOnUse" x1="300.7629" y1="811.5889" x2="716.3909" y2="884.4308">
						<stop  offset="0" style="stop-color:#8E5D3F"/>
						<stop  offset="1" style="stop-color:#552F1C"/>
					</linearGradient>
					<path class="st1" d="M991.5,974.8c0,46.6-184,101.9-401.5,101.9s-386-55.3-386-101.9c0-11.8-16.9-209-4.4-252.4
						c24-52.9,233.2-25.9,390.7-25.9c163.4,0,376.9-40.1,405.8,28.6C1008.8,755.3,991.5,964.3,991.5,974.8z"/>
					<g class="st2">
						<linearGradient id="SVGID_3_" gradientUnits="userSpaceOnUse" x1="194.93" y1="856.9789" x2="1001.9577" y2="856.9789">
							<stop  offset="0" style="stop-color:#3D150B"/>
							<stop  offset="1" style="stop-color:#340D07"/>
						</linearGradient>
						<path class="st3" d="M984.4,897.4c2.8,0.5,8.2-2.8,8.6-6.3c2.1-22.5,3.8-34.2,5.1-51.4c0.9-11.4,1.9-22.7,2.3-34.2
							c0.2-5.2,3.5-29.8-0.3-33.1c-3.3-2.8-7.9-3.1-11.5-5.7c-12.2-8.8-34.9-10.5-50.5-14.7c-64.2-17.1-129-21.4-196.5-27
							c-12.3-1-24.6-1.9-36.9-2.5c-38.9,2.1-78,3.9-114.5,3.9c-38.1,0-79.2-1.4-119.9-2.9c-38.8,2.2-77.6,5.4-116.3,9.4
							c-28.9,3-56,8.6-83.3,16c-16.4,4.5-58,10.8-68.1,21.6c-3.6,3.9-5.9,8.4-7.5,13.3c-0.7,23.8,0.5,48,3,71.7
							c1.1,10.1-0.4,22.5,2.6,32.1c3.2,10.5,12.3,8.2,16.3-0.4c4.8-10.3,4.7-28.6,4.4-39.9c-0.1-5.6-4-31.9,4.9-33.4
							c6.3-1.1,11.2,20.9,17.7,24.2c10.5,5.5,22.8,5.3,33.1,11.8c19.7,12.3,19.7,88.7,56.6,62.8c12.2-8.5,13.6-22.8,17.5-36
							c2.9-10,6.4-22.8,19.5-18.9c7.8,2.3,11,10.3,17.3,14.5c21.8,14.4,44.5-6.1,57.1-22.4c5.2-6.7,9.2-15.7,18.8-15.7
							c19.2-0.1,27.2,19.4,35.2,33.3c9.9,17.2,12.1,36.8,12.5,56.4c0.5,19.5,2,44,18.5,57.1c14.5,11.5,43.6,15.4,56.4-0.7
							c15.9-20,7.5-54.6,7.7-78.1c0.1-9.4-2-20.8,8.7-25.5c9.4-4.1,18.2,2.8,22.4,11.1c3.2,6.3,3.7,14.3,11.7,16.4
							c26.5,6.7,27-76.8,59.5-53.7c11.4,8.1,17.1,12.5,30.4,4.1c10.9-6.9,20-18.5,33.3-21c36.9-6.8,20.3,63.7,53.5,65.7
							c15.6,0.9,28.4-24.5,40.4-7.9c9.2,12.7,13.5,31.6,26.9,40.8c11.5,8,28.3,9.5,41.3,4.8c25.2-9.1,20.4-37.5,15.8-57.8
							c-2.5-10.7-6.5-23.2-5.4-34.3c1.9-19.2,12.1-6,21.2-1.7c13.3,6.4,17.8-5.9,22.5-15.4c5.7-11.7,10.8-2.3,9.6,7.6
							c-1.6,12.6-9.7,23.2-10.5,36.5C975.1,878.9,973.8,895.6,984.4,897.4z"/>
					</g>
					<path class="st4" d="M1004.6,705.6c9.5,23,1.8,55.5-1,79.4c-2.3,20.3-7.8,41.9-1.6,61.8c2.3,7.4,10.2,19.2,5,27.1
						c-4.5,6.8-13.9,6-19.2,0.5c-12.1-12.6,12.4-78.3-7.8-78.6c-10.3-0.2-7.7,11.8-8.5,18c-0.8,6.2-1.9,17.8-11,18.1
						c-9.3,0.3-8.3-10.4-11-16.8c-11.4-27.5-18.5,4.5-18.9,18.1c-0.6,21.9,8.3,48.7-0.3,69.4c-8.2,19.8-25.9,28.2-44.7,16.7
						c-8.7-5.3-14.5-13-18.3-22.3c-3-7.4-4.5-22.6-12.2-27.2c-9.9-5.9-19.3,3.6-28.3,7.1c-38.7,15.5-29.1-26.1-32.4-48.3
						c-3.2-21.6-21.5-27.2-39.8-18.6c-19.5,9.2-29.9,37.4-55.7,31.4c-8.6-2-17.1-12.1-26.9-9.3c-19.3,5.4-7,41.4-31.5,41.8
						c-18.6,0.2-27-54.4-45.7-21.9c-7.7,13.3-2.7,31-1.7,45.2c1.3,18.1,2.2,40.6-5.3,57.5c-14.7,33.1-51.8,21.4-67.8-3.4
						c-19.9-31,6.5-76-18.8-107c-11.8-14.5-25.7-33.1-47-28.2c-15.2,3.5-23.8,18.2-37.5,24.6c-18.1,8.4-29.5-3.3-46.7-2.2
						c-11.6,0.7-19,13.6-21.1,23.3c-3.9,17.5-10.3,55-38.8,36.2c-21.4-14.1-4.6-54.2-28-66.3c-10.4-5.4-24.1,4.2-34-4.3
						c-9.2-7.9-4.8-25-15.3-32.3c-21.2-14.7-20.8,30.8-21,41.3c-0.3,10.7,1.4,67.4-21.5,43.5c-8.4-8.8-2.6-20.9,0.6-30.5
						c14.3-43-14.6-114.8,9.6-149.5c10.1-14.6,51.9-23.1,68.5-29.1c27.5-10,54.8-17.5,83.8-21.6c79.8-11.1,159.8-17.5,240.4-17.5
						c50.1,0,99.6,1.3,149.5,6.9c67.8,7.5,133,13.3,197.6,36.3c15.6,5.6,38.4,7.9,50.8,19.8C995.3,698.8,1001.6,698.4,1004.6,705.6z
						"/>
					<radialGradient id="SVGID_4_" cx="597.749" cy="875.6497" r="298.4747" gradientUnits="userSpaceOnUse">
						<stop  offset="0.5582" style="stop-color:#3D150B"/>
						<stop  offset="1" style="stop-color:#340D07"/>
					</radialGradient>
					<path class="st5" d="M997,863.1c-3.6-2.1-6.9-4.6-8-7.9c-2.3-7.7,0.2-15.6,1.5-23.1c2-12.6,8.4-36.2-3.2-45.7
						c-21.2-17.2-16,32.2-27.2,26.3c-9.6-5.1-16.8-38-30.4-14.4c-9.4,16.3-7.4,38-5.6,55.9c1.3,13.7,1.2,37.6-14.5,43.8
						c-8.4,3.3-21.5,1.1-28.6-4.3c-13.8-10.6-11.6-29-17.5-43.5c-8.9-22.1-19.3,13.4-32.4,16.5c-19.5,4.7-22.8-16.1-26.6-28.8
						c-5.3-17.4-21.2-57.3-45.9-49.8c-24.3,7.4-34.9,59.4-65.7,38.2c-14.8-10.2-27-9.6-35.3,7.8c-4.3,9-13.9,37.5-28.3,22.6
						c-9.5-9.9-2.2-31.7-13.3-39.8c-31.9-23.5-27.7,75.8-28.1,83.6c-0.6,13.9-1.9,34.9-16.9,41.1c-22,9.1-39.7-11.5-44.4-30.1
						c-7-27.6-12.1-55.9-16.1-84c-1.7-12.1-6.5-21.4-16.4-29.1c-16.7-12.9-37.5-1.4-49.5,12.1c-11.6,13-22.5,25.4-41.3,25.8
						c-13.9,0.3-23.2-11.3-28.8-22.2c-3.2-6.4-5-13.4-12.7-9c-5.7,3.3-8.9,13.4-11,19.1c-4.8,13.4-5.4,31.3-13.2,43.3
						c-11,17.1-30,14.3-35.4-5.3c-2.8-10.2-0.9-21.6-3.9-31.6c-7.2-23.6-32.7,1.8-44.8-10.8c-6.6-6.9-6.4-18.4-9.6-27
						c-3.2-8.4-10.1-18.8-20.8-16.2c-21.3,5.3-10.9,62.8-15.4,77.7c-1.5,5-3.6,15.1-6.9,19.1c-1.8,2.1-11.1,6.9-13.3,2.5
						c0.7,1.3,1.6,2.6,2.6,3.7c22.9,24,21.2-32.8,21.5-43.5c0.3-10.4-0.2-55.9,21-41.3c10.6,7.3,6.1,24.4,15.3,32.3
						c9.9,8.5,23.6-1.1,34,4.3c23.4,12.1,6.5,52.2,28,66.3c28.5,18.8,34.9-18.7,38.8-36.2c2.1-9.6,9.5-22.5,21.1-23.3
						c17.2-1.1,28.6,10.6,46.7,2.2c13.7-6.3,22.3-21,37.5-24.6c21.2-4.9,35.1,13.7,47,28.2c25.3,30.9-1.1,75.9,18.8,107
						c15.9,24.8,53.1,36.5,67.8,3.4c7.5-16.9,6.6-39.4,5.3-57.5c-1-14.3-6-31.9,1.7-45.2c18.7-32.6,27.2,22.1,45.7,21.9
						c24.5-0.3,12.2-36.4,31.5-41.8c9.8-2.7,18.3,7.3,26.9,9.3c25.8,6,36.2-22.2,55.7-31.4c18.3-8.6,36.6-3,39.8,18.6
						c3.5,23.3-6.1,63.7,32.4,48.3c9-3.6,18.4-13,28.3-7.1c7.7,4.5,9.2,19.8,12.2,27.2c3.8,9.3,9.6,17,18.3,22.3
						c18.8,11.5,36.6,3.1,44.7-16.7c8.6-20.7-0.3-47.5,0.3-69.4c0.4-13.6,7.5-45.6,18.9-18.1c2.7,6.4,1.6,17.1,11,16.8
						c9-0.3,10.1-11.9,11-18.1c0.8-6.2-1.8-18.1,8.5-18c20.1,0.3-4.3,61.5,6.3,78.1c3.8,6,19.4,8.6,21.7-0.9
						C1008.3,868.9,1002.4,866.3,997,863.1z"/>
					<path class="st6" d="M1005.8,711.6c0,42.5-189.3,69.8-412.9,69.8c-223.6,0-397-27.3-397-69.8c0-42.5,173.3-84,397-84
						C816.5,627.6,1005.8,669.1,1005.8,711.6z"/>
					<g class="st2">
						<path class="st7" d="M654.7,761.5c-217-0.6-385.1-25.6-385-64c0.1-17.6,35.7-35,95.3-48.5c-97.6,14.2-159.9,37-160,60.3
							c-0.1,38.3,168,63.4,385,64c140.2,0.4,266.4-9.6,338.2-27.1C855.9,756.2,759.2,761.7,654.7,761.5z"/>
					</g>
				</g>
				<linearGradient id="SVGID_5_" gradientUnits="userSpaceOnUse" x1="889.2811" y1="810.6835" x2="890.373" y2="884.9352">
					<stop  offset="0" style="stop-color:#3D140B"/>
					<stop  offset="0.4778" style="stop-color:#40170E"/>
					<stop  offset="0.6627" style="stop-color:#441A12"/>
					<stop  offset="1" style="stop-color:#64332F"/>
				</linearGradient>
				<path class="st8" d="M904.7,895.4c19.5-4.8,18.6-34.9,18.1-45.9c-2.4-53.5-10.2-23.7-27.1-25.7c-16.1-1.9-31.8-24.1-39.8-34.8
					C864.8,813.7,858.1,906.9,904.7,895.4z"/>
				<linearGradient id="SVGID_6_" gradientUnits="userSpaceOnUse" x1="826.9749" y1="806.178" x2="825.8829" y2="882.6135">
					<stop  offset="0" style="stop-color:#3D140B"/>
					<stop  offset="0.4778" style="stop-color:#40170E"/>
					<stop  offset="0.6627" style="stop-color:#441A12"/>
					<stop  offset="1" style="stop-color:#64332F"/>
				</linearGradient>
				<path class="st9" d="M830,867c13-2.6,23.1-29,33.5-36.6c28.5-20.9-25.9-10.8-37-12.8c-10.5-1.9-39.5-17.5-44.3-24.9
					C811.7,822.8,801.5,872.7,830,867z"/>
				<linearGradient id="SVGID_7_" gradientUnits="userSpaceOnUse" x1="326.4052" y1="811.92" x2="318.7617" y2="883.9874">
					<stop  offset="0" style="stop-color:#3D140B"/>
					<stop  offset="0.4778" style="stop-color:#40170E"/>
					<stop  offset="0.6627" style="stop-color:#441A12"/>
					<stop  offset="1" style="stop-color:#64332F"/>
				</linearGradient>
				<path class="st10" d="M314.6,876.1c-13.8-3.4-13.2-24.7-12.8-32.6c1.7-37.9,7.2-16.8,19.2-18.2c11.4-1.3,22.5-17.1,28.2-24.7
					C342.9,818.1,347.7,884.3,314.6,876.1z"/>
				<linearGradient id="SVGID_8_" gradientUnits="userSpaceOnUse" x1="548.3932" y1="849.2201" x2="553.8528" y2="955.1376">
					<stop  offset="0" style="stop-color:#3D140B"/>
					<stop  offset="0.4778" style="stop-color:#40170E"/>
					<stop  offset="0.6627" style="stop-color:#441A12"/>
					<stop  offset="1" style="stop-color:#64332F"/>
				</linearGradient>
				<path class="st11" d="M566.3,942.6c22.2-3.8,21.2-37.2,20.6-49.6c-2.8-59.5-11.6-27.1-30.9-30.5c-18.3-3.3-36.2-29.1-45.3-41.7
					C520.9,848.8,513.2,951.8,566.3,942.6z"/>
				<linearGradient id="SVGID_9_" gradientUnits="userSpaceOnUse" x1="414.9995" y1="788.8807" x2="409.5398" y2="832.5582">
					<stop  offset="0" style="stop-color:#3D140B"/>
					<stop  offset="0.4778" style="stop-color:#40170E"/>
					<stop  offset="0.6627" style="stop-color:#441A12"/>
					<stop  offset="1" style="stop-color:#64332F"/>
				</linearGradient>
				<path class="st12" d="M459.3,794.7c-22.5,12.1-27.5,36.1-46.6,39.4c-25.4,4.4-36.8-16.9-43-43.3L459.3,794.7z"/>
				<g>
					
						<radialGradient id="SVGID_10_" cx="905.8159" cy="675.269" r="36.6975" gradientTransform="matrix(0.9579 0 0 0.9579 28.6943 31.2744)" gradientUnits="userSpaceOnUse">
						<stop  offset="0.5582" style="stop-color:#3D150B"/>
						<stop  offset="1" style="stop-color:#340D07"/>
					</radialGradient>
					<path class="st13" d="M850.4,668.5c-12,10.3,17.3,11.5,24.3,14.4c3.1,3.2,10.5,5.5,25.7,4.5c-0.1-0.1-0.1-0.3-0.2-0.4
						c6.5-4.8,57.3-3.7,42.1-17.9L850.4,668.5z"/>
					<g>
						<g>
							<path class="st14" d="M914.3,635.1c6.1,11.1-9.6,36.3-26.7,47.3c13.7,2.9,13.9-2.4,19.8-3
								C961.5,673.7,933.4,645.2,914.3,635.1z"/>
							<path class="st15" d="M855.8,670.3c-9.5-1.1-4.8-13.2,4.5-17.8c13.3-6.7,52.3-17.1,26.7-29.8
								C934.8,624.6,891.9,674.4,855.8,670.3z"/>
							<path class="st14" d="M855.8,670.3c-4-0.5-5.5-2.9-5.1-6c0.5-4.1-0.5,2.9,12.9-2.3c21.4-8.3,57.5-26.1,23.5-39.3
								C934.8,624.6,891.9,674.4,855.8,670.3z"/>
							<path class="st16" d="M850.6,664.4c0.5,3.4,3.5,6.2,16.5,0.3c28.3-12.9,56.8-33.4,19.8-41.9c44,1.7,23.1,53.9-10.7,57.1
								C871,675.6,847.3,679.2,850.6,664.4z"/>
							<path class="st17" d="M874,673.3c-4.5,1-9,1.2-13.6,0.2c-3.6-0.8-7-2.3-9.8-4.3c2.5,9.2,21.1,6.9,25.7,10.7
								c1.6-0.2,3.2-0.4,4.8-0.8C878,677.8,875.6,675.8,874,673.3z"/>
							<path class="st15" d="M874.4,678.3c-7.4-8.2-1.9-15.6,7.3-20.2c13.3-6.7,45.9-26.8,5.3-35.4
								C948.1,628.7,883.7,675.5,874.4,678.3z"/>
							<path class="st14" d="M900.5,683.5c-40.7,2.7-25.2-17.8-22.9-18.9c27-13.7,54.9-35.3,9.5-41.8c47,2.4,30.8,46.2,0.5,52.5
								C884.2,676,884,676.4,900.5,683.5z"/>
							<path class="st16" d="M900.5,683.5c-29.6,0.9-18-8.9-11.7-12.1c30.3-15,27.6-30.4,23.3-39.5
								C935,668.5,890.1,667.6,900.5,683.5z"/>
							<path class="st16" d="M914.3,635.1c55.9,34.6-19,38.1-14.5,48.4c5.3-5.9,49.6,1.6,43.5-22.4
								C940.4,649.8,917.4,636.7,914.3,635.1z"/>
							<path class="st15" d="M914.1,635.1c27.5,23.4-14.4,38.2-14.5,47C909.6,668.9,961.6,662.5,914.1,635.1z"/>
							<path class="st14" d="M860.3,652.5c13.3-6.7,54-16.2,26.7-29.8C893.3,633.3,879.7,641.7,860.3,652.5z"/>
						</g>
						<path class="st17" d="M900.8,671.1c24.5-15.7,15.6-30.1,11.3-39.2c20.1,31.9-11.8,35.3-13.1,46.2
							C898.7,679.8,894.7,675,900.8,671.1z"/>
						<path class="st17" d="M902.2,679.3c-2,1.3-3.1,2.7-2.5,4.2c4.6-5.2,39-0.1,43.6-14.7C935.4,677.3,913.4,677.4,902.2,679.3z"/>
					</g>
				</g>
				<g>
					
						<radialGradient id="SVGID_11_" cx="295.3071" cy="675.269" r="36.6977" gradientTransform="matrix(0.9579 0 0 0.9579 28.6943 31.2744)" gradientUnits="userSpaceOnUse">
						<stop  offset="0.5582" style="stop-color:#3D150B"/>
						<stop  offset="1" style="stop-color:#340D07"/>
					</radialGradient>
					<path class="st18" d="M265.6,668.5c-12,10.3,17.3,11.5,24.3,14.4c3.1,3.2,10.5,5.5,25.7,4.5c-0.1-0.1-0.1-0.3-0.2-0.4
						c6.5-4.8,57.3-3.7,42.1-17.9L265.6,668.5z"/>
					<g>
						<g>
							<path class="st14" d="M329.5,635.1c6.1,11.1-9.6,36.3-26.7,47.3c13.7,2.9,13.9-2.4,19.8-3
								C376.6,673.7,348.6,645.2,329.5,635.1z"/>
							<path class="st15" d="M271,670.3c-9.5-1.1-4.8-13.2,4.5-17.8c13.3-6.7,52.3-17.1,26.7-29.8
								C349.9,624.6,307.1,674.4,271,670.3z"/>
							<path class="st14" d="M271,670.3c-4-0.5-5.5-2.9-5.1-6c0.5-4.1-0.5,2.9,12.9-2.3c21.4-8.3,57.5-26.1,23.5-39.3
								C349.9,624.6,307.1,674.4,271,670.3z"/>
							<path class="st16" d="M265.8,664.4c0.5,3.4,3.5,6.2,16.5,0.3c28.3-12.9,56.8-33.4,19.8-41.9c44,1.7,23.1,53.9-10.7,57.1
								C286.2,675.6,262.5,679.2,265.8,664.4z"/>
							<path class="st17" d="M289.2,673.3c-4.5,1-9,1.2-13.6,0.2c-3.6-0.8-7-2.3-9.8-4.3c2.5,9.2,21.1,6.9,25.7,10.7
								c1.6-0.2,3.2-0.4,4.8-0.8C293.2,677.8,290.8,675.8,289.2,673.3z"/>
							<path class="st15" d="M289.6,678.3c-7.4-8.2-1.9-15.6,7.3-20.2c13.3-6.7,45.9-26.8,5.3-35.4
								C363.3,628.7,298.9,675.5,289.6,678.3z"/>
							<path class="st14" d="M315.7,683.5c-40.7,2.7-25.2-17.8-22.9-18.9c27-13.7,54.9-35.3,9.5-41.8c47,2.4,30.8,46.2,0.5,52.5
								C299.4,676,299.2,676.4,315.7,683.5z"/>
							<path class="st16" d="M315.7,683.5c-29.6,0.9-18-8.9-11.7-12.1c30.3-15,27.6-30.4,23.3-39.5
								C350.2,668.5,305.2,667.6,315.7,683.5z"/>
							<path class="st16" d="M329.5,635.1c55.9,34.6-19,38.1-14.5,48.4c5.3-5.9,49.6,1.6,43.5-22.4
								C355.6,649.8,332.6,636.7,329.5,635.1z"/>
							<path class="st15" d="M329.3,635.1c27.5,23.4-14.4,38.2-14.5,47C324.7,668.9,376.8,662.5,329.3,635.1z"/>
							<path class="st14" d="M275.4,652.5c13.3-6.7,54-16.2,26.7-29.8C308.5,633.3,294.9,641.7,275.4,652.5z"/>
						</g>
						<path class="st17" d="M315.9,671.1c24.5-15.7,15.6-30.1,11.3-39.2c20.1,31.9-11.8,35.3-13.1,46.2
							C313.9,679.8,309.9,675,315.9,671.1z"/>
						<path class="st17" d="M317.4,679.3c-2,1.3-3.1,2.7-2.4,4.2c4.6-5.2,39-0.1,43.6-14.7C350.6,677.3,328.6,677.4,317.4,679.3z"/>
					</g>
				</g>
				<g>
					<linearGradient id="SVGID_12_" gradientUnits="userSpaceOnUse" x1="350.6613" y1="567.1228" x2="768.4318" y2="637.8224">
						<stop  offset="0" style="stop-color:#8E5D3F"/>
						<stop  offset="1" style="stop-color:#552F1C"/>
					</linearGradient>
					<path class="st19" d="M286.6,670.6c0,36.7,145.2,80.4,316.8,80.4s304.6-43.6,304.6-80.4c0-9.3,13.3-115.3,3.5-149.5
						c-18.9-41.7-184-20.4-308.2-20.4c-129,0-297.4-31.7-320.2,22.5C273,547.1,286.6,662.4,286.6,670.6z"/>
					<g class="st2">
						<linearGradient id="SVGID_13_" gradientUnits="userSpaceOnUse" x1="278.3393" y1="629.0854" x2="915.0985" y2="629.0854">
							<stop  offset="0" style="stop-color:#3D150B"/>
							<stop  offset="1" style="stop-color:#340D07"/>
						</linearGradient>
						<path class="st20" d="M292.2,661c-2.2,0.4-6.5-2.2-6.8-4.9c-1.7-17.7-3-27-4-40.5c-0.7-9-1.5-17.9-1.8-26.9
							c-0.2-4.1-2.8-23.5,0.2-26.1c2.6-2.2,6.3-2.5,9.1-4.5c9.7-7,27.6-8.3,39.8-11.6c50.7-13.5,101.8-16.8,155-21.3
							c9.7-0.8,19.4-1.5,29.1-2c30.7,1.6,61.5,3,90.3,3c30,0,62.5-1.1,94.6-2.3c30.6,1.7,61.2,4.2,91.7,7.4
							c22.8,2.4,44.2,6.8,65.8,12.6c13,3.5,45.8,8.5,53.7,17c2.8,3.1,4.7,6.6,5.9,10.5c0.5,18.8-0.4,37.9-2.4,56.6
							c-0.8,7.9,0.3,17.7-2.1,25.3c-2.6,8.3-9.7,6.5-12.9-0.3c-3.8-8.2-3.7-22.6-3.5-31.4c0.1-4.4,3.1-25.2-3.9-26.3
							c-5-0.8-8.9,16.5-13.9,19.1c-8.3,4.3-18,4.2-26.1,9.3c-15.5,9.7-15.5,70-44.7,49.6c-9.6-6.7-10.7-18-13.8-28.4
							c-2.3-7.9-5-18-15.3-14.9c-6.2,1.8-8.7,8.1-13.7,11.4c-17.2,11.3-35.1-4.8-45.1-17.7c-4.1-5.3-7.3-12.4-14.9-12.4
							c-15.1-0.1-21.4,15.3-27.7,26.3c-7.8,13.6-9.5,29.1-9.9,44.5c-0.4,15.4-1.6,34.7-14.6,45c-11.4,9.1-34.4,12.1-44.5-0.6
							c-12.5-15.8-5.9-43.1-6.1-61.7c-0.1-7.4,1.6-16.4-6.9-20.1c-7.4-3.2-14.4,2.2-17.7,8.7c-2.5,5-2.9,11.3-9.2,12.9
							c-20.9,5.3-21.3-60.6-47-42.4c-9,6.4-13.5,9.9-24,3.2c-8.6-5.4-15.8-14.6-26.3-16.6c-29.1-5.4-16,50.2-42.2,51.8
							c-12.3,0.7-22.4-19.3-31.9-6.2c-7.3,10-10.7,24.9-21.2,32.2c-9.1,6.3-22.3,7.5-32.6,3.8c-19.9-7.2-16.1-29.6-12.4-45.6
							c1.9-8.5,5.2-18.3,4.3-27c-1.5-15.2-9.5-4.8-16.7-1.3c-10.5,5-14.1-4.7-17.7-12.2c-4.5-9.2-8.5-1.8-7.5,6
							c1.3,10,7.6,18.3,8.3,28.8C299.5,646.4,300.5,659.6,292.2,661z"/>
					</g>
					<path class="st4" d="M276.3,509.7c-7.5,18.2-1.4,43.8,0.8,62.6c1.9,16,6.2,33,1.3,48.8c-1.8,5.8-8,15.2-3.9,21.4
						c3.5,5.4,11,4.8,15.2,0.4c9.6-9.9-9.8-61.8,6.1-62c8.1-0.1,6.1,9.3,6.7,14.2c0.7,4.9,1.5,14.1,8.6,14.3
						c7.3,0.2,6.5-8.2,8.6-13.3c9-21.7,14.6,3.5,14.9,14.3c0.5,17.3-6.5,38.4,0.3,54.7c6.5,15.6,20.5,22.2,35.3,13.2
						c6.9-4.2,11.5-10.2,14.5-17.6c2.4-5.8,3.6-17.8,9.7-21.4c7.8-4.6,15.2,2.8,22.3,5.6c30.6,12.2,23-20.6,25.6-38.1
						c2.6-17.1,17-21.5,31.4-14.7c15.4,7.2,23.6,29.5,43.9,24.7c6.8-1.6,13.5-9.5,21.2-7.3c15.2,4.3,5.5,32.7,24.8,33
						c14.6,0.2,21.3-42.9,36.1-17.3c6.1,10.5,2.1,24.4,1.3,35.7c-1,14.3-1.8,32,4.2,45.4c11.6,26.1,40.9,16.9,53.5-2.7
						c15.7-24.5-5.1-60,14.9-84.4c9.3-11.4,20.3-26.2,37.1-22.2c12,2.8,18.8,14.4,29.6,19.4c14.3,6.6,23.3-2.6,36.9-1.8
						c9.2,0.6,15,10.8,16.7,18.3c3.1,13.8,8.1,43.4,30.6,28.6c16.9-11.1,3.6-42.7,22.1-52.3c8.2-4.3,19,3.3,26.8-3.4
						c7.3-6.3,3.8-19.7,12.1-25.5c16.8-11.6,16.4,24.3,16.6,32.6c0.2,8.4-1.1,53.2,16.9,34.3c6.6-6.9,2-16.5-0.5-24.1
						c-11.3-34,11.5-90.5-7.6-118c-8-11.5-41-18.2-54-23c-21.7-7.9-43.2-13.8-66.1-17c-63-8.8-126.1-13.8-189.7-13.8
						c-39.6,0-78.6,1.1-117.9,5.4c-53.5,6-104.9,10.5-155.9,28.7c-12.3,4.4-30.3,6.2-40.1,15.6C283.6,504.3,278.6,504,276.3,509.7z"
						/>
					<radialGradient id="SVGID_14_" cx="597.2676" cy="643.817" r="235.5017" gradientUnits="userSpaceOnUse">
						<stop  offset="0.5582" style="stop-color:#3D150B"/>
						<stop  offset="1" style="stop-color:#340D07"/>
					</radialGradient>
					<path class="st21" d="M282.3,633.9c2.8-1.7,5.5-3.6,6.3-6.3c1.8-6-0.2-12.3-1.2-18.2c-1.6-10-6.7-28.6,2.5-36.1
						c16.7-13.6,12.7,25.4,21.5,20.7c7.6-4,13.3-30,24-11.3c7.4,12.9,5.8,30,4.4,44.1c-1.1,10.8-0.9,29.7,11.5,34.6
						c6.6,2.6,17,0.9,22.6-3.4c10.9-8.4,9.2-22.9,13.8-34.3c7-17.4,15.2,10.5,25.6,13c15.4,3.7,18-12.7,21-22.7
						c4.2-13.7,16.7-45.2,36.2-39.3c19.2,5.8,27.6,46.9,51.8,30.1c11.6-8.1,21.3-7.6,27.9,6.1c3.4,7.1,11,29.6,22.3,17.8
						c7.5-7.8,1.7-25,10.5-31.4c25.2-18.6,21.9,59.8,22.1,66c0.4,10.9,1.5,27.6,13.4,32.5c17.3,7.1,31.3-9.1,35.1-23.8
						c5.6-21.8,9.5-44.1,12.7-66.3c1.4-9.6,5.1-16.9,12.9-22.9c13.2-10.2,29.6-1.1,39.1,9.5c9.2,10.3,17.7,20.1,32.6,20.4
						c10.9,0.2,18.3-8.9,22.7-17.5c2.5-5,3.9-10.5,10-7.1c4.5,2.6,7,10.6,8.7,15.1c3.8,10.6,4.3,24.7,10.4,34.2
						c8.7,13.5,23.7,11.2,27.9-4.2c2.2-8.1,0.7-17,3.1-24.9c5.7-18.6,25.8,1.4,35.3-8.5c5.2-5.5,5.1-14.5,7.6-21.3
						c2.5-6.6,8-14.9,16.4-12.8c16.8,4.2,8.6,49.5,12.1,61.3c1.2,3.9,2.8,11.9,5.5,15.1c1.4,1.7,8.7,5.4,10.5,2
						c-0.6,1.1-1.2,2.1-2.1,2.9c-18.1,18.9-16.7-25.9-16.9-34.3c-0.2-8.2,0.1-44.1-16.6-32.6c-8.3,5.7-4.8,19.2-12.1,25.5
						c-7.8,6.7-18.6-0.8-26.8,3.4c-18.5,9.6-5.2,41.2-22.1,52.3c-22.5,14.8-27.6-14.7-30.6-28.6c-1.7-7.6-7.5-17.8-16.7-18.3
						c-13.6-0.9-22.5,8.4-36.9,1.8c-10.8-5-17.6-16.6-29.6-19.4c-16.8-3.9-27.7,10.8-37.1,22.3c-20,24.4,0.9,59.9-14.9,84.4
						c-12.6,19.6-41.9,28.8-53.5,2.7c-5.9-13.4-5.2-31.1-4.2-45.4c0.8-11.3,4.7-25.2-1.3-35.7c-14.8-25.7-21.4,17.5-36.1,17.3
						c-19.3-0.3-9.7-28.7-24.8-33c-7.7-2.2-14.4,5.8-21.2,7.3c-20.3,4.7-28.5-17.5-43.9-24.7c-14.4-6.8-28.9-2.4-31.4,14.7
						c-2.7,18.4,4.8,50.3-25.6,38.1c-7.1-2.8-14.5-10.3-22.3-5.6c-6.1,3.6-7.3,15.6-9.7,21.4c-3,7.4-7.6,13.4-14.5,17.6
						c-14.8,9.1-28.8,2.4-35.3-13.2c-6.8-16.4,0.2-37.5-0.3-54.7c-0.3-10.8-5.9-36-14.9-14.3c-2.1,5.1-1.3,13.5-8.6,13.2
						c-7.1-0.2-8-9.4-8.6-14.3c-0.7-4.9,1.4-14.3-6.7-14.2c-15.9,0.3,3.4,48.5-5,61.6c-3,4.7-15.3,6.7-17.1-0.7
						C273.3,638.5,278,636.5,282.3,633.9z"/>
					<path class="st6" d="M275.3,514.4c0,33.5,149.3,55.1,325.8,55.1c176.5,0,313.2-21.6,313.2-55.1c0-33.5-136.8-66.3-313.2-66.3
						C424.6,448.1,275.3,480.9,275.3,514.4z"/>
					<g class="st2">
						<path class="st7" d="M639.6,553.7c-171.2-0.4-303.8-20.2-303.7-50.5c0-13.9,28.2-27.6,75.2-38.3
							c-77,11.2-126.2,29.2-126.2,47.6c-0.1,30.2,132.5,50,303.7,50.5c110.6,0.3,210.2-7.6,266.9-21.3
							C798.4,549.6,722.1,553.9,639.6,553.7z"/>
					</g>
				</g>
				<g>
					
						<radialGradient id="SVGID_15_" cx="845.5259" cy="447.6104" r="36.6986" gradientTransform="matrix(0.8442 0 0 0.8442 114.3222 113.6466)" gradientUnits="userSpaceOnUse">
						<stop  offset="0.5582" style="stop-color:#3D150B"/>
						<stop  offset="1" style="stop-color:#340D07"/>
					</radialGradient>
					<path class="st22" d="M787.6,483.1c-10.6,9.1,15.2,10.1,21.4,12.7c2.8,2.9,9.2,4.8,22.6,3.9c-0.1-0.1-0.1-0.2-0.2-0.3
						c5.8-4.2,50.5-3.2,37.1-15.8L787.6,483.1z"/>
					<g>
						<g>
							<path class="st14" d="M843.9,453.6c5.4,9.8-8.5,32-23.5,41.7c12.1,2.5,12.3-2.1,17.4-2.7
								C885.5,487.6,860.7,462.5,843.9,453.6z"/>
							<path class="st15" d="M792.3,484.6c-8.3-1-4.2-11.6,3.9-15.7c11.7-5.9,46.1-15.1,23.6-26.2
								C861.9,444.3,824.2,488.3,792.3,484.6z"/>
							<path class="st14" d="M792.3,484.6c-3.6-0.4-4.8-2.6-4.5-5.2c0.4-3.6-0.4,2.5,11.3-2c18.9-7.3,50.6-23,20.7-34.6
								C861.9,444.3,824.2,488.3,792.3,484.6z"/>
							<path class="st16" d="M787.8,479.4c0.5,3,3.1,5.5,14.6,0.3c24.9-11.3,50.1-29.4,17.5-36.9c38.8,1.5,20.3,47.5-9.4,50.3
								C805.8,489.3,784.9,492.5,787.8,479.4z"/>
							<path class="st17" d="M808.4,487.3c-3.9,0.9-8,1-12,0.2c-3.2-0.7-6.2-2-8.6-3.8c2.2,8.1,18.6,6.1,22.6,9.4
								c1.4-0.1,2.9-0.4,4.2-0.7C811.9,491.3,809.8,489.5,808.4,487.3z"/>
							<path class="st15" d="M808.7,491.7c-6.5-7.2-1.7-13.7,6.5-17.8c11.7-5.9,40.5-23.6,4.7-31.2
								C873.7,448,816.9,489.2,808.7,491.7z"/>
							<path class="st14" d="M831.7,496.3c-35.8,2.4-22.2-15.7-20.2-16.7c23.8-12,48.4-31.1,8.3-36.8c41.5,2.1,27.1,40.7,0.4,46.3
								C817.4,489.6,817.2,490,831.7,496.3z"/>
							<path class="st16" d="M831.7,496.3c-26.1,0.8-15.9-7.9-10.3-10.6c26.7-13.3,24.3-26.8,20.5-34.8
								C862.2,483,822.5,482.2,831.7,496.3z"/>
							<path class="st16" d="M843.9,453.6c49.3,30.5-16.7,33.5-12.8,42.7c4.7-5.2,43.7,1.4,38.3-19.8
								C866.9,466.5,846.6,455,843.9,453.6z"/>
							<path class="st15" d="M843.8,453.6c24.3,20.6-12.7,33.7-12.8,41.5C839.7,483.4,885.6,477.7,843.8,453.6z"/>
							<path class="st14" d="M796.3,469c11.7-5.9,47.6-14.3,23.6-26.2C825.4,452,813.4,459.5,796.3,469z"/>
						</g>
						<path class="st17" d="M832,485.4c21.6-13.8,13.7-26.5,9.9-34.5c17.7,28.1-10.4,31.1-11.6,40.8
							C830.2,493,826.6,488.8,832,485.4z"/>
						<path class="st17" d="M833.2,492.6c-1.8,1.2-2.7,2.4-2.2,3.7c4.1-4.6,34.3-0.1,38.4-13C862.5,490.8,843.1,490.9,833.2,492.6z"
							/>
					</g>
				</g>
				<g>
					
						<radialGradient id="SVGID_16_" cx="300.7204" cy="437.4595" r="36.6987" gradientTransform="matrix(0.8442 0 0 0.8442 114.3222 113.6466)" gradientUnits="userSpaceOnUse">
						<stop  offset="0.5582" style="stop-color:#3D150B"/>
						<stop  offset="1" style="stop-color:#340D07"/>
					</radialGradient>
					<path class="st23" d="M327.7,474.5c-10.6,9.1,15.2,10.1,21.4,12.7c2.8,2.9,9.2,4.8,22.6,3.9c-0.1-0.1-0.1-0.2-0.2-0.3
						c5.8-4.2,50.5-3.2,37.1-15.8L327.7,474.5z"/>
					<g>
						<g>
							<path class="st14" d="M384,445c5.4,9.8-8.5,32-23.5,41.7c12.1,2.5,12.3-2.1,17.4-2.7C425.5,479,400.8,453.9,384,445z"/>
							<path class="st15" d="M332.4,476.1c-8.3-1-4.2-11.6,3.9-15.7c11.7-5.9,46.1-15.1,23.6-26.2
								C402,435.7,364.3,479.7,332.4,476.1z"/>
							<path class="st14" d="M332.4,476.1c-3.6-0.4-4.8-2.6-4.5-5.2c0.4-3.6-0.4,2.5,11.3-2c18.9-7.3,50.6-23,20.7-34.6
								C402,435.7,364.3,479.7,332.4,476.1z"/>
							<path class="st16" d="M327.9,470.8c0.5,3,3.1,5.5,14.6,0.3c24.9-11.3,50.1-29.4,17.5-36.9c38.8,1.5,20.3,47.5-9.4,50.3
								C345.8,480.7,324.9,483.9,327.9,470.8z"/>
							<path class="st17" d="M348.5,478.7c-3.9,0.9-8,1-12,0.1c-3.2-0.7-6.2-2-8.6-3.8c2.2,8.1,18.6,6.1,22.6,9.4
								c1.4-0.1,2.9-0.4,4.2-0.7C352,482.7,349.9,480.9,348.5,478.7z"/>
							<path class="st15" d="M348.8,483.1c-6.5-7.2-1.7-13.7,6.5-17.8c11.7-5.9,40.5-23.6,4.7-31.2
								C413.8,439.4,357,480.7,348.8,483.1z"/>
							<path class="st14" d="M371.8,487.7c-35.8,2.4-22.2-15.7-20.2-16.7c23.8-12,48.4-31.1,8.3-36.8c41.5,2.1,27.1,40.7,0.4,46.3
								C357.5,481,357.3,481.4,371.8,487.7z"/>
							<path class="st16" d="M371.8,487.7c-26.1,0.8-15.9-7.9-10.3-10.6c26.7-13.3,24.3-26.8,20.5-34.8
								C402.2,474.4,362.6,473.7,371.8,487.7z"/>
							<path class="st16" d="M384,445c49.3,30.5-16.7,33.5-12.8,42.7c4.7-5.2,43.7,1.4,38.3-19.8C407,458,386.7,446.4,384,445z"/>
							<path class="st15" d="M383.8,445.1c24.3,20.6-12.7,33.7-12.8,41.5C379.8,474.8,425.7,469.2,383.8,445.1z"/>
							<path class="st14" d="M336.4,460.4c11.7-5.9,47.6-14.3,23.6-26.2C365.5,443.4,353.5,450.9,336.4,460.4z"/>
						</g>
						<path class="st17" d="M372,476.8c21.6-13.8,13.7-26.5,9.9-34.5c17.7,28.1-10.4,31.1-11.6,40.8
							C370.3,484.4,366.7,480.2,372,476.8z"/>
						<path class="st17" d="M373.3,484c-1.8,1.2-2.7,2.4-2.2,3.7c4.1-4.6,34.3-0.1,38.4-13C402.6,482.3,383.2,482.3,373.3,484z"/>
					</g>
				</g>
				<g>
					<linearGradient id="SVGID_17_" gradientUnits="userSpaceOnUse" x1="408.4563" y1="407.8892" x2="686.9698" y2="450.7375">
						<stop  offset="0" style="stop-color:#8E5D3F"/>
						<stop  offset="1" style="stop-color:#552F1C"/>
					</linearGradient>
					<path class="st24" d="M825.3,483.4c0,26.9-106.4,52.6-232.1,52.6s-224.3-18.4-224.3-45.4c0-6.8-8.6-91.7-1.4-116.8
						c13.9-30.6,134.8-15,225.9-15c94.5,0,217.9-23.2,234.6,16.5C835.3,392.8,825.3,477.3,825.3,483.4z"/>
					<g class="st2">
						<linearGradient id="SVGID_18_" gradientUnits="userSpaceOnUse" x1="364.7587" y1="452.9314" x2="831.3157" y2="452.9314">
							<stop  offset="0" style="stop-color:#3D150B"/>
							<stop  offset="1" style="stop-color:#340D07"/>
						</linearGradient>
						<path class="st25" d="M821.2,476.3c1.6,0.3,4.8-1.6,5-3.6c1.2-13,2.2-19.8,3-29.7c0.5-6.6,1.1-13.2,1.3-19.7
							c0.1-3,2-17.2-0.2-19.1c-1.9-1.6-4.6-1.8-6.6-3.3c-7.1-5.1-20.2-6.1-29.2-8.5c-37.1-9.9-74.6-12.3-113.6-15.6
							c-7.1-0.6-14.2-1.1-21.4-1.5c-22.5,1.2-45.1,2.2-66.2,2.2c-22,0-45.8-0.8-69.3-1.7c-22.4,1.3-44.8,3.1-67.2,5.4
							c-16.7,1.7-32.4,5-48.2,9.3c-9.5,2.6-33.5,6.2-39.4,12.5c-2.1,2.2-3.4,4.9-4.3,7.7c-0.4,13.8,0.3,27.7,1.8,41.4
							c0.6,5.8-0.2,13,1.5,18.6c1.9,6.1,7.1,4.7,9.4-0.2c2.8-6,2.7-16.5,2.6-23c-0.1-3.3-2.3-18.4,2.8-19.3
							c3.7-0.6,6.5,12.1,10.2,14c6.1,3.2,13.2,3.1,19.1,6.8c11.4,7.1,11.4,51.3,32.7,36.3c7.1-4.9,7.9-13.2,10.1-20.8
							c1.7-5.8,3.7-13.2,11.2-10.9c4.5,1.3,6.3,5.9,10,8.4c12.6,8.3,25.8-3.5,33-12.9c3-3.9,5.3-9.1,10.9-9.1
							c11.1-0.1,15.7,11.2,20.3,19.3c5.7,10,7,21.3,7.2,32.6c0.3,11.3,1.2,25.4,10.7,33c8.4,6.6,25.2,8.9,32.6-0.4
							c9.2-11.6,4.3-31.6,4.5-45.2c0.1-5.4-1.2-12,5.1-14.7c5.4-2.3,10.5,1.6,12.9,6.4c1.8,3.6,2.1,8.3,6.7,9.5
							c15.3,3.9,15.6-44.4,34.4-31.1c6.6,4.7,9.9,7.2,17.6,2.4c6.3-4,11.6-10.7,19.3-12.1c21.3-3.9,11.7,36.8,31,38
							c9,0.5,16.4-14.1,23.4-4.6c5.3,7.4,7.8,18.3,15.5,23.6c6.7,4.6,16.4,5.5,23.9,2.8c14.6-5.3,11.8-21.7,9.1-33.4
							c-1.4-6.2-3.8-13.4-3.1-19.8c1.1-11.1,7-3.5,12.3-1c7.7,3.7,10.3-3.4,13-8.9c3.3-6.8,6.3-1.3,5.5,4.4
							c-0.9,7.3-5.6,13.4-6.1,21.1C815.8,465.6,815,475.3,821.2,476.3z"/>
					</g>
					<path class="st4" d="M832.8,365.4c5.5,13.3,1,32.1-0.6,45.9c-1.4,11.7-4.5,24.2-1,35.7c1.3,4.3,5.9,11.1,2.9,15.7
						c-2.6,3.9-8,3.5-11.1,0.3c-7-7.3,7.2-45.3-4.5-45.5c-6-0.1-4.4,6.8-4.9,10.4c-0.5,3.6-1.1,10.3-6.3,10.4
						c-5.4,0.2-4.8-6-6.3-9.7c-6.6-15.9-10.7,2.6-10.9,10.5c-0.3,12.7,4.8,28.1-0.2,40.1c-4.7,11.4-15,16.3-25.9,9.7
						c-5-3.1-8.4-7.5-10.6-12.9c-1.7-4.3-2.6-13.1-7.1-15.7c-5.7-3.4-11.2,2.1-16.4,4.1c-22.4,8.9-16.8-15.1-18.7-27.9
						c-1.9-12.5-12.5-15.7-23-10.8c-11.3,5.3-17.3,21.6-32.2,18.1c-5-1.2-9.9-7-15.6-5.4c-11.1,3.1-4,24-18.2,24.1
						c-10.7,0.1-15.6-31.5-26.4-12.6c-4.4,7.7-1.6,17.9-1,26.2c0.7,10.5,1.3,23.5-3.1,33.2c-8.5,19.1-30,12.4-39.2-2
						c-11.5-17.9,3.7-44-10.9-61.8c-6.8-8.4-14.9-19.2-27.2-16.3c-8.8,2-13.8,10.5-21.7,14.2c-10.5,4.8-17-1.9-27-1.3
						c-6.7,0.4-11,7.9-12.2,13.4c-2.2,10.1-6,31.8-22.4,20.9c-12.4-8.2-2.6-31.3-16.2-38.3c-6-3.1-13.9,2.4-19.7-2.5
						c-5.3-4.6-2.8-14.5-8.8-18.7c-12.3-8.5-12,17.8-12.2,23.9c-0.2,6.2,0.8,39-12.4,25.1c-4.9-5.1-1.5-12.1,0.3-17.6
						c8.3-24.9-8.4-66.3,5.6-86.5c5.9-8.4,30-13.4,39.6-16.8c15.9-5.8,31.7-10.1,48.5-12.5c46.2-6.4,92.4-10.1,139-10.1
						c29,0,57.6,0.8,86.4,4c39.2,4.4,76.9,7.7,114.2,21c9,3.2,22.2,4.6,29.3,11.4C827.5,361.5,831.1,361.3,832.8,365.4z"/>
					<radialGradient id="SVGID_19_" cx="597.6351" cy="463.7253" r="172.5534" gradientUnits="userSpaceOnUse">
						<stop  offset="0.5582" style="stop-color:#3D150B"/>
						<stop  offset="1" style="stop-color:#340D07"/>
					</radialGradient>
					<path class="st26" d="M828.4,456.5c-2.1-1.2-4-2.6-4.6-4.6c-1.3-4.4,0.1-9,0.8-13.4c1.2-7.3,4.9-20.9-1.9-26.4
						c-12.2-10-9.3,18.6-15.7,15.2c-5.6-2.9-9.7-22-17.6-8.3c-5.4,9.4-4.3,22-3.3,32.3c0.8,7.9,0.7,21.8-8.4,25.3
						c-4.9,1.9-12.4,0.7-16.5-2.5c-8-6.1-6.7-16.8-10.1-25.1c-5.1-12.8-12.6,8.3-20.2,10.1c-11.3,2.7-11.7-9.9-14-17.2
						c-3-10.1-12.3-33.1-26.5-28.8c-14,4.3-20.2,34.4-38,22.1c-8.5-5.9-15.6-5.6-20.4,4.5c-2.5,5.2-8.1,21.7-16.4,13.1
						c-5.5-5.7-1.3-18.3-7.7-23c-18.4-13.6-16,43.8-16.2,48.3c-0.3,8-1.1,20.2-9.8,23.8c-12.7,5.2-23-6.7-25.7-17.4
						c-4.1-16-7-32.3-9.3-48.6c-1-7-3.7-12.4-9.5-16.8c-9.7-7.4-21.7-0.8-28.6,7c-6.7,7.5-13,14.7-23.9,14.9
						c-8,0.2-13.4-6.5-16.6-12.8c-1.9-3.7-2.9-7.7-7.3-5.2c-3.3,1.9-5.2,7.8-6.3,11.1c-2.8,7.7-3.1,18.1-7.6,25
						c-6.4,9.9-17.3,8.2-20.5-3c-1.6-5.9-0.5-12.5-2.3-18.3c-4.2-13.6-18.9,1.1-25.9-6.3c-3.8-4-3.7-10.6-5.6-15.6
						c-1.8-4.8-5.8-10.9-12-9.4c-12.3,3-6.3,36.3-8.9,44.9c-0.9,2.9-2.1,8.7-4,11.1c-1,1.2-6.4,4-7.7,1.5c0.4,0.8,0.9,1.5,1.5,2.2
						c13.2,13.8,12.3-18.9,12.4-25.1c0.2-6-0.1-32.3,12.2-23.9c6.1,4.2,3.5,14.1,8.8,18.7c5.7,4.9,13.6-0.6,19.7,2.5
						c13.5,7,3.8,30.2,16.2,38.3c16.5,10.9,20.2-10.8,22.4-20.9c1.2-5.6,5.5-13,12.2-13.4c10-0.6,16.5,6.1,27,1.3
						c7.9-3.7,12.9-12.2,21.7-14.2c12.3-2.9,20.3,7.9,27.2,16.3c14.6,17.9-0.6,43.9,10.9,61.8c9.2,14.4,30.7,21.1,39.2,2
						c4.3-9.8,3.8-22.8,3.1-33.2c-0.6-8.3-3.5-18.4,1-26.2c10.8-18.8,15.7,12.8,26.4,12.6c14.2-0.2,7.1-21,18.2-24.1
						c5.7-1.6,10.6,4.2,15.6,5.4c14.9,3.5,20.9-12.8,32.2-18.1c10.6-5,21.2-1.8,23,10.8c1.9,12.8-3.6,36.9,18.7,27.9
						c5.2-2.1,10.6-7.5,16.4-4.1c4.5,2.6,5.3,11.4,7.1,15.7c2.2,5.4,5.6,9.8,10.6,12.9c10.9,6.6,21.1,1.8,25.9-9.7
						c5-12-0.2-27.4,0.2-40.1c0.2-7.9,4.3-26.4,10.9-10.5c1.5,3.7,1,9.9,6.3,9.7c5.2-0.1,5.9-6.9,6.3-10.4c0.5-3.6-1-10.5,4.9-10.4
						c11.6,0.2-2.5,35.5,3.7,45.1c2.2,3.4,11.2,4.9,12.6-0.5C835,459.8,831.5,458.3,828.4,456.5z"/>
					<path class="st6" d="M833.5,368.9c0,24.5-109.4,40.3-238.7,40.3c-129.3,0-229.5-15.8-229.5-40.3s100.2-48.5,229.5-48.5
						C724.1,320.3,833.5,344.3,833.5,368.9z"/>
					<g class="st2">
						<path class="st7" d="M630.8,396.9c-125.4-0.3-222.6-14.8-222.6-37c0-10.2,20.6-20.2,55.1-28c-56.4,8.2-92.5,21.4-92.5,34.9
							c-0.1,22.2,97.1,36.7,222.6,37c81,0.2,154-5.6,195.5-15.6C747.1,393.8,691.2,397,630.8,396.9z"/>
					</g>
				</g>
				<linearGradient id="SVGID_20_" gradientUnits="userSpaceOnUse" x1="567.1146" y1="423.3174" x2="574.7581" y2="500.8448">
					<stop  offset="0" style="stop-color:#3D140B"/>
					<stop  offset="0.4778" style="stop-color:#40170E"/>
					<stop  offset="0.6627" style="stop-color:#441A12"/>
					<stop  offset="1" style="stop-color:#64332F"/>
				</linearGradient>
				<path class="st27" d="M579.3,502.8c12-2.3,11.5-21.9,11.1-29.1c-1.5-35-6.3-15.9-16.7-18c-9.9-1.9-19.6-17.1-24.5-24.5
					C554.7,447.6,550.6,508.2,579.3,502.8z"/>
				<linearGradient id="SVGID_21_" gradientUnits="userSpaceOnUse" x1="372.8786" y1="575.9155" x2="355.4076" y2="655.6269">
					<stop  offset="0" style="stop-color:#3D140B"/>
					<stop  offset="0.4778" style="stop-color:#40170E"/>
					<stop  offset="0.6627" style="stop-color:#441A12"/>
					<stop  offset="1" style="stop-color:#64332F"/>
				</linearGradient>
				<path class="st28" d="M355.1,659.4c-15.4-3.8-14.7-27.5-14.3-36.2c1.9-42.2,8.1-18.7,21.4-20.3c12.7-1.5,25.1-19,31.4-27.5
					C386.5,594.9,391.9,668.5,355.1,659.4z"/>
				<linearGradient id="SVGID_22_" gradientUnits="userSpaceOnUse" x1="418.9632" y1="578.51" x2="404.7681" y2="639.6582">
					<stop  offset="0" style="stop-color:#3D140B"/>
					<stop  offset="0.4778" style="stop-color:#40170E"/>
					<stop  offset="0.6627" style="stop-color:#441A12"/>
					<stop  offset="1" style="stop-color:#64332F"/>
				</linearGradient>
				<path class="st29" d="M414,637c-10.3-2.1-18.2-22.8-26.4-28.9c-22.5-16.5,20.4-8.5,29.2-10.1c8.3-1.5,31.1-13.8,34.9-19.7
					C428.5,602.1,436.5,641.5,414,637z"/>
				<linearGradient id="SVGID_23_" gradientUnits="userSpaceOnUse" x1="815.1454" y1="579.8959" x2="806.4099" y2="653.0554">
					<stop  offset="0" style="stop-color:#3D140B"/>
					<stop  offset="0.4778" style="stop-color:#40170E"/>
					<stop  offset="0.6627" style="stop-color:#441A12"/>
					<stop  offset="1" style="stop-color:#64332F"/>
				</linearGradient>
				<path class="st30" d="M820.6,644.2c10.9-2.7,10.4-19.5,10.1-25.7c-1.4-29.9-5.7-13.3-15.2-14.4c-9-1-17.8-13.5-22.3-19.5
					C798.3,598.4,794.6,650.6,820.6,644.2z"/>
				<linearGradient id="SVGID_24_" gradientUnits="userSpaceOnUse" x1="636.6136" y1="618.1113" x2="631.1539" y2="696.7308">
					<stop  offset="0" style="stop-color:#3D140B"/>
					<stop  offset="0.4778" style="stop-color:#40170E"/>
					<stop  offset="0.6627" style="stop-color:#441A12"/>
					<stop  offset="1" style="stop-color:#64332F"/>
				</linearGradient>
				<path class="st31" d="M622.1,696.7c-17.5-3-16.7-29.4-16.3-39.1c2.2-47,9.2-21.4,24.4-24.1c14.4-2.6,28.5-23,35.7-32.9
					C657.9,622.7,664,703.9,622.1,696.7z"/>
				<linearGradient id="SVGID_25_" gradientUnits="userSpaceOnUse" x1="739.6779" y1="568.0648" x2="749.5053" y2="615.0179">
					<stop  offset="0" style="stop-color:#3D140B"/>
					<stop  offset="0.4778" style="stop-color:#40170E"/>
					<stop  offset="0.6627" style="stop-color:#441A12"/>
					<stop  offset="1" style="stop-color:#64332F"/>
				</linearGradient>
				<path class="st32" d="M706.5,579.9c17.8,9.6,21.7,28.5,36.8,31.1c20,3.5,29.1-13.3,33.9-34.2L706.5,579.9z"/>
				<linearGradient id="SVGID_26_" gradientUnits="userSpaceOnUse" x1="766.9067" y1="415.2934" x2="767.9987" y2="488.4532">
					<stop  offset="0" style="stop-color:#3D140B"/>
					<stop  offset="0.4778" style="stop-color:#40170E"/>
					<stop  offset="0.6627" style="stop-color:#441A12"/>
					<stop  offset="1" style="stop-color:#64332F"/>
				</linearGradient>
				<path class="st33" d="M775.6,475c10.4-1.7,9.8-13.7,9.5-19.3c-1.3-27-5.5-12.3-14.5-13.9c-8.6-1.5-17-13.2-21.3-18.9
					C754.1,435.7,750.7,479.1,775.6,475z"/>
				<linearGradient id="SVGID_27_" gradientUnits="userSpaceOnUse" x1="431.9218" y1="395.3524" x2="451.5765" y2="475.0634">
					<stop  offset="0" style="stop-color:#3D140B"/>
					<stop  offset="0.4778" style="stop-color:#40170E"/>
					<stop  offset="0.6627" style="stop-color:#441A12"/>
					<stop  offset="1" style="stop-color:#64332F"/>
				</linearGradient>
				<path class="st34" d="M435.8,462.2c-7.9-1.4-7.4-11.1-7.2-15.7c0.9-22.1,4.1-10.1,10.9-11.4c6.5-1.2,12.8-10.9,16-15.5
					C451.9,430,454.7,465.6,435.8,462.2z"/>
				<linearGradient id="SVGID_28_" gradientUnits="userSpaceOnUse" x1="729.2565" y1="400.9031" x2="731.4403" y2="462.0507">
					<stop  offset="0" style="stop-color:#3D140B"/>
					<stop  offset="0.4778" style="stop-color:#40170E"/>
					<stop  offset="0.6627" style="stop-color:#441A12"/>
					<stop  offset="1" style="stop-color:#64332F"/>
				</linearGradient>
				<path class="st35" d="M726.1,457.4c-8.1-1.3-4.6-19.6-10.9-29.6c-11.2-17.6,9.4,2.9,16.3,1.7c6.6-1.1,13.1-10.2,16.4-14.6
					C744.2,424.7,745.3,460.6,726.1,457.4z"/>
			</g>
			<g>
				<g>
					<path class="st4" d="M687.1,344.3c-3.2,1.4-6.9,2.3-11,2.4c-25.7,0.7-49.4,3.1-75.3-1.2c-11.8-2-23.5-4.4-35.2-7.1h-33.9
						c-4.7,5.2-14.8,0.1-14,7.5c-1.3,21.8,68.2,37.1,90.4,33.9c23.8-3.4,51.6,6.4,64.3,8.4c-2.2-6.7-8.1-19.7-8.7-20.4
						c11.7-0.4,33.2-7.7,34-8.9C702.2,348.7,695.7,345.9,687.1,344.3z"/>
					<g>
						<g>
							<path class="st17" d="M535.9,313.9c15.3-9.2,6.2-23.2,13.8-26.1c22.6,5.8,98.9-30.4,110.7-17.1c0,0,29.6,34.6-30.3,65.1
								C607.1,310.8,519.4,327.1,535.9,313.9z"/>
							<path class="st16" d="M666.7,351.3c-70.9,36.9-71.9-28.1-56.1-41.7c26.8-2.7,40.1-13.2,73.7-12.1c5.4,0.2,11.4-0.7,13.1-3.9
								C677.6,318.1,685.4,339.9,666.7,351.3z"/>
							<path class="st16" d="M569.4,241.8c15.3-9.2,13.9-14.2,30.5-9.9c22.6,5.8,38.3-4.4,51.6,14.2c0,0-15.1,27.4-30.8,32.4
								C597.7,253.6,552.9,254.9,569.4,241.8z"/>
							<path class="st16" d="M549.8,286.8c4.1-9.8-4.2-29.5-2.5-30.5c5.9-3.4,13.4-11.7,43.2,11.1c30.9,23.7,78.8,3.9,66-14.7
								c11,12.9-8.7,30.5-11.6,32.9C597.7,325.6,546.8,294,549.8,286.8z"/>
							<path class="st14" d="M549.1,287.8c-20.7-0.7-31.8,9.3-37.6,21.6c-5.8,12.3,34.1,37,80,35.4c45.9-1.6,66.4,33,76.1,38
								c-7.1-21.6-29.9-62.5-49.8-68.9C597.9,307.7,547.9,309.7,549.1,287.8z"/>
							<path class="st15" d="M654,363.4c-3.9-4.9-34.9-29.3-77.7-31.5c-40.5-2.1-85.8-32.2-33.9-42.5c-14.3,12.6,3.4,27.1,27.8,29.3
								C598,321.2,621.1,309.5,654,363.4z"/>
							<path class="st16" d="M520.7,340.8c-1-9.9-8.6-7.6-9.4-26.8c3.5,13,40.4,29.3,81.2,27.9c45.9-1.6,65.5,36.1,75.2,41.1
								c-12.7-2-36.1-11.9-59.9-8.5C585.6,377.6,519.4,362.6,520.7,340.8z"/>
							<path class="st14" d="M660.4,270.7c-2.6,16-36.3,35.2-49.7,38.9c33.4,6.8,40.1-13.2,73.7-12.1
								C702.3,298.1,703.8,272.2,660.4,270.7z"/>
							<path class="st15" d="M660.4,270.7c25.8,5,32.4,13.1,24.5,19c-6,4.5-24.7,6.8-24.8,11.1c0,0,17.4-2.5,27.3-2.2
								C705.3,299.3,703.8,272.2,660.4,270.7z"/>
						</g>
						<path class="st16" d="M645.8,340.2c3.9,5.9,13.2,21.6,13.3,22.7c11.7-0.4,33.7-6.9,34.5-8.1c5.8-13.7,15.5-17.2,17.3-33.5
							C712.5,306.8,675.9,343.4,645.8,340.2z"/>
						<path class="st14" d="M646.1,340.7c24.7-6.6,34.2-14.7,37.8-22.5c1.6-7.5,4.8-11.1,5.6-12.4c9.4,0.6,23.6,1,21.4,15.5
							C708.7,335.7,664.9,339.4,646.1,340.7z"/>
						<path class="st17" d="M646.1,340.7c24.7-6.6,34.2-14.7,37.8-22.5c1.6-7.5,4.8-11.1,5.6-12.4l1.7-3.1c-16,3.3-7.1,26.2-50,31.2
							L646.1,340.7z"/>
						<path class="st17" d="M520.7,340.8c-0.5-5-2.7-6.9-4.8-9.9c46.2,20.1,6,29.3,89.5,37.2c45.2,4.2,52.6,9.9,62.3,15
							c-12.7-2-36.1-11.9-59.9-8.5C585.6,377.6,519.4,362.6,520.7,340.8z"/>
					</g>
				</g>
			</g>
			<g>
				<g>
					<path class="st6" d="M606.6,213.5c-2-12.7-9.2-39,24-46.3c2.7,0.4,0.7,3.3,0.7,3.3s-32.8,1.3-23.4,43.3
						C606.6,214.5,606.6,213.5,606.6,213.5z"/>
					<path class="st36" d="M631.3,167.8c0.2,0,0.4,0.1,0.6,0.2c-0.2-0.4-0.6-0.7-1.3-0.8c-33.2,7.3-25.9,33.6-24,46.3
						c0,0,0,0.6,0.7,0.5C605.3,201.3,598.2,175.1,631.3,167.8z"/>
				</g>
				<g>
					
						<radialGradient id="SVGID_29_" cx="579.1785" cy="-1018.854" r="139.9031" gradientTransform="matrix(0.2816 -4.320000e-02 4.320000e-02 0.2816 488.6658 526.2781)" gradientUnits="userSpaceOnUse">
						<stop  offset="0.4931" style="stop-color:#BF1F1F"/>
						<stop  offset="0.5814" style="stop-color:#B91E1E"/>
						<stop  offset="0.7026" style="stop-color:#A71B1B"/>
						<stop  offset="0.8429" style="stop-color:#8A1517"/>
						<stop  offset="0.9964" style="stop-color:#620E10"/>
						<stop  offset="1" style="stop-color:#610E10"/>
					</radialGradient>
					<path class="st37" d="M635.4,228.5c2.1,13.7-7.2,21.3-20.9,23.4c-14,6-26.7-2-28.9-15.8c-2.1-13.7,8.2-21,21.9-23.1
						C621.8,202.7,633.3,214.7,635.4,228.5z"/>
					
						<radialGradient id="SVGID_30_" cx="578.3583" cy="-1051.7542" r="117.5946" gradientTransform="matrix(0.2816 -4.320000e-02 4.320000e-02 0.2816 488.6658 526.2781)" gradientUnits="userSpaceOnUse">
						<stop  offset="4.016060e-03" style="stop-color:#FF5620"/>
						<stop  offset="1" style="stop-color:#D81B21"/>
					</radialGradient>
					<path class="st38" d="M595.7,234.5c4.7-0.6,8.1-2.6,12.2-4.6c3-1.4,6.9-4.8,10-1.9c1.7,1.6,3.9,5.6,6.2,2.3
						c0.9-1.3,0.8-2.9,2.2-4c1.6-1.3,2.2-0.6,3.9-0.5c1.1,0.1,1.4-0.1,1.8-1.2c1.3-3.9-1.4-8.8-4.1-11.4c-3-2.8-6.9-4.3-11.1-4
						c-3.5,0.2-6.5,1.8-9.3,3.8c-0.8,0.6-3,0.6-4,0.8c-1.3,0.3-2.6,0.7-3.9,1.1c-2.4,0.9-4.7,2-6.7,3.4c-3.5,2.4-7.6,6.8-6.7,11.4
						C587,234.2,591.4,235,595.7,234.5z"/>
				</g>
			</g>
			<path class="st14" d="M568,242.4c-6.2,3.4-19.7,8-20.8,13.9c5.9-3.4,13.5-9.9,43.2,12.9c30.9,23.7,70.2,5.7,66-16.5
				c-3.7-19.7-25.2-1.9-28.9-1.5C582.8,255.8,580.6,235.5,568,242.4z"/>
			<path class="st15" d="M547.3,256.3c5.9-3.4,13.4-9.4,43.2,13.4c30.9,23.7,80.9,1.4,66-17c7.5,15.8-27.4,18.4-50.6,11.6
				C581.1,257,557,244,547.3,256.3z"/>
		</g>
		<g>
			
				<radialGradient id="SVGID_31_" cx="313.9969" cy="506.131" r="36.6977" gradientTransform="matrix(0.9579 0 0 0.9579 28.6943 31.2744)" gradientUnits="userSpaceOnUse">
				<stop  offset="0.5582" style="stop-color:#3D150B"/>
				<stop  offset="1" style="stop-color:#340D07"/>
			</radialGradient>
			<path class="st39" d="M283.5,506.5c-12,10.3,17.3,11.5,24.3,14.4c3.1,3.2,10.5,5.5,25.7,4.5c-0.1-0.1-0.1-0.3-0.2-0.4
				c6.5-4.8,57.3-3.7,42.1-17.9L283.5,506.5z"/>
			<g>
				<g>
					<path class="st14" d="M347.4,473.1c6.1,11.1-9.6,36.3-26.7,47.3c13.7,2.9,13.9-2.4,19.8-3C394.6,511.7,366.5,483.1,347.4,473.1
						z"/>
					<path class="st15" d="M288.9,508.3c-9.5-1.1-4.8-13.2,4.5-17.8c13.3-6.7,52.3-17.1,26.7-29.8
						C367.8,462.5,325,512.4,288.9,508.3z"/>
					<path class="st14" d="M288.9,508.3c-4-0.5-5.5-2.9-5.1-6c0.5-4.1-0.5,2.9,12.9-2.3c21.4-8.3,57.5-26.1,23.5-39.3
						C367.8,462.5,325,512.4,288.9,508.3z"/>
					<path class="st16" d="M283.7,502.3c0.5,3.4,3.5,6.2,16.5,0.3c28.3-12.9,56.8-33.4,19.8-41.9c44,1.7,23.1,53.9-10.7,57.1
						C304.1,513.6,280.4,517.2,283.7,502.3z"/>
					<path class="st17" d="M307.1,511.3c-4.5,1-9,1.2-13.6,0.2c-3.6-0.8-7-2.3-9.8-4.3c2.5,9.2,21.1,6.9,25.7,10.7
						c1.6-0.2,3.2-0.4,4.8-0.8C311.1,515.8,308.7,513.8,307.1,511.3z"/>
					<path class="st15" d="M307.5,516.3c-7.4-8.2-1.9-15.6,7.3-20.2c13.3-6.7,45.9-26.8,5.3-35.4
						C381.2,466.7,316.8,513.5,307.5,516.3z"/>
					<path class="st14" d="M333.6,521.5c-40.7,2.7-25.2-17.8-22.9-18.9c27-13.7,54.9-35.3,9.5-41.8c47,2.4,30.8,46.2,0.5,52.5
						C317.3,513.9,317.1,514.3,333.6,521.5z"/>
					<path class="st16" d="M333.6,521.5c-29.6,0.9-18-8.9-11.7-12.1c30.3-15.1,27.6-30.4,23.3-39.5
						C368.1,506.4,323.2,505.6,333.6,521.5z"/>
					<path class="st16" d="M347.4,473.1c55.9,34.6-19,38.1-14.5,48.4c5.3-5.9,49.6,1.6,43.5-22.4
						C373.5,487.8,350.5,474.7,347.4,473.1z"/>
					<path class="st15" d="M347.2,473.1c27.5,23.4-14.4,38.2-14.5,47C342.6,506.9,394.7,500.4,347.2,473.1z"/>
					<path class="st14" d="M293.4,490.5c13.3-6.7,54-16.2,26.7-29.8C326.4,471.2,312.8,479.7,293.4,490.5z"/>
				</g>
				<path class="st17" d="M333.9,509.1c24.5-15.7,15.6-30.1,11.3-39.2c20.1,31.9-11.8,35.3-13.1,46.2
					C331.8,517.8,327.8,513,333.9,509.1z"/>
				<path class="st17" d="M335.3,517.3c-2,1.3-3.1,2.7-2.5,4.2c4.6-5.2,39-0.1,43.6-14.7C368.5,515.3,346.5,515.4,335.3,517.3z"/>
			</g>
		</g>
		<g>
			
				<radialGradient id="SVGID_32_" cx="870.9123" cy="506.131" r="36.6977" gradientTransform="matrix(0.9579 0 0 0.9579 28.6943 31.2744)" gradientUnits="userSpaceOnUse">
				<stop  offset="0.5582" style="stop-color:#3D150B"/>
				<stop  offset="1" style="stop-color:#340D07"/>
			</radialGradient>
			<path class="st40" d="M817,506.5c-12,10.3,17.3,11.5,24.3,14.4c3.1,3.2,10.5,5.5,25.7,4.5c-0.1-0.1-0.1-0.3-0.2-0.4
				c6.5-4.8,57.3-3.7,42.1-17.9L817,506.5z"/>
			<g>
				<g>
					<path class="st14" d="M880.8,473.1c6.1,11.1-9.6,36.3-26.7,47.3c13.7,2.9,13.9-2.4,19.8-3C928,511.7,899.9,483.1,880.8,473.1z"
						/>
					<path class="st15" d="M822.3,508.3c-9.5-1.1-4.8-13.2,4.5-17.8c13.3-6.7,52.3-17.1,26.7-29.8
						C901.3,462.5,858.5,512.4,822.3,508.3z"/>
					<path class="st14" d="M822.3,508.3c-4-0.5-5.5-2.9-5.1-6c0.5-4.1-0.5,2.9,12.9-2.3c21.4-8.3,57.5-26.1,23.5-39.3
						C901.3,462.5,858.5,512.4,822.3,508.3z"/>
					<path class="st16" d="M817.2,502.3c0.5,3.4,3.5,6.2,16.5,0.3c28.3-12.9,56.8-33.4,19.8-41.9c44,1.7,23.1,53.9-10.7,57.1
						C837.6,513.6,813.9,517.2,817.2,502.3z"/>
					<path class="st17" d="M840.6,511.3c-4.5,1-9,1.2-13.6,0.2c-3.6-0.8-7-2.3-9.8-4.3c2.5,9.2,21.1,6.9,25.7,10.7
						c1.6-0.2,3.2-0.4,4.8-0.8C844.6,515.8,842.2,513.8,840.6,511.3z"/>
					<path class="st15" d="M841,516.3c-7.4-8.2-1.9-15.6,7.3-20.2c13.3-6.7,45.9-26.8,5.3-35.4C914.7,466.7,850.2,513.5,841,516.3z"
						/>
					<path class="st14" d="M867,521.5c-40.7,2.7-25.2-17.8-22.9-18.9c27-13.7,54.9-35.3,9.5-41.8c47,2.4,30.8,46.2,0.5,52.5
						C850.8,513.9,850.6,514.3,867,521.5z"/>
					<path class="st16" d="M867,521.5c-29.6,0.9-18-8.9-11.7-12.1c30.3-15.1,27.6-30.4,23.3-39.5C901.6,506.4,856.6,505.6,867,521.5
						z"/>
					<path class="st16" d="M880.8,473.1c55.9,34.6-19,38.1-14.5,48.4c5.3-5.9,49.6,1.6,43.5-22.4C907,487.8,883.9,474.7,880.8,473.1
						z"/>
					<path class="st15" d="M880.7,473.1c27.5,23.4-14.4,38.2-14.5,47C876.1,506.9,928.2,500.4,880.7,473.1z"/>
					<path class="st14" d="M826.8,490.5c13.3-6.7,54-16.2,26.7-29.8C859.9,471.2,846.3,479.7,826.8,490.5z"/>
				</g>
				<path class="st17" d="M867.3,509.1c24.5-15.7,15.6-30.1,11.3-39.2c20.1,31.9-11.8,35.3-13.1,46.2
					C865.3,517.8,861.2,513,867.3,509.1z"/>
				<path class="st17" d="M868.8,517.3c-2,1.3-3.1,2.7-2.4,4.2c4.6-5.2,39-0.1,43.6-14.7C902,515.3,879.9,515.4,868.8,517.3z"/>
			</g>
		</g>
		<g>
			
				<radialGradient id="SVGID_33_" cx="379.1273" cy="528.5788" r="36.6975" gradientTransform="matrix(0.9579 0 0 0.9579 28.6943 31.2744)" gradientUnits="userSpaceOnUse">
				<stop  offset="0.5582" style="stop-color:#3D150B"/>
				<stop  offset="1" style="stop-color:#340D07"/>
			</radialGradient>
			<path class="st41" d="M345.9,528c-12,10.3,17.3,11.5,24.3,14.4c3.1,3.2,10.5,5.5,25.7,4.5c-0.1-0.1-0.1-0.3-0.2-0.4
				c6.5-4.8,57.3-3.7,42.1-17.9L345.9,528z"/>
			<g>
				<g>
					<path class="st14" d="M409.8,494.6c6.1,11.1-9.6,36.3-26.7,47.3c13.7,2.9,13.9-2.4,19.8-3C456.9,533.2,428.9,504.6,409.8,494.6
						z"/>
					<path class="st15" d="M351.3,529.8c-9.5-1.1-4.8-13.2,4.5-17.8c13.3-6.7,52.3-17.1,26.7-29.8
						C430.2,484,387.4,533.9,351.3,529.8z"/>
					<path class="st14" d="M351.3,529.8c-4-0.5-5.5-2.9-5.1-6c0.5-4.1-0.5,2.9,12.9-2.3c21.4-8.3,57.5-26.1,23.5-39.3
						C430.2,484,387.4,533.9,351.3,529.8z"/>
					<path class="st16" d="M346.1,523.8c0.5,3.4,3.5,6.2,16.5,0.3c28.3-12.9,56.8-33.4,19.8-41.9c44,1.7,23.1,53.9-10.7,57.1
						C366.5,535.1,342.8,538.7,346.1,523.8z"/>
					<path class="st17" d="M369.5,532.8c-4.5,1-9,1.2-13.6,0.2c-3.6-0.8-7-2.3-9.8-4.3c2.5,9.2,21.1,6.9,25.7,10.7
						c1.6-0.2,3.2-0.4,4.8-0.8C373.5,537.3,371.1,535.3,369.5,532.8z"/>
					<path class="st15" d="M369.9,537.8c-7.4-8.2-1.9-15.6,7.3-20.2c13.3-6.7,45.9-26.8,5.3-35.4C443.6,488.2,379.2,535,369.9,537.8
						z"/>
					<path class="st14" d="M395.9,543c-40.7,2.7-25.2-17.8-22.9-18.9c27-13.7,54.9-35.3,9.5-41.8c47,2.4,30.8,46.2,0.5,52.5
						C379.7,535.4,379.5,535.8,395.9,543z"/>
					<path class="st16" d="M395.9,543c-29.6,0.9-18-8.9-11.7-12.1c30.3-15.1,27.6-30.4,23.3-39.5C430.5,527.9,385.5,527.1,395.9,543
						z"/>
					<path class="st16" d="M409.8,494.6c55.9,34.6-19,38.1-14.5,48.4c5.3-5.9,49.6,1.6,43.5-22.4
						C435.9,509.3,412.9,496.2,409.8,494.6z"/>
					<path class="st15" d="M409.6,494.6c27.5,23.4-14.4,38.2-14.5,47C405,528.4,457.1,521.9,409.6,494.6z"/>
					<path class="st14" d="M355.7,512c13.3-6.7,54-16.2,26.7-29.8C388.8,492.7,375.2,501.2,355.7,512z"/>
				</g>
				<path class="st17" d="M396.2,530.6c24.5-15.7,15.6-30.1,11.3-39.2c20.1,31.9-11.8,35.3-13.1,46.2
					C394.2,539.3,390.1,534.5,396.2,530.6z"/>
				<path class="st17" d="M397.7,538.8c-2,1.3-3.1,2.7-2.5,4.2c4.6-5.2,39-0.1,43.6-14.7C430.9,536.8,408.9,536.9,397.7,538.8z"/>
			</g>
		</g>
		<g>
			
				<radialGradient id="SVGID_34_" cx="814.9455" cy="522.6196" r="36.6975" gradientTransform="matrix(0.9579 0 0 0.9579 28.6943 31.2744)" gradientUnits="userSpaceOnUse">
				<stop  offset="0.5582" style="stop-color:#3D150B"/>
				<stop  offset="1" style="stop-color:#340D07"/>
			</radialGradient>
			<path class="st42" d="M763.4,522.3c-12,10.3,17.3,11.5,24.3,14.4c3.1,3.2,10.5,5.5,25.7,4.5c-0.1-0.1-0.1-0.3-0.2-0.4
				c6.5-4.8,57.3-3.7,42.1-17.9L763.4,522.3z"/>
			<g>
				<g>
					<path class="st14" d="M827.2,488.9c6.1,11.1-9.6,36.3-26.7,47.3c13.7,2.9,13.9-2.4,19.8-3C874.4,527.5,846.3,498.9,827.2,488.9
						z"/>
					<path class="st15" d="M768.7,524.1c-9.5-1.1-4.8-13.2,4.5-17.8c13.3-6.7,52.3-17.1,26.7-29.8
						C847.7,478.3,804.9,528.2,768.7,524.1z"/>
					<path class="st14" d="M768.7,524.1c-4-0.5-5.5-2.9-5.1-6c0.5-4.1-0.5,2.9,12.9-2.3c21.4-8.3,57.5-26.1,23.5-39.3
						C847.7,478.3,804.9,528.2,768.7,524.1z"/>
					<path class="st16" d="M763.6,518.1c0.5,3.4,3.5,6.2,16.5,0.3c28.3-12.9,56.8-33.4,19.8-41.9c44,1.7,23.1,53.9-10.7,57.1
						C784,529.3,760.2,533,763.6,518.1z"/>
					<path class="st17" d="M787,527.1c-4.5,1-9,1.2-13.6,0.2c-3.6-0.8-7-2.3-9.8-4.3c2.5,9.2,21.1,6.9,25.7,10.7
						c1.6-0.2,3.2-0.4,4.8-0.8C790.9,531.6,788.6,529.6,787,527.1z"/>
					<path class="st15" d="M787.3,532.1c-7.4-8.2-1.9-15.6,7.3-20.2c13.3-6.7,45.9-26.8,5.3-35.4
						C861.1,482.5,796.6,529.3,787.3,532.1z"/>
					<path class="st14" d="M813.4,537.3c-40.7,2.7-25.2-17.8-22.9-18.9c27-13.7,54.9-35.3,9.5-41.8c47,2.4,30.8,46.2,0.5,52.5
						C797.2,529.7,797,530.1,813.4,537.3z"/>
					<path class="st16" d="M813.4,537.3c-29.6,0.9-18-8.9-11.7-12.1c30.3-15,27.6-30.4,23.3-39.5C848,522.2,803,521.4,813.4,537.3z"
						/>
					<path class="st16" d="M827.2,488.9c55.9,34.6-19,38.1-14.5,48.4c5.3-5.9,49.6,1.6,43.5-22.4
						C853.3,503.6,830.3,490.5,827.2,488.9z"/>
					<path class="st15" d="M827.1,488.9c27.5,23.4-14.4,38.2-14.5,47C822.5,522.7,874.6,516.2,827.1,488.9z"/>
					<path class="st14" d="M773.2,506.3c13.3-6.7,54-16.2,26.7-29.8C806.2,487,792.7,495.5,773.2,506.3z"/>
				</g>
				<path class="st17" d="M813.7,524.9c24.5-15.7,15.6-30.1,11.3-39.2c20.1,31.9-11.8,35.3-13.1,46.2
					C811.7,533.6,807.6,528.8,813.7,524.9z"/>
				<path class="st17" d="M815.2,533.1c-2,1.3-3.1,2.7-2.5,4.2c4.6-5.2,39-0.1,43.6-14.7C848.4,531.1,826.3,531.2,815.2,533.1z"/>
			</g>
		</g>
		<g>
			
				<radialGradient id="SVGID_35_" cx="458.7703" cy="539.5219" r="36.6975" gradientTransform="matrix(0.9579 0 0 0.9579 28.6943 31.2744)" gradientUnits="userSpaceOnUse">
				<stop  offset="0.5582" style="stop-color:#3D150B"/>
				<stop  offset="1" style="stop-color:#340D07"/>
			</radialGradient>
			<path class="st43" d="M422.2,538.5c-12,10.3,17.3,11.5,24.3,14.4c3.1,3.2,10.5,5.5,25.7,4.5c-0.1-0.1-0.1-0.3-0.2-0.4
				c6.5-4.8,57.3-3.7,42.1-17.9L422.2,538.5z"/>
			<g>
				<g>
					<path class="st14" d="M486,505.1c6.1,11.1-9.6,36.3-26.7,47.3c13.7,2.9,13.9-2.4,19.8-3C533.2,543.7,505.1,515.1,486,505.1z"/>
					<path class="st15" d="M427.6,540.3c-9.5-1.1-4.8-13.2,4.5-17.8c13.3-6.7,52.3-17.1,26.7-29.8
						C506.5,494.5,463.7,544.4,427.6,540.3z"/>
					<path class="st14" d="M427.6,540.3c-4-0.5-5.5-2.9-5.1-6c0.5-4.1-0.5,2.9,12.9-2.3c21.4-8.3,57.5-26.1,23.5-39.3
						C506.5,494.5,463.7,544.4,427.6,540.3z"/>
					<path class="st16" d="M422.4,534.3c0.5,3.4,3.5,6.2,16.5,0.3c28.3-12.9,56.8-33.4,19.8-41.9c44,1.7,23.1,53.9-10.7,57.1
						C442.8,545.5,419.1,549.2,422.4,534.3z"/>
					<path class="st17" d="M445.8,543.2c-4.5,1-9,1.2-13.6,0.2c-3.6-0.8-7-2.3-9.8-4.3c2.5,9.2,21.1,6.9,25.7,10.7
						c1.6-0.2,3.2-0.4,4.8-0.8C449.8,547.8,447.4,545.8,445.8,543.2z"/>
					<path class="st15" d="M446.2,548.3c-7.4-8.2-1.9-15.6,7.3-20.2c13.3-6.7,45.9-26.8,5.3-35.4
						C519.9,498.7,455.5,545.5,446.2,548.3z"/>
					<path class="st14" d="M472.2,553.5c-40.7,2.7-25.2-17.8-22.9-18.9c27-13.7,54.9-35.3,9.5-41.8c47,2.4,30.8,46.2,0.5,52.5
						C456,545.9,455.8,546.3,472.2,553.5z"/>
					<path class="st16" d="M472.2,553.5c-29.6,0.9-18-8.9-11.7-12.1c30.3-15.1,27.6-30.4,23.3-39.5
						C506.8,538.4,461.8,537.6,472.2,553.5z"/>
					<path class="st16" d="M486,505.1c55.9,34.6-19,38.1-14.5,48.4c5.3-5.9,49.6,1.6,43.5-22.4C512.2,519.7,489.1,506.7,486,505.1z"
						/>
					<path class="st15" d="M485.9,505.1c27.5,23.4-14.4,38.2-14.5,47C481.3,538.8,533.4,532.4,485.9,505.1z"/>
					<path class="st14" d="M432,522.5c13.3-6.7,54-16.2,26.7-29.8C465.1,503.2,451.5,511.7,432,522.5z"/>
				</g>
				<path class="st17" d="M472.5,541.1c24.5-15.7,15.6-30.1,11.3-39.2c20.1,31.9-11.8,35.3-13.1,46.2
					C470.5,549.8,466.4,545,472.5,541.1z"/>
				<path class="st17" d="M474,549.3c-2,1.3-3.1,2.7-2.5,4.2c4.6-5.2,39-0.1,43.6-14.7C507.2,547.3,485.2,547.4,474,549.3z"/>
			</g>
		</g>
		<g>
			
				<radialGradient id="SVGID_36_" cx="735.688" cy="537.7174" r="36.6977" gradientTransform="matrix(0.9579 0 0 0.9579 28.6943 31.2744)" gradientUnits="userSpaceOnUse">
				<stop  offset="0.5582" style="stop-color:#3D150B"/>
				<stop  offset="1" style="stop-color:#340D07"/>
			</radialGradient>
			<path class="st44" d="M687.5,536.8c-12,10.3,17.3,11.5,24.3,14.4c3.1,3.2,10.5,5.5,25.7,4.5c-0.1-0.1-0.1-0.3-0.2-0.4
				c6.5-4.8,57.3-3.7,42.1-17.9L687.5,536.8z"/>
			<g>
				<g>
					<path class="st14" d="M751.3,503.3c6.1,11.1-9.6,36.3-26.7,47.3c13.7,2.9,13.9-2.4,19.8-3C798.5,541.9,770.4,513.4,751.3,503.3
						z"/>
					<path class="st15" d="M692.8,538.5c-9.5-1.1-4.8-13.2,4.5-17.8c13.3-6.7,52.3-17.1,26.7-29.8
						C771.8,492.8,729,542.7,692.8,538.5z"/>
					<path class="st14" d="M692.8,538.5c-4-0.5-5.5-2.9-5.1-6c0.5-4.1-0.5,2.9,12.9-2.3C721.9,522,758,504.2,724,491
						C771.8,492.8,729,542.7,692.8,538.5z"/>
					<path class="st16" d="M687.7,532.6c0.5,3.4,3.5,6.2,16.5,0.3C732.5,520,761,499.5,724,491c44,1.7,23.1,53.9-10.7,57.1
						C708,543.8,684.3,547.5,687.7,532.6z"/>
					<path class="st17" d="M711,541.5c-4.5,1-9,1.2-13.6,0.2c-3.6-0.8-7-2.3-9.8-4.3c2.5,9.2,21.1,6.9,25.7,10.7
						c1.6-0.2,3.2-0.4,4.8-0.8C715,546.1,712.7,544,711,541.5z"/>
					<path class="st15" d="M711.4,546.5c-7.4-8.2-1.9-15.6,7.3-20.2c13.3-6.7,45.9-26.8,5.3-35.4C785.1,497,720.7,543.8,711.4,546.5
						z"/>
					<path class="st14" d="M737.5,551.7c-40.7,2.7-25.2-17.8-22.9-18.9c27-13.7,54.9-35.3,9.5-41.8c47,2.4,30.8,46.2,0.5,52.5
						C721.2,544.2,721,544.6,737.5,551.7z"/>
					<path class="st16" d="M737.5,551.7c-29.6,0.9-18-8.9-11.7-12.1c30.3-15.1,27.6-30.4,23.3-39.5
						C772,536.7,727.1,535.8,737.5,551.7z"/>
					<path class="st16" d="M751.3,503.3c55.9,34.6-19,38.1-14.5,48.4c5.3-5.9,49.6,1.6,43.5-22.4C777.4,518,754.4,504.9,751.3,503.3
						z"/>
					<path class="st15" d="M751.2,503.4c27.5,23.4-14.4,38.2-14.5,47C746.6,537.1,798.7,530.7,751.2,503.4z"/>
					<path class="st14" d="M697.3,520.8c13.3-6.7,54-16.2,26.7-29.8C730.3,501.5,716.7,510,697.3,520.8z"/>
				</g>
				<path class="st17" d="M737.8,539.4c24.5-15.7,15.6-30.1,11.3-39.2c20.1,31.9-11.8,35.3-13.1,46.2
					C735.8,548,731.7,543.3,737.8,539.4z"/>
				<path class="st17" d="M739.2,547.6c-2,1.3-3.1,2.7-2.4,4.2c4.6-5.2,39-0.1,43.6-14.7C772.4,545.6,750.4,545.7,739.2,547.6z"/>
			</g>
		</g>
		<g>
			
				<radialGradient id="SVGID_37_" cx="549.551" cy="543.618" r="36.6977" gradientTransform="matrix(0.9579 0 0 0.9579 28.6943 31.2744)" gradientUnits="userSpaceOnUse">
				<stop  offset="0.5582" style="stop-color:#3D150B"/>
				<stop  offset="1" style="stop-color:#340D07"/>
			</radialGradient>
			<path class="st45" d="M509.2,542.4c-12,10.3,17.3,11.5,24.3,14.4c3.1,3.2,10.5,5.5,25.7,4.5c-0.1-0.1-0.1-0.3-0.2-0.4
				c6.5-4.8,57.3-3.7,42.1-17.9L509.2,542.4z"/>
			<g>
				<g>
					<path class="st14" d="M573,509c6.1,11.1-9.6,36.3-26.7,47.3c13.7,2.9,13.9-2.4,19.8-3C620.2,547.6,592.1,519,573,509z"/>
					<path class="st15" d="M514.5,544.2c-9.5-1.1-4.8-13.2,4.5-17.8c13.3-6.7,52.3-17.1,26.7-29.8
						C593.5,498.4,550.7,548.3,514.5,544.2z"/>
					<path class="st14" d="M514.5,544.2c-4-0.5-5.5-2.9-5.1-6c0.5-4.1-0.5,2.9,12.9-2.3c21.4-8.3,57.5-26.1,23.5-39.3
						C593.5,498.4,550.7,548.3,514.5,544.2z"/>
					<path class="st16" d="M509.4,538.2c0.5,3.4,3.5,6.2,16.5,0.3c28.3-12.9,56.8-33.4,19.8-41.9c44,1.7,23.1,53.9-10.7,57.1
						C529.7,549.5,506,553.1,509.4,538.2z"/>
					<path class="st17" d="M532.7,547.2c-4.5,1-9,1.2-13.6,0.2c-3.6-0.8-7-2.3-9.8-4.3c2.5,9.2,21.1,6.9,25.7,10.7
						c1.6-0.2,3.2-0.4,4.8-0.8C536.7,551.7,534.4,549.7,532.7,547.2z"/>
					<path class="st15" d="M533.1,552.2c-7.4-8.2-1.9-15.6,7.3-20.2c13.3-6.7,45.9-26.8,5.3-35.4
						C606.8,502.6,542.4,549.4,533.1,552.2z"/>
					<path class="st14" d="M559.2,557.4c-40.7,2.7-25.2-17.8-22.9-18.9c27-13.7,54.9-35.3,9.5-41.8c47,2.4,30.8,46.2,0.5,52.5
						C542.9,549.8,542.7,550.3,559.2,557.4z"/>
					<path class="st16" d="M559.2,557.4c-29.6,0.9-18-8.9-11.7-12.1c30.3-15.1,27.6-30.4,23.3-39.5
						C593.7,542.4,548.8,541.5,559.2,557.4z"/>
					<path class="st16" d="M573,509c55.9,34.6-19,38.1-14.5,48.4c5.3-5.9,49.6,1.6,43.5-22.4C599.1,523.7,576.1,510.6,573,509z"/>
					<path class="st15" d="M572.9,509c27.5,23.4-14.4,38.2-14.5,47C568.3,542.8,620.4,536.4,572.9,509z"/>
					<path class="st14" d="M519,526.4c13.3-6.7,54-16.2,26.7-29.8C552,507.1,538.4,515.6,519,526.4z"/>
				</g>
				<path class="st17" d="M559.5,545c24.5-15.7,15.6-30.1,11.3-39.2c20.1,31.9-11.8,35.3-13.1,46.2
					C557.5,553.7,553.4,548.9,559.5,545z"/>
				<path class="st17" d="M560.9,553.2c-2,1.3-3.1,2.7-2.4,4.2c4.6-5.2,39-0.1,43.6-14.7C594.1,551.2,572.1,551.3,560.9,553.2z"/>
			</g>
		</g>
		<g>
			
				<radialGradient id="SVGID_38_" cx="642.1237" cy="543.8729" r="36.6977" gradientTransform="matrix(0.9579 0 0 0.9579 28.6943 31.2744)" gradientUnits="userSpaceOnUse">
				<stop  offset="0.5582" style="stop-color:#3D150B"/>
				<stop  offset="1" style="stop-color:#340D07"/>
			</radialGradient>
			<path class="st46" d="M597.9,542.7c-12,10.3,17.3,11.5,24.3,14.4c3.1,3.2,10.5,5.5,25.7,4.5c-0.1-0.1-0.1-0.3-0.2-0.4
				c6.5-4.8,57.3-3.7,42.1-17.9L597.9,542.7z"/>
			<g>
				<g>
					<path class="st14" d="M661.7,509.2c6.1,11.1-9.6,36.3-26.7,47.3c13.7,2.9,13.9-2.4,19.8-3C708.9,547.8,680.8,519.3,661.7,509.2
						z"/>
					<path class="st15" d="M603.2,544.4c-9.5-1.1-4.8-13.2,4.5-17.8c13.3-6.7,52.3-17.1,26.7-29.8
						C682.2,498.7,639.4,548.6,603.2,544.4z"/>
					<path class="st14" d="M603.2,544.4c-4-0.5-5.5-2.9-5.1-6c0.5-4.1-0.5,2.9,12.9-2.3c21.4-8.3,57.5-26.1,23.5-39.3
						C682.2,498.7,639.4,548.6,603.2,544.4z"/>
					<path class="st16" d="M598.1,538.5c0.5,3.4,3.5,6.2,16.5,0.3c28.3-12.9,56.8-33.4,19.8-41.9c44,1.7,23.1,53.9-10.7,57.1
						C618.4,549.7,594.7,553.4,598.1,538.5z"/>
					<path class="st17" d="M621.4,547.4c-4.5,1-9,1.2-13.6,0.2c-3.6-0.8-7-2.3-9.8-4.3c2.5,9.2,21.1,6.9,25.7,10.7
						c1.6-0.2,3.2-0.4,4.8-0.8C625.4,551.9,623.1,549.9,621.4,547.4z"/>
					<path class="st15" d="M621.8,552.4c-7.4-8.2-1.9-15.6,7.3-20.2c13.3-6.7,45.9-26.8,5.3-35.4
						C695.5,502.9,631.1,549.7,621.8,552.4z"/>
					<path class="st14" d="M647.9,557.6c-40.7,2.7-25.2-17.8-22.9-18.9c27-13.7,54.9-35.3,9.5-41.8c47,2.4,30.8,46.2,0.5,52.5
						C631.6,550.1,631.4,550.5,647.9,557.6z"/>
					<path class="st16" d="M647.9,557.6c-29.6,0.9-18-8.9-11.7-12.1c30.3-15,27.6-30.4,23.3-39.5
						C682.4,542.6,637.5,541.7,647.9,557.6z"/>
					<path class="st16" d="M661.7,509.2c55.9,34.6-19,38.1-14.5,48.4c5.3-5.9,49.6,1.6,43.5-22.4
						C687.8,523.9,664.8,510.8,661.7,509.2z"/>
					<path class="st15" d="M661.5,509.3c27.5,23.4-14.4,38.2-14.5,47C657,543,709,536.6,661.5,509.3z"/>
					<path class="st14" d="M607.7,526.7c13.3-6.7,54-16.2,26.7-29.8C640.7,507.4,627.1,515.9,607.7,526.7z"/>
				</g>
				<path class="st17" d="M648.2,545.3c24.5-15.7,15.6-30.1,11.3-39.2c20.1,31.9-11.8,35.3-13.1,46.2
					C646.1,553.9,642.1,549.2,648.2,545.3z"/>
				<path class="st17" d="M649.6,553.5c-2,1.3-3.1,2.7-2.4,4.2c4.6-5.2,39-0.1,43.6-14.7C682.8,551.5,660.8,551.6,649.6,553.5z"/>
			</g>
		</g>
		<g>
			
				<radialGradient id="SVGID_39_" cx="230.1255" cy="709.0984" r="36.6977" gradientTransform="matrix(0.9579 0 0 0.9579 28.6943 31.2744)" gradientUnits="userSpaceOnUse">
				<stop  offset="0.5582" style="stop-color:#3D150B"/>
				<stop  offset="1" style="stop-color:#340D07"/>
			</radialGradient>
			<path class="st47" d="M203.2,700.9c-12,10.3,17.3,11.5,24.3,14.4c3.1,3.2,10.5,5.5,25.7,4.5c-0.1-0.1-0.1-0.3-0.2-0.4
				c6.5-4.8,57.3-3.7,42.1-17.9L203.2,700.9z"/>
			<g>
				<g>
					<path class="st14" d="M267,667.5c6.1,11.1-9.6,36.3-26.7,47.3c13.7,2.9,13.9-2.4,19.8-3C314.2,706.1,286.1,677.6,267,667.5z"/>
					<path class="st15" d="M208.5,702.7c-9.5-1.1-4.8-13.2,4.5-17.8c13.3-6.7,52.3-17.1,26.7-29.8
						C287.5,657,244.7,706.8,208.5,702.7z"/>
					<path class="st14" d="M208.5,702.7c-4-0.5-5.5-2.9-5.1-6c0.5-4.1-0.5,2.9,12.9-2.3c21.4-8.3,57.5-26.1,23.5-39.3
						C287.5,657,244.7,706.8,208.5,702.7z"/>
					<path class="st16" d="M203.4,696.8c0.5,3.4,3.5,6.2,16.5,0.3c28.3-12.9,56.8-33.4,19.8-41.9c44,1.7,23.1,53.9-10.7,57.1
						C223.8,708,200,711.6,203.4,696.8z"/>
					<path class="st17" d="M226.8,705.7c-4.5,1-9,1.2-13.6,0.2c-3.6-0.8-7-2.3-9.8-4.3c2.5,9.2,21.1,6.9,25.7,10.7
						c1.6-0.2,3.2-0.4,4.8-0.8C230.7,710.2,228.4,708.2,226.8,705.7z"/>
					<path class="st15" d="M227.1,710.7c-7.4-8.2-1.9-15.6,7.3-20.2c13.3-6.7,45.9-26.8,5.3-35.4
						C300.9,661.1,236.4,707.9,227.1,710.7z"/>
					<path class="st14" d="M253.2,715.9c-40.7,2.7-25.2-17.8-22.9-18.9c27-13.7,54.9-35.3,9.5-41.8c47,2.4,30.8,46.2,0.5,52.5
						C237,708.4,236.8,708.8,253.2,715.9z"/>
					<path class="st16" d="M253.2,715.9c-29.6,0.9-18-8.9-11.7-12.1c30.3-15,27.6-30.4,23.3-39.5C287.8,700.9,242.8,700,253.2,715.9
						z"/>
					<path class="st16" d="M267,667.5c55.9,34.6-19,38.1-14.5,48.4c5.3-5.9,49.6,1.6,43.5-22.4C293.1,682.2,270.1,669.1,267,667.5z"
						/>
					<path class="st15" d="M266.9,667.5c27.5,23.4-14.4,38.2-14.5,47C262.3,701.3,314.4,694.9,266.9,667.5z"/>
					<path class="st14" d="M213,684.9c13.3-6.7,54-16.2,26.7-29.8C246.1,665.7,232.5,674.2,213,684.9z"/>
				</g>
				<path class="st17" d="M253.5,703.5c24.5-15.7,15.6-30.1,11.3-39.2c20.1,31.9-11.8,35.3-13.1,46.2
					C251.5,712.2,247.4,707.4,253.5,703.5z"/>
				<path class="st17" d="M255,711.7c-2,1.3-3.1,2.7-2.5,4.2c4.6-5.2,39-0.1,43.6-14.7C288.2,709.8,266.1,709.8,255,711.7z"/>
			</g>
		</g>
		<g>
			
				<radialGradient id="SVGID_40_" cx="967.9569" cy="710.9821" r="36.6977" gradientTransform="matrix(0.9579 0 0 0.9579 28.6943 31.2744)" gradientUnits="userSpaceOnUse">
				<stop  offset="0.5582" style="stop-color:#3D150B"/>
				<stop  offset="1" style="stop-color:#340D07"/>
			</radialGradient>
			<path class="st48" d="M910,702.8c-12,10.3,17.3,11.5,24.3,14.4c3.1,3.2,10.5,5.5,25.7,4.5c-0.1-0.1-0.1-0.3-0.2-0.4
				c6.5-4.8,57.3-3.7,42.1-17.9L910,702.8z"/>
			<g>
				<g>
					<path class="st14" d="M973.8,669.3c6.1,11.1-9.6,36.3-26.7,47.3c13.7,2.9,13.9-2.4,19.8-3C1021,707.9,992.9,679.4,973.8,669.3z
						"/>
					<path class="st15" d="M915.3,704.5c-9.5-1.1-4.8-13.2,4.5-17.8c13.3-6.7,52.3-17.1,26.7-29.8
						C994.3,658.8,951.5,708.6,915.3,704.5z"/>
					<path class="st14" d="M915.3,704.5c-4-0.5-5.5-2.9-5.1-6c0.5-4.1-0.5,2.9,12.9-2.3c21.4-8.3,57.5-26.1,23.5-39.3
						C994.3,658.8,951.5,708.6,915.3,704.5z"/>
					<path class="st16" d="M910.2,698.6c0.5,3.4,3.5,6.2,16.5,0.3c28.3-12.9,56.8-33.4,19.8-41.9c44,1.7,23.1,53.9-10.7,57.1
						C930.5,709.8,906.8,713.4,910.2,698.6z"/>
					<path class="st17" d="M933.5,707.5c-4.5,1-9,1.2-13.6,0.2c-3.6-0.8-7-2.3-9.8-4.3c2.5,9.2,21.1,6.9,25.7,10.7
						c1.6-0.2,3.2-0.4,4.8-0.8C937.5,712,935.2,710,933.5,707.5z"/>
					<path class="st15" d="M933.9,712.5c-7.4-8.2-1.9-15.6,7.3-20.2c13.3-6.7,45.9-26.8,5.3-35.4
						C1007.6,662.9,943.2,709.7,933.9,712.5z"/>
					<path class="st14" d="M960,717.7c-40.7,2.7-25.2-17.8-22.9-18.9c27-13.7,54.9-35.3,9.5-41.8c47,2.4,30.8,46.2,0.5,52.5
						C943.7,710.2,943.5,710.6,960,717.7z"/>
					<path class="st16" d="M960,717.7c-29.6,0.9-18-8.9-11.7-12.1c30.3-15,27.6-30.4,23.3-39.5C994.5,702.7,949.6,701.8,960,717.7z"
						/>
					<path class="st16" d="M973.8,669.3c55.9,34.6-19,38.1-14.5,48.4c5.3-5.9,49.6,1.6,43.5-22.4C999.9,684,976.9,670.9,973.8,669.3
						z"/>
					<path class="st15" d="M973.7,669.4c27.5,23.4-14.4,38.2-14.5,47C969.1,703.1,1021.2,696.7,973.7,669.4z"/>
					<path class="st14" d="M919.8,686.7c13.3-6.7,54-16.2,26.7-29.8C952.8,667.5,939.2,676,919.8,686.7z"/>
				</g>
				<path class="st17" d="M960.3,705.3c24.5-15.7,15.6-30.1,11.3-39.2c20.1,31.9-11.8,35.3-13.1,46.2
					C958.2,714,954.2,709.2,960.3,705.3z"/>
				<path class="st17" d="M961.7,713.6c-2,1.3-3.1,2.7-2.4,4.2c4.6-5.2,39-0.1,43.6-14.7C994.9,711.6,972.9,711.6,961.7,713.6z"/>
			</g>
		</g>
		<g>
			
				<radialGradient id="SVGID_41_" cx="920.2911" cy="736.114" r="36.6977" gradientTransform="matrix(0.9579 0 0 0.9579 28.6943 31.2744)" gradientUnits="userSpaceOnUse">
				<stop  offset="0.5582" style="stop-color:#3D150B"/>
				<stop  offset="1" style="stop-color:#340D07"/>
			</radialGradient>
			<path class="st49" d="M864.3,726.8c-12,10.3,17.3,11.5,24.3,14.4c3.1,3.2,10.5,5.5,25.7,4.5c-0.1-0.1-0.1-0.3-0.2-0.4
				c6.5-4.8,57.3-3.7,42.1-17.9L864.3,726.8z"/>
			<g>
				<g>
					<path class="st14" d="M928.1,693.4c6.1,11.1-9.6,36.3-26.7,47.3c13.7,2.9,13.9-2.4,19.8-3C975.3,732,947.2,703.4,928.1,693.4z"
						/>
					<path class="st15" d="M869.6,728.6c-9.5-1.1-4.8-13.2,4.5-17.8c13.3-6.7,52.3-17.1,26.7-29.8
						C948.6,682.8,905.8,732.7,869.6,728.6z"/>
					<path class="st14" d="M869.6,728.6c-4-0.5-5.5-2.9-5.1-6c0.5-4.1-0.5,2.9,12.9-2.3c21.4-8.3,57.5-26.1,23.5-39.3
						C948.6,682.8,905.8,732.7,869.6,728.6z"/>
					<path class="st16" d="M864.5,722.6c0.5,3.4,3.5,6.2,16.5,0.3c28.3-12.9,56.8-33.4,19.8-41.9c44,1.7,23.1,53.9-10.7,57.1
						C884.9,733.9,861.2,737.5,864.5,722.6z"/>
					<path class="st17" d="M887.9,731.6c-4.5,1-9,1.2-13.6,0.2c-3.6-0.8-7-2.3-9.8-4.3c2.5,9.2,21.1,6.9,25.7,10.7
						c1.6-0.2,3.2-0.4,4.8-0.8C891.9,736.1,889.5,734.1,887.9,731.6z"/>
					<path class="st15" d="M888.3,736.6c-7.4-8.2-1.9-15.6,7.3-20.2c13.3-6.7,45.9-26.8,5.3-35.4C962,687,897.5,733.8,888.3,736.6z"
						/>
					<path class="st14" d="M914.3,741.8c-40.7,2.7-25.2-17.8-22.9-18.9c27-13.7,54.9-35.3,9.5-41.8c47,2.4,30.8,46.2,0.5,52.5
						C898.1,734.2,897.9,734.6,914.3,741.8z"/>
					<path class="st16" d="M914.3,741.8c-29.6,0.9-18-8.9-11.7-12.1c30.3-15,27.6-30.4,23.3-39.5
						C948.9,726.7,903.9,725.9,914.3,741.8z"/>
					<path class="st16" d="M928.1,693.4c55.9,34.6-19,38.1-14.5,48.4c5.3-5.9,49.6,1.6,43.5-22.4C954.3,708.1,931.2,695,928.1,693.4
						z"/>
					<path class="st15" d="M928,693.4c27.5,23.4-14.4,38.2-14.5,47C923.4,727.2,975.5,720.7,928,693.4z"/>
					<path class="st14" d="M874.1,710.8c13.3-6.7,54-16.2,26.7-29.8C907.2,691.5,893.6,700,874.1,710.8z"/>
				</g>
				<path class="st17" d="M914.6,729.4c24.5-15.7,15.6-30.1,11.3-39.2c20.1,31.9-11.8,35.3-13.1,46.2
					C912.6,738.1,908.5,733.3,914.6,729.4z"/>
				<path class="st17" d="M916.1,737.6c-2,1.3-3.1,2.7-2.4,4.2c4.6-5.2,39-0.1,43.6-14.7C949.3,735.6,927.2,735.7,916.1,737.6z"/>
			</g>
		</g>
		<g>
			
				<radialGradient id="SVGID_42_" cx="278.9915" cy="739.8933" r="36.6975" gradientTransform="matrix(0.9579 0 0 0.9579 28.6943 31.2744)" gradientUnits="userSpaceOnUse">
				<stop  offset="0.5582" style="stop-color:#3D150B"/>
				<stop  offset="1" style="stop-color:#340D07"/>
			</radialGradient>
			<path class="st50" d="M250,730.4c-12,10.3,17.3,11.5,24.3,14.4c3.1,3.2,10.5,5.5,25.7,4.5c-0.1-0.1-0.1-0.3-0.2-0.4
				c6.5-4.8,57.3-3.7,42.1-17.9L250,730.4z"/>
			<g>
				<g>
					<path class="st14" d="M313.8,697c6.1,11.1-9.6,36.3-26.7,47.3c13.7,2.9,13.9-2.4,19.8-3C361,735.6,332.9,707.1,313.8,697z"/>
					<path class="st15" d="M255.3,732.2c-9.5-1.1-4.8-13.2,4.5-17.8c13.3-6.7,52.3-17.1,26.7-29.8
						C334.3,686.5,291.5,736.3,255.3,732.2z"/>
					<path class="st14" d="M255.3,732.2c-4-0.5-5.5-2.9-5.1-6c0.5-4.1-0.5,2.9,12.9-2.3c21.4-8.3,57.5-26.1,23.5-39.3
						C334.3,686.5,291.5,736.3,255.3,732.2z"/>
					<path class="st16" d="M250.2,726.3c0.5,3.4,3.5,6.2,16.5,0.3c28.3-12.9,56.8-33.4,19.8-41.9c44,1.7,23.1,53.9-10.7,57.1
						C270.6,737.5,246.9,741.1,250.2,726.3z"/>
					<path class="st17" d="M273.6,735.2c-4.5,1-9,1.2-13.6,0.2c-3.6-0.8-7-2.3-9.8-4.3c2.5,9.2,21.1,6.9,25.7,10.7
						c1.6-0.2,3.2-0.4,4.8-0.8C277.6,739.7,275.2,737.7,273.6,735.2z"/>
					<path class="st15" d="M274,740.2c-7.4-8.2-1.9-15.6,7.3-20.2c13.3-6.7,45.9-26.8,5.3-35.4C347.7,690.6,283.2,737.4,274,740.2z"
						/>
					<path class="st14" d="M300,745.4c-40.7,2.7-25.2-17.8-22.9-18.9c27-13.7,54.9-35.3,9.5-41.8c47,2.4,30.8,46.2,0.5,52.5
						C283.8,737.9,283.6,738.3,300,745.4z"/>
					<path class="st16" d="M300,745.4c-29.6,0.9-18-8.9-11.7-12.1c30.3-15.1,27.6-30.4,23.3-39.5C334.6,730.4,289.6,729.5,300,745.4
						z"/>
					<path class="st16" d="M313.8,697c55.9,34.6-19,38.1-14.5,48.4c5.3-5.9,49.6,1.6,43.5-22.4C340,711.7,316.9,698.6,313.8,697z"/>
					<path class="st15" d="M313.7,697c27.5,23.4-14.4,38.2-14.5,47C309.1,730.8,361.2,724.4,313.7,697z"/>
					<path class="st14" d="M259.8,714.4c13.3-6.7,54-16.2,26.7-29.8C292.9,695.2,279.3,703.7,259.8,714.4z"/>
				</g>
				<path class="st17" d="M300.3,733c24.5-15.7,15.6-30.1,11.3-39.2c20.1,31.9-11.8,35.3-13.1,46.2
					C298.3,741.7,294.2,736.9,300.3,733z"/>
				<path class="st17" d="M301.8,741.2c-2,1.3-3.1,2.7-2.5,4.2c4.6-5.2,39-0.1,43.6-14.7C335,739.2,312.9,739.3,301.8,741.2z"/>
			</g>
		</g>
		<g>
			
				<radialGradient id="SVGID_43_" cx="850.447" cy="753.8403" r="36.6977" gradientTransform="matrix(0.9579 0 0 0.9579 28.6943 31.2744)" gradientUnits="userSpaceOnUse">
				<stop  offset="0.5582" style="stop-color:#3D150B"/>
				<stop  offset="1" style="stop-color:#340D07"/>
			</radialGradient>
			<path class="st51" d="M797.4,743.8c-12,10.3,17.3,11.5,24.3,14.4c3.1,3.2,10.5,5.5,25.7,4.5c-0.1-0.1-0.1-0.3-0.2-0.4
				c6.5-4.8,57.3-3.7,42.1-17.9L797.4,743.8z"/>
			<g>
				<g>
					<path class="st14" d="M861.2,710.4c6.1,11.1-9.6,36.3-26.7,47.3c13.7,2.9,13.9-2.4,19.8-3C908.4,749,880.3,720.4,861.2,710.4z"
						/>
					<path class="st15" d="M802.7,745.6c-9.5-1.1-4.8-13.2,4.5-17.8c13.3-6.7,52.3-17.1,26.7-29.8
						C881.7,699.8,838.9,749.7,802.7,745.6z"/>
					<path class="st14" d="M802.7,745.6c-4-0.5-5.5-2.9-5.1-6c0.5-4.1-0.5,2.9,12.9-2.3c21.4-8.3,57.5-26.1,23.5-39.3
						C881.7,699.8,838.9,749.7,802.7,745.6z"/>
					<path class="st16" d="M797.6,739.6c0.5,3.4,3.5,6.2,16.5,0.3c28.3-12.9,56.8-33.4,19.8-41.9c44,1.7,23.1,53.9-10.7,57.1
						C818,750.8,794.2,754.5,797.6,739.6z"/>
					<path class="st17" d="M821,748.5c-4.5,1-9,1.2-13.6,0.2c-3.6-0.8-7-2.3-9.8-4.3c2.5,9.2,21.1,6.9,25.7,10.7
						c1.6-0.2,3.2-0.4,4.8-0.8C825,753.1,822.6,751.1,821,748.5z"/>
					<path class="st15" d="M821.3,753.6c-7.4-8.2-1.9-15.6,7.3-20.2c13.3-6.7,45.9-26.8,5.3-35.4C895.1,704,830.6,750.8,821.3,753.6
						z"/>
					<path class="st14" d="M847.4,758.8c-40.7,2.7-25.2-17.8-22.9-18.9c27-13.7,54.9-35.3,9.5-41.8c47,2.4,30.8,46.2,0.5,52.5
						C831.2,751.2,831,751.6,847.4,758.8z"/>
					<path class="st16" d="M847.4,758.8c-29.6,0.9-18-8.9-11.7-12.1c30.3-15,27.6-30.4,23.3-39.5C882,743.7,837,742.9,847.4,758.8z"
						/>
					<path class="st16" d="M861.2,710.4c55.9,34.6-19,38.1-14.5,48.4c5.3-5.9,49.6,1.6,43.5-22.4C887.3,725,864.3,712,861.2,710.4z"
						/>
					<path class="st15" d="M861.1,710.4c27.5,23.4-14.4,38.2-14.5,47C856.5,744.1,908.6,737.7,861.1,710.4z"/>
					<path class="st14" d="M807.2,727.8c13.3-6.7,54-16.2,26.7-29.8C840.3,708.5,826.7,717,807.2,727.8z"/>
				</g>
				<path class="st17" d="M847.7,746.4c24.5-15.7,15.6-30.1,11.3-39.2c20.1,31.9-11.8,35.3-13.1,46.2
					C845.7,755.1,841.6,750.3,847.7,746.4z"/>
				<path class="st17" d="M849.2,754.6c-2,1.3-3.1,2.7-2.4,4.2c4.6-5.2,39-0.1,43.6-14.7C882.4,752.6,860.3,752.7,849.2,754.6z"/>
			</g>
		</g>
		<g>
			
				<radialGradient id="SVGID_44_" cx="359.6198" cy="758.0681" r="36.6977" gradientTransform="matrix(0.9579 0 0 0.9579 28.6943 31.2744)" gradientUnits="userSpaceOnUse">
				<stop  offset="0.5582" style="stop-color:#3D150B"/>
				<stop  offset="1" style="stop-color:#340D07"/>
			</radialGradient>
			<path class="st52" d="M327.2,747.9c-12,10.3,17.3,11.5,24.3,14.4c3.1,3.2,10.5,5.5,25.7,4.5c-0.1-0.1-0.1-0.3-0.2-0.4
				c6.5-4.8,57.3-3.7,42.1-17.9L327.2,747.9z"/>
			<g>
				<g>
					<path class="st14" d="M391.1,714.4c6.1,11.1-9.6,36.3-26.7,47.3c13.7,2.9,13.9-2.4,19.8-3C438.3,753,410.2,724.5,391.1,714.4z"
						/>
					<path class="st15" d="M332.6,749.6c-9.5-1.1-4.8-13.2,4.5-17.8c13.3-6.7,52.3-17.1,26.7-29.8
						C411.5,703.9,368.7,753.8,332.6,749.6z"/>
					<path class="st14" d="M332.6,749.6c-4-0.5-5.5-2.9-5.1-6c0.5-4.1-0.5,2.9,12.9-2.3c21.4-8.3,57.5-26.1,23.5-39.3
						C411.5,703.9,368.7,753.8,332.6,749.6z"/>
					<path class="st16" d="M327.4,743.7c0.5,3.4,3.5,6.2,16.5,0.3c28.3-12.9,56.8-33.4,19.8-41.9c44,1.7,23.1,53.9-10.7,57.1
						C347.8,754.9,324.1,758.5,327.4,743.7z"/>
					<path class="st17" d="M350.8,752.6c-4.5,1-9,1.2-13.6,0.2c-3.6-0.8-7-2.3-9.8-4.3c2.5,9.2,21.1,6.9,25.7,10.7
						c1.6-0.2,3.2-0.4,4.8-0.8C354.8,757.1,352.4,755.1,350.8,752.6z"/>
					<path class="st15" d="M351.2,757.6c-7.4-8.2-1.9-15.6,7.3-20.2c13.3-6.7,45.9-26.8,5.3-35.4C424.9,708,360.5,754.8,351.2,757.6
						z"/>
					<path class="st14" d="M377.3,762.8c-40.7,2.7-25.2-17.8-22.9-18.9c27-13.7,54.9-35.3,9.5-41.8c47,2.4,30.8,46.2,0.5,52.5
						C361,755.3,360.8,755.7,377.3,762.8z"/>
					<path class="st16" d="M377.3,762.8c-29.6,0.9-18-8.9-11.7-12.1c30.3-15,27.6-30.4,23.3-39.5
						C411.8,747.8,366.9,746.9,377.3,762.8z"/>
					<path class="st16" d="M391.1,714.4c55.9,34.6-19,38.1-14.5,48.4c5.3-5.9,49.6,1.6,43.5-22.4C417.2,729.1,394.2,716,391.1,714.4
						z"/>
					<path class="st15" d="M390.9,714.5c27.5,23.4-14.4,38.2-14.5,47C386.4,748.2,438.4,741.8,390.9,714.5z"/>
					<path class="st14" d="M337.1,731.8c13.3-6.7,54-16.2,26.7-29.8C370.1,712.6,356.5,721.1,337.1,731.8z"/>
				</g>
				<path class="st17" d="M377.6,750.4c24.5-15.7,15.6-30.1,11.3-39.2c20.1,31.9-11.8,35.3-13.1,46.2
					C375.5,759.1,371.5,754.3,377.6,750.4z"/>
				<path class="st17" d="M379,758.7c-2,1.3-3.1,2.7-2.4,4.2c4.6-5.2,39-0.1,43.6-14.7C412.2,756.7,390.2,756.7,379,758.7z"/>
			</g>
		</g>
		<g>
			
				<radialGradient id="SVGID_45_" cx="757.9249" cy="766.2721" r="36.6977" gradientTransform="matrix(0.9579 0 0 0.9579 28.6943 31.2744)" gradientUnits="userSpaceOnUse">
				<stop  offset="0.5582" style="stop-color:#3D150B"/>
				<stop  offset="1" style="stop-color:#340D07"/>
			</radialGradient>
			<path class="st53" d="M708.8,755.7c-12,10.3,17.3,11.5,24.3,14.4c3.1,3.2,10.5,5.5,25.7,4.5c-0.1-0.1-0.1-0.3-0.2-0.4
				c6.5-4.8,57.3-3.7,42.1-17.9L708.8,755.7z"/>
			<g>
				<g>
					<path class="st14" d="M772.6,722.3c6.1,11.1-9.6,36.3-26.7,47.3c13.7,2.9,13.9-2.4,19.8-3C819.8,760.9,791.7,732.3,772.6,722.3
						z"/>
					<path class="st15" d="M714.1,757.5c-9.5-1.1-4.8-13.2,4.5-17.8c13.3-6.7,52.3-17.1,26.7-29.8
						C793.1,711.7,750.3,761.6,714.1,757.5z"/>
					<path class="st14" d="M714.1,757.5c-4-0.5-5.5-2.9-5.1-6c0.5-4.1-0.5,2.9,12.9-2.3c21.4-8.3,57.5-26.1,23.5-39.3
						C793.1,711.7,750.3,761.6,714.1,757.5z"/>
					<path class="st16" d="M709,751.5c0.5,3.4,3.5,6.2,16.5,0.3c28.3-12.9,56.8-33.4,19.8-41.9c44,1.7,23.1,53.9-10.7,57.1
						C729.3,762.7,705.6,766.4,709,751.5z"/>
					<path class="st17" d="M732.3,760.5c-4.5,1-9,1.2-13.6,0.2c-3.6-0.8-7-2.3-9.8-4.3c2.5,9.2,21.1,6.9,25.7,10.7
						c1.6-0.2,3.2-0.4,4.8-0.8C736.3,765,734,763,732.3,760.5z"/>
					<path class="st15" d="M732.7,765.5c-7.4-8.2-1.9-15.6,7.3-20.2c13.3-6.7,45.9-26.8,5.3-35.4C806.4,715.9,742,762.7,732.7,765.5
						z"/>
					<path class="st14" d="M758.8,770.7c-40.7,2.7-25.2-17.8-22.9-18.9c27-13.7,54.9-35.3,9.5-41.8c47,2.4,30.8,46.2,0.5,52.5
						C742.5,763.1,742.3,763.5,758.8,770.7z"/>
					<path class="st16" d="M758.8,770.7c-29.6,0.9-18-8.9-11.7-12.1c30.3-15,27.6-30.4,23.3-39.5
						C793.3,755.6,748.4,754.8,758.8,770.7z"/>
					<path class="st16" d="M772.6,722.3c55.9,34.6-19,38.1-14.5,48.4c5.3-5.9,49.6,1.6,43.5-22.4
						C798.7,736.9,775.7,723.9,772.6,722.3z"/>
					<path class="st15" d="M772.5,722.3c27.5,23.4-14.4,38.2-14.5,47C767.9,756.1,820,749.6,772.5,722.3z"/>
					<path class="st14" d="M718.6,739.7c13.3-6.7,54-16.2,26.7-29.8C751.6,720.4,738,728.9,718.6,739.7z"/>
				</g>
				<path class="st17" d="M759.1,758.3c24.5-15.7,15.6-30.1,11.3-39.2c20.1,31.9-11.8,35.3-13.1,46.2
					C757.1,767,753,762.2,759.1,758.3z"/>
				<path class="st17" d="M760.5,766.5c-2,1.3-3.1,2.7-2.5,4.2c4.6-5.2,39-0.1,43.6-14.7C793.7,764.5,771.7,764.6,760.5,766.5z"/>
			</g>
		</g>
		<g>
			
				<radialGradient id="SVGID_46_" cx="451.2102" cy="767.9267" r="36.6977" gradientTransform="matrix(0.9579 0 0 0.9579 28.6943 31.2744)" gradientUnits="userSpaceOnUse">
				<stop  offset="0.5582" style="stop-color:#3D150B"/>
				<stop  offset="1" style="stop-color:#340D07"/>
			</radialGradient>
			<path class="st54" d="M415,757.3c-12,10.3,17.3,11.5,24.3,14.4c3.1,3.2,10.5,5.5,25.7,4.5c-0.1-0.1-0.1-0.3-0.2-0.4
				c6.5-4.8,57.3-3.7,42.1-17.9L415,757.3z"/>
			<g>
				<g>
					<path class="st14" d="M478.8,723.9c6.1,11.1-9.6,36.3-26.7,47.3c13.7,2.9,13.9-2.4,19.8-3C526,762.4,497.9,733.9,478.8,723.9z"
						/>
					<path class="st15" d="M420.3,759.1c-9.5-1.1-4.8-13.2,4.5-17.8c13.3-6.7,52.3-17.1,26.7-29.8
						C499.3,713.3,456.5,763.2,420.3,759.1z"/>
					<path class="st14" d="M420.3,759.1c-4-0.5-5.5-2.9-5.1-6c0.5-4.1-0.5,2.9,12.9-2.3c21.4-8.3,57.5-26.1,23.5-39.3
						C499.3,713.3,456.5,763.2,420.3,759.1z"/>
					<path class="st16" d="M415.2,753.1c0.5,3.4,3.5,6.2,16.5,0.3c28.3-12.9,56.8-33.4,19.8-41.9c44,1.7,23.1,53.9-10.7,57.1
						C435.5,764.3,411.8,768,415.2,753.1z"/>
					<path class="st17" d="M438.5,762c-4.5,1-9,1.2-13.6,0.2c-3.6-0.8-7-2.3-9.8-4.3c2.5,9.2,21.1,6.9,25.7,10.7
						c1.6-0.2,3.2-0.4,4.8-0.8C442.5,766.6,440.2,764.5,438.5,762z"/>
					<path class="st15" d="M438.9,767.1c-7.4-8.2-1.9-15.6,7.3-20.2c13.3-6.7,45.9-26.8,5.3-35.4
						C512.6,717.5,448.2,764.3,438.9,767.1z"/>
					<path class="st14" d="M465,772.3c-40.7,2.7-25.2-17.8-22.9-18.9c27-13.7,54.9-35.3,9.5-41.8c47,2.4,30.8,46.2,0.5,52.5
						C448.7,764.7,448.5,765.1,465,772.3z"/>
					<path class="st16" d="M465,772.3c-29.6,0.9-18-8.9-11.7-12.1c30.3-15,27.6-30.4,23.3-39.5C499.5,757.2,454.6,756.3,465,772.3z"
						/>
					<path class="st16" d="M478.8,723.9c55.9,34.6-19,38.1-14.5,48.4c5.3-5.9,49.6,1.6,43.5-22.4
						C504.9,738.5,481.9,725.5,478.8,723.9z"/>
					<path class="st15" d="M478.7,723.9c27.5,23.4-14.4,38.2-14.5,47C474.1,757.6,526.2,751.2,478.7,723.9z"/>
					<path class="st14" d="M424.8,741.3c13.3-6.7,54-16.2,26.7-29.8C457.8,722,444.2,730.5,424.8,741.3z"/>
				</g>
				<path class="st17" d="M465.3,759.9c24.5-15.7,15.6-30.1,11.3-39.2c20.1,31.9-11.8,35.3-13.1,46.2
					C463.3,768.5,459.2,763.8,465.3,759.9z"/>
				<path class="st17" d="M466.7,768.1c-2,1.3-3.1,2.7-2.4,4.2c4.6-5.2,39-0.1,43.6-14.7C499.9,766.1,477.9,766.2,466.7,768.1z"/>
			</g>
		</g>
		<g>
			
				<radialGradient id="SVGID_47_" cx="655.0753" cy="770.2846" r="36.6977" gradientTransform="matrix(0.9579 0 0 0.9579 28.6943 31.2744)" gradientUnits="userSpaceOnUse">
				<stop  offset="0.5582" style="stop-color:#3D150B"/>
				<stop  offset="1" style="stop-color:#340D07"/>
			</radialGradient>
			<path class="st55" d="M610.3,759.6c-12,10.3,17.3,11.5,24.3,14.4c3.1,3.2,10.5,5.5,25.7,4.5c-0.1-0.1-0.1-0.3-0.2-0.4
				c6.5-4.8,57.3-3.7,42.1-17.9L610.3,759.6z"/>
			<g>
				<g>
					<path class="st14" d="M674.1,726.1c6.1,11.1-9.6,36.3-26.7,47.3c13.7,2.9,13.9-2.4,19.8-3C721.3,764.7,693.2,736.2,674.1,726.1
						z"/>
					<path class="st15" d="M615.6,761.3c-9.5-1.1-4.8-13.2,4.5-17.8c13.3-6.7,52.3-17.1,26.7-29.8
						C694.6,715.6,651.8,765.5,615.6,761.3z"/>
					<path class="st14" d="M615.6,761.3c-4-0.5-5.5-2.9-5.1-6c0.5-4.1-0.5,2.9,12.9-2.3c21.4-8.3,57.5-26.1,23.5-39.3
						C694.6,715.6,651.8,765.5,615.6,761.3z"/>
					<path class="st16" d="M610.5,755.4c0.5,3.4,3.5,6.2,16.5,0.3c28.3-12.9,56.8-33.4,19.8-41.9c44,1.7,23.1,53.9-10.7,57.1
						C630.8,766.6,607.1,770.2,610.5,755.4z"/>
					<path class="st17" d="M633.8,764.3c-4.5,1-9,1.2-13.6,0.2c-3.6-0.8-7-2.3-9.8-4.3c2.5,9.2,21.1,6.9,25.7,10.7
						c1.6-0.2,3.2-0.4,4.8-0.8C637.8,768.8,635.5,766.8,633.8,764.3z"/>
					<path class="st15" d="M634.2,769.3c-7.4-8.2-1.9-15.6,7.3-20.2c13.3-6.7,45.9-26.8,5.3-35.4
						C707.9,719.7,643.5,766.6,634.2,769.3z"/>
					<path class="st14" d="M660.3,774.5c-40.7,2.7-25.2-17.8-22.9-18.9c27-13.7,54.9-35.3,9.5-41.8c47,2.4,30.8,46.2,0.5,52.5
						C644,767,643.8,767.4,660.3,774.5z"/>
					<path class="st16" d="M660.3,774.5c-29.6,0.9-18-8.9-11.7-12.1c30.3-15,27.6-30.4,23.3-39.5
						C694.8,759.5,649.9,758.6,660.3,774.5z"/>
					<path class="st16" d="M674.1,726.1c55.9,34.6-19,38.1-14.5,48.4c5.3-5.9,49.6,1.6,43.5-22.4
						C700.2,740.8,677.2,727.7,674.1,726.1z"/>
					<path class="st15" d="M674,726.2c27.5,23.4-14.4,38.2-14.5,47C669.4,759.9,721.4,753.5,674,726.2z"/>
					<path class="st14" d="M620.1,743.5c13.3-6.7,54-16.2,26.7-29.8C653.1,724.3,639.5,732.8,620.1,743.5z"/>
				</g>
				<path class="st17" d="M660.6,762.2c24.5-15.7,15.6-30.1,11.3-39.2c20.1,31.9-11.8,35.3-13.1,46.2
					C658.5,770.8,654.5,766,660.6,762.2z"/>
				<path class="st17" d="M662,770.4c-2,1.3-3.1,2.7-2.4,4.2c4.6-5.2,39-0.1,43.6-14.7C695.2,768.4,673.2,768.4,662,770.4z"/>
			</g>
		</g>
		<g>
			
				<radialGradient id="SVGID_48_" cx="549.748" cy="769.7885" r="36.6975" gradientTransform="matrix(0.9579 0 0 0.9579 28.6943 31.2744)" gradientUnits="userSpaceOnUse">
				<stop  offset="0.5582" style="stop-color:#3D150B"/>
				<stop  offset="1" style="stop-color:#340D07"/>
			</radialGradient>
			<path class="st56" d="M509.4,759.1c-12,10.3,17.3,11.5,24.3,14.4c3.1,3.2,10.5,5.5,25.7,4.5c-0.1-0.1-0.1-0.3-0.2-0.4
				c6.5-4.8,57.3-3.7,42.1-17.9L509.4,759.1z"/>
			<g>
				<g>
					<path class="st14" d="M573.2,725.6c6.1,11.1-9.6,36.3-26.7,47.3c13.7,2.9,13.9-2.4,19.8-3C620.4,764.2,592.3,735.7,573.2,725.6
						z"/>
					<path class="st15" d="M514.7,760.8c-9.5-1.1-4.8-13.2,4.5-17.8c13.3-6.7,52.3-17.1,26.7-29.8
						C593.7,715.1,550.9,765,514.7,760.8z"/>
					<path class="st14" d="M514.7,760.8c-4-0.5-5.5-2.9-5.1-6c0.5-4.1-0.5,2.9,12.9-2.3c21.4-8.3,57.5-26.1,23.5-39.3
						C593.7,715.1,550.9,765,514.7,760.8z"/>
					<path class="st16" d="M509.6,754.9c0.5,3.4,3.5,6.2,16.5,0.3c28.3-12.9,56.8-33.4,19.8-41.9c44,1.7,23.1,53.9-10.7,57.1
						C529.9,766.1,506.2,769.8,509.6,754.9z"/>
					<path class="st17" d="M532.9,763.8c-4.5,1-9,1.2-13.6,0.2c-3.6-0.8-7-2.3-9.8-4.3c2.5,9.2,21.1,6.9,25.7,10.7
						c1.6-0.2,3.2-0.4,4.8-0.8C536.9,768.4,534.6,766.3,532.9,763.8z"/>
					<path class="st15" d="M533.3,768.8c-7.4-8.2-1.9-15.6,7.3-20.2c13.3-6.7,45.9-26.8,5.3-35.4C607,719.3,542.6,766.1,533.3,768.8
						z"/>
					<path class="st14" d="M559.4,774c-40.7,2.7-25.2-17.8-22.9-18.9c27-13.7,54.9-35.3,9.5-41.8c47,2.4,30.8,46.2,0.5,52.5
						C543.1,766.5,542.9,766.9,559.4,774z"/>
					<path class="st16" d="M559.4,774c-29.6,0.9-18-8.9-11.7-12.1c30.3-15,27.6-30.4,23.3-39.5C593.9,759,549,758.1,559.4,774z"/>
					<path class="st16" d="M573.2,725.6c55.9,34.6-19,38.1-14.5,48.4c5.3-5.9,49.6,1.6,43.5-22.4
						C599.3,740.3,576.3,727.2,573.2,725.6z"/>
					<path class="st15" d="M573.1,725.7c27.5,23.4-14.4,38.2-14.5,47C568.5,759.4,620.6,753,573.1,725.7z"/>
					<path class="st14" d="M519.2,743.1c13.3-6.7,54-16.2,26.7-29.8C552.2,723.8,538.6,732.3,519.2,743.1z"/>
				</g>
				<path class="st17" d="M559.7,761.7c24.5-15.7,15.6-30.1,11.3-39.2c20.1,31.9-11.8,35.3-13.1,46.2
					C557.6,770.3,553.6,765.6,559.7,761.7z"/>
				<path class="st17" d="M561.1,769.9c-2,1.3-3.1,2.7-2.5,4.2c4.6-5.2,39-0.1,43.6-14.7C594.3,767.9,572.3,768,561.1,769.9z"/>
			</g>
		</g>
	</g>
</g>
</svg>
