<?xml version="1.0" encoding="utf-8"?>
<!-- Generator: Adobe Illustrator 24.3.0, SVG Export Plug-In . SVG Version: 6.00 Build 0)  -->
<svg version="1.1" id="Layer_1" xmlns="http://www.w3.org/2000/svg" xmlns:xlink="http://www.w3.org/1999/xlink" x="0px" y="0px"
	 viewBox="0 0 1216.1 1241.9" style="enable-background:new 0 0 1216.1 1241.9;" xml:space="preserve">
<style type="text/css">
	.st0{fill:#E7C0FF;}
	.st1{fill:#FFA42C;}
	.st2{opacity:0.6;}
	.st3{fill:#FFFFFF;}
	.st4{opacity:0.3;}
	.st5{fill:#000072;}
	.st6{fill:#B748FF;}
</style>
<g id="Layer_2_1_">
	<g id="Layer_1-2">
		<circle class="st0" cx="613.1" cy="631.4" r="460.3"/>
		<path class="st1" d="M841.3,560.6c-42.1-4.5-85.3-4.8-128.1-1.2c-111.6,9.3-220.5,45.1-300.3,103.3c0,0-0.1,0.1-0.1,0.1
			c-6.4,4.6-12.6,9.4-18.5,14.4c-23.4,11-51.3-18.6-19.2-48.1c2.6-2.5,5.2-4.9,7.9-7.3c79.2-71.2,202.9-122.1,334.5-127.6
			c43-1.8,86.7,1.3,130.1,10C875.9,511.4,883.9,558.1,841.3,560.6z"/>
		<path class="st1" d="M841.3,560.6l-102.8,514.3c-9.3,46.3-68.2,58.4-95.5,22.6c-1.4-1.8-2.6-3.8-3.8-5.7L394.2,677.1
			c81.1-66.6,198.5-107.6,319-117.7C756,555.9,799.2,556.2,841.3,560.6z"/>
		<g class="st2">
			<path class="st3" d="M729.7,1095.6c-19.8,28.3-64.2,31.5-86.8,1.8c-1.4-1.8-2.6-3.8-3.8-5.7L394.2,677.1
				c6-4.9,12.2-9.8,18.6-14.4l244,413.2c1.1,2,2.4,3.9,3.8,5.7C677.9,1104.1,707.7,1107.7,729.7,1095.6z"/>
		</g>
		<g class="st2">
			<path class="st3" d="M412.8,662.8c-6.4,4.6-12.6,9.4-18.5,14.4c-23.4,11-51.3-18.6-19.2-48.1c2.6-2.5,5.2-4.9,7.9-7.3l0.7,0.2
				C361,638.3,390.2,678.9,412.8,662.8z"/>
		</g>
		<g class="st4">
			<path class="st5" d="M821.1,560.1l-102.8,514.3c-4.9,24.5-23.8,39.4-44.4,42.7c-12.3-2.6-23.3-9.6-31-19.6
				c32.4-16.3,32.2-54.7,32.2-54.7l34.8-442c-5.7,7.4-13.8,10.3-21.1,11.2c-5.8,0.7-11.7,0.3-17.4-0.9l0,0l-0.4-0.1
				c32.5-25.9,5-56.3,4.1-88.7c-0.7-23.2,23.5-26.5,37.3-26.5l5-1.6c9.1-0.4,18.3-0.5,27.4-0.5c27.7,1.1,55.3,4.5,82.5,9.9
				C855.7,510.9,863.8,557.6,821.1,560.1z"/>
		</g>
		<path class="st5" d="M383.8,686.6c-10.2,0-19.7-5-25.4-13.5c-7.8-11.5-8.8-30.6,11.7-49.4c2.9-2.7,7.4-2.5,10.1,0.4
			c2.7,2.9,2.5,7.4-0.4,10.1c0,0,0,0-0.1,0c-11.7,10.7-15.3,22.3-9.5,30.9c4.5,6.5,12.9,9,20.1,5.8
			c108.6-88.8,285.4-134.9,451-117.5c13.5-1,21.4-7,22.4-16.9c0.9-9.8-5.7-22.3-18.1-25.5c-3.8-1-6.1-4.9-5.1-8.7s4.9-6.1,8.7-5.1
			c17.9,4.6,30.5,22.4,28.8,40.7c-1.3,13.5-11.5,28.4-36.3,29.8c-0.4,0-0.8,0-1.2,0c-162.5-17.1-335.9,27.9-441.7,114.9
			c-0.5,0.4-0.9,0.7-1.5,0.9C393,685.6,388.4,686.6,383.8,686.6z"/>
		<path class="st5" d="M684.9,1125.5c-21.4,0-40.7-11-52-30.1L388,680.8c-2-3.4-0.9-7.8,2.5-9.8s7.8-0.9,9.8,2.5l244.9,414.6
			c12.1,20.5,32.8,24.9,48.1,22.4s33.4-13.7,38.1-37l102.8-514.3c0.8-3.9,4.6-6.3,8.5-5.5c3.8,0.8,6.3,4.5,5.6,8.3l-102.8,514.3
			c-5.1,25.4-24.1,43.9-49.7,48.3C692.2,1125.1,688.5,1125.5,684.9,1125.5z"/>
		<g class="st4">
			<path class="st5" d="M833.5,590.3c-36.9-5.6-74.6-4.9-111.3,2.1c-36.7,7-72.2,20-105.1,37.9c-32.9,18-63.2,40.5-90,66.9
				c-26.6,26.4-49.8,56.5-66.9,89.9l-3.2-1.6c16.9-34.1,40-64.8,66.6-91.8c26.8-27.1,57.2-50.2,90.4-68.9
				c33.2-18.6,69.2-32.4,106.6-39.9c37.5-7.6,76.1-8.8,114-3.5L833.5,590.3z"/>
			<path class="st5" d="M503.1,863.2c15.1-27.2,34.9-51.5,57.2-73.1c22.4-21.6,47.3-40.4,74.3-56c27-15.5,56-27.8,86.3-35.2
				c30.4-7.4,62.2-9.8,93.4-5.7l-1.3,8.8c-29.9-4.4-60.7-2.6-90.4,4.2c-29.7,6.8-58.3,18.3-85,33.2c-26.8,15-51.6,33.1-74,54.1
				c-22.3,21-42.3,44.7-57.5,71.3L503.1,863.2z"/>
			<path class="st5" d="M546.4,940.3c5.3-11.5,12.4-21.9,20.3-31.7c7.9-9.7,16.6-18.8,25.8-27.3c18.4-17,38.5-31.9,59.8-45
				c21.3-13.1,43.8-24.3,67.5-32.8c11.9-4.2,24-7.6,36.6-9.8c12.5-2.2,25.4-3.1,38.3-1.7l-1.1,8.9c-11.8-1.5-23.9-0.9-35.8,1
				s-23.8,5-35.4,8.8c-23.2,7.8-45.6,18.4-66.8,30.9c-21.2,12.6-41.4,27-59.8,43.3c-9.2,8.2-17.9,16.9-25.8,26.3
				c-7.9,9.4-15,19.5-20.3,30.5L546.4,940.3z"/>
			<path class="st5" d="M590.4,1009.5c10.5-15,22.5-29,35.6-41.8c13.1-12.9,27.4-24.5,42.7-34.7c15.3-10.2,31.8-18.9,49.2-25.2
				c17.5-6.3,36.1-10,55-9.5l-0.4,8.9c-17.5-0.9-35.3,2.1-52.2,7.7c-16.9,5.6-33.1,13.7-48.3,23.3c-30.5,19.4-57.3,44.3-78.8,73.4
				L590.4,1009.5z"/>
			<path class="st5" d="M756.5,995.8l-4.8,0.6c-1.6,0.2-3.2,0.4-4.8,0.7l-4.7,0.9c-1.6,0.3-3.1,0.6-4.7,1c-3.1,0.8-6.2,1.5-9.3,2.5
				l-4.6,1.4c-1.5,0.5-3,1.1-4.5,1.6c-12.1,4.5-23.6,10.2-34.4,17.2c-21.6,13.9-40.2,32.9-53.1,55.4l-3.1-1.7
				c12.5-23.4,30.9-43.7,52.8-58.9c11-7.7,22.8-14.1,35.2-19.1c1.6-0.6,3.1-1.3,4.7-1.9l4.8-1.7c3.1-1.2,6.4-2,9.6-3
				c1.6-0.5,3.2-0.9,4.9-1.3l4.9-1.1c1.6-0.4,3.3-0.6,4.9-0.9l4.9-0.8L756.5,995.8z"/>
			<path class="st5" d="M438.9,750.9c32.1,1.4,63.7,8,94.4,17.2s60.4,21.4,89.1,35.8c28.6,14.4,56.2,31,81.9,50.3
				c12.8,9.7,25.2,20.1,36.7,31.5c5.8,5.7,11.2,11.8,16.3,18.1c5,6.4,9.7,13.2,13.7,20.6l-7.9,4.1c-3.5-6.7-7.8-13.2-12.5-19.4
				c-4.8-6.2-10-12-15.4-17.6c-10.9-11.3-22.9-21.6-35.4-31.3c-25-19.3-52.1-36.1-80.2-50.8c-28.1-14.7-57.5-27.1-87.7-36.7
				c-30.3-9.6-61.4-16.5-93.1-18.3L438.9,750.9z"/>
			<path class="st5" d="M518.8,885.8c23.2,3.3,46.1,8.7,68.3,16.2c22.3,7.5,43.8,17.3,64,29.2c20.2,12,39.2,26.3,56.1,42.8
				c17,16.6,31.7,35.3,43.7,55.8l-7.8,4.4c-11.2-20-25.1-38.5-41.3-54.8c-16.1-16.4-34.4-30.7-54-42.8
				c-39.3-24.3-83.9-39.7-129.6-47.2L518.8,885.8z"/>
			<path class="st5" d="M583.1,997.7c15.2,1.7,30,5.8,44.2,11.3c14.2,5.6,27.8,12.5,40.7,20.6c12.9,8.1,25.1,17.4,36.3,27.8
				c11.2,10.5,21.5,22.1,29.7,35.4l-7.7,4.5c-7.2-12.6-16.7-24-27.2-34.4c-10.6-10.4-22.1-19.8-34.4-28.1
				c-12.3-8.3-25.5-15.5-39.1-21.3c-13.7-5.8-28.1-10.2-42.8-12.3L583.1,997.7z"/>
			<path class="st5" d="M445,639.9c33.5,5.5,66.5,13.5,98.8,23.9c32.3,10.5,63.8,23.5,93.9,39.4s58.8,34.5,85,56.4
				c26.2,21.9,49.9,47,69,75.6l-7.5,4.9c-18.2-28-41-52.9-66.4-74.7c-25.4-21.8-53.5-40.6-83.1-56.7c-29.5-16.1-60.6-29.4-92.5-40.3
				c-32-10.8-64.7-19.2-97.9-25.1L445,639.9z"/>
			<path class="st5" d="M637.2,589.1c17.4,7.3,34.2,15.8,50.4,25.5c16.2,9.7,31.7,20.5,46.3,32.5c29.3,23.9,54.8,52.4,76.6,83.2
				l-7.4,5.1c-20.7-30.8-45-59.3-73.2-83.5c-14.1-12.1-29.1-23.2-44.9-33.1c-15.8-9.9-32.3-18.7-49.3-26.4L637.2,589.1z"/>
			<path class="st5" d="M754.5,553.4c8.4,4,16.5,8.6,24.1,13.9c7.7,5.3,14.9,11.2,21.6,17.6c6.8,6.5,13,13.6,18.4,21.2l4,5.8
				l3.6,6.1l1.7,3.1l1.5,3.2c1,2.2,1.9,4.3,2.8,6.5l-8.3,3.2c-1-2-1.8-4-2.7-6l-1.3-3l-1.5-2.9l-3-5.9l-3.5-5.7
				c-4.8-7.5-10.3-14.6-16.4-21c-6.2-6.5-12.8-12.6-19.9-18.1c-7.1-5.5-14.6-10.7-22.5-14.9L754.5,553.4z"/>
		</g>
		<path class="st6" d="M756.2,283.1c-41-24.2-95.6-17.9-95.6-17.9c-116.8,8.8-211.8,67.9-211.8,67.9c-19.2-50,3.1-92.1,45.5-110.9
			c60.4-29.8,71.6-72,31-81.8c2.2-0.6,4.4-1.2,6.6-1.7c88.3-21,192,29.7,151,121C711.9,261.8,737.3,270.2,756.2,283.1z"/>
		<path class="st6" d="M847.5,504.1c-46.8-10.1-95.9-10.1-146.8-2.4c-1.8,0.4-3.5,0.8-5.1,1.3c-34.7,9.8-16.8,33.3-10.4,64.3
			c1.7,8.2,1.6,16.8-0.9,24.8c-10.8,35.1-53.6,28-53.6-3.5c0-40.6-17.5-56.3-38.2-59c-15.9-2.1-31.5,4.6-42.3,16.5
			c-30.5,33.8-16.5,72.6,9.9,102.7c11.2,12.8,9.6,32.8-4.1,43c-17.2,12.7-45.7,5.4-49.5-33.9c-1-14.1-3.2-24.9-5.4-32.9
			c-3.8-13.7-12.3-25.8-24.4-33.3c-35.2-21.7-68.3,13.2-101.9,37.5C322.4,596.2,346,516,388.1,480.2
			c-28.7-51.5-0.7-116.9,58.6-145.9c1.3-0.6,2.1-1,2.1-1s95-59.1,211.7-67.9c0,0,54.6-6.4,95.6,17.9c2.8,1.9,5.5,3.9,8,6.1
			c16.6,14,26.5,32.2,27.1,52.7c0.3,10.9-2.1,22.4-7.4,34.4c1,0,2,0,3,0.1C836.5,378.8,891.1,441.8,847.5,504.1z"/>
		<path class="st6" d="M786.8,376.3c-0.1,0.3-0.2,0.6-0.2,0.9l-33.9-0.9c-121.4-3.6-246.2,22.3-364.5,103.8
			c-28.7-51.5-0.7-116.9,58.6-145.9c1.3-0.6,2.1-1,2.1-1s95-59.1,211.7-67.9c0,0,54.6-6.4,95.6,17.9c1.8,1.1,3.7,2.3,5.5,3.5
			c0.9,0.9,1.7,1.7,2.5,2.6c16.7,17.4,25.6,33.8,27.1,52.7C792,352.4,790.6,363.7,786.8,376.3z"/>
		<g class="st2">
			<path class="st3" d="M549.4,695.4c-17,6.7-39.5-3.1-42.8-37.7c-1-14.1-3.2-24.9-5.4-32.9c-3.8-13.7-12.3-25.8-24.4-33.3
				c-4-2.5-8.4-4.4-13-5.6c11-2.5,22.2-1.4,33.5,5.6c12.1,7.5,20.6,19.6,24.4,33.3c2.2,8,4.3,18.8,5.4,32.9
				C529.2,679.1,538.5,691,549.4,695.4z"/>
		</g>
		<g class="st2">
			<path class="st3" d="M623.4,388.5c-66.7,17.5-135.8,46.6-200.9,85.1c-21.7,12.8-39.3,31.8-49.6,54.7
				c-11.4,25.6-15.8,59.5,12.4,92.9c-3.5,2.6-6.9,5.3-10.4,7.8C322.4,596.1,346,515.9,388.1,480c-29-52.1,0-118.4,60.6-146.9
				c-19.2-50,3.1-92.1,45.5-110.9c60.4-29.8,71.6-72,31-81.8c2.2-0.6,4.4-1.2,6.6-1.7c16.6-3.9,33.8-5.4,50.8-4.5
				c-10.2,0.6-20.3,2.1-30.3,4.5c-2.2,0.5-4.4,1.1-6.6,1.7c40.6,9.9,29.4,52.1-31,81.8c-38,16.9-59.9,52.4-50.2,95.6
				c0.5,2.3,0.7,4.7,0.4,7c49.3-24.9,96.1-45.6,130.2-44.3c-38.8,11.7-85.7,33.7-136.1,60.2c-17.5,9.2-32.7,22.4-43.8,38.8
				c-14,20.8-25.4,51.6-11.1,91.1C474.1,424.9,546.7,394.8,623.4,388.5z"/>
		</g>
		<g class="st2">
			<path class="st3" d="M666.6,613.3c-16.1,6.8-35.9-3.4-35.9-24.8c0-37.6-15.1-53.9-33.7-58.2c5.3-1.2,10.7-1.5,16-0.8
				c20.6,2.6,38.2,18.4,38.2,59C651.3,600.9,657.9,609.6,666.6,613.3z"/>
		</g>
		<path class="st5" d="M539.1,704.5c-4.8,0-9.5-1-13.9-2.9c-8.4-3.7-22.9-14.3-25.7-43.2c-0.9-11.9-2.6-22.5-5.1-31.7
			c-3.4-12.4-11-22.7-21.2-29.1c-25.4-15.7-50.8,4.1-77.8,24.9c-5.3,4.1-10.7,8.3-16.2,12.2c-2.4,1.7-5.5,1.8-8,0.3
			c-20-12.5-31.5-32.2-33.3-57c-2.5-34.1,14.4-74.3,41.4-99.6c-11-22.8-12.6-48.9-4.5-74.2c10.1-31.2,33.6-58.2,65.1-74.7
			c-7.6-23.5-7-46.3,1.9-66.4c9.2-20.7,26.3-37,49.4-47.3c37.1-18.3,52.3-39.8,50.8-53c-1-9.3-10.6-13.5-18.5-15.4
			c-3.8-0.9-6.2-4.8-5.3-8.7c0.6-2.5,2.5-4.5,5-5.2c58.8-16.6,124.6-1.8,156.4,35.1c20,23.2,24.6,53.1,13.3,84.8
			c43.1,5.3,78.2,24.5,94.8,52.5c11.6,19.4,13.6,41.3,6.1,63.9c26.9,4,53.5,23.1,67.1,49.2c15,28.9,12.3,60.6-7.7,89.1
			c-1.6,2.4-4.6,3.5-7.4,2.9c-43.7-9.4-92.1-10.2-144-2.4c-9.9,2.2-16.1,5.3-18.5,9.4c-3.4,5.7-0.3,15.9,3.3,27.7
			c1.8,6.1,3.9,12.9,5.4,20.1c2,9.8,1.7,19.6-1,28.3c-6.9,22.5-25,30.3-39.8,28c-16.3-2.5-27.8-16.3-27.8-33.7
			c0-21.8-5.5-48.5-31.9-51.9c-13-1.7-26.5,3.7-36.1,14.2c-31.7,35.1-7.4,73.4,9.9,93.2c6.8,7.8,10.1,18.1,9,28.5
			c-1.1,10.1-6.1,19-14.2,24.9C554.2,702,546.7,704.5,539.1,704.5z M454,577.6c8.7,0,17.6,2.3,26.6,7.9
			c13.4,8.2,23.1,21.6,27.5,37.5c2.8,10.1,4.7,21.6,5.6,34.2c1.5,15.9,7.7,27.1,17.3,31.3c6.8,3,14.6,2.1,20.9-2.6
			c4.8-3.6,7.9-9,8.5-15c0.7-6.4-1.3-12.7-5.5-17.5c-34.7-39.7-38.3-80.6-9.8-112.2c12.7-14.1,30.8-21.1,48.5-18.8
			c16.6,2.1,44.4,13.5,44.4,66.1c0,12.7,8.4,18.4,15.6,19.5c8.1,1.2,19.3-2.8,24-18.1c2-6.4,2.2-13.8,0.7-21.2
			c-1.4-6.5-3.3-12.8-5.1-18.8c-4.4-14.4-8.5-27.9-2-39.1c4.6-7.9,13.5-13,28-16.1c0.1,0,0.3-0.1,0.4-0.1
			c51.8-7.9,100.4-7.3,144.6,1.5c14.4-23,16-47.8,4.2-70.5c-12.8-24.5-39.9-42.3-64.6-42.3c-4,0-7.2-3.2-7.2-7.2c0-1,0.2-2,0.6-2.9
			c9.6-21.4,9-42.1-1.6-60c-15.5-26-50.4-43.4-93.3-46.5c-3.9-0.3-6.9-3.7-6.6-7.7c0.1-0.8,0.3-1.7,0.6-2.4
			c13.6-30.2,11-57.5-7.3-78.7c-24.5-28.5-74.5-42.1-122.1-34.9c5.3,4.7,8.7,11.1,9.5,18.2c2.5,22.5-20.1,48.3-58.8,67.4l-0.3,0.1
			c-42,18.6-58.4,58.5-41.7,101.8c1.4,3.5-0.2,7.4-3.6,9c-30.9,14.5-53.9,39.6-63.4,69c-7.5,23.4-5.4,47.5,6,68c1.7,3,1,6.7-1.6,8.9
			c-25.8,21.9-42.9,60.4-40.6,91.5c0.9,13,5.7,30.6,22.7,43.2c3.9-2.9,7.9-6,11.8-9C407.3,595.2,430,577.6,454,577.6z"/>
		<g class="st4">
			<path class="st3" d="M496.7,304.5c-2.4-52.1,60.6-77.8,64.2-24c-32,28.5-42.2,66.1-17.4,118.4l-57.2,22.8
				C464.5,390,458.3,338.4,496.7,304.5z"/>
		</g>
		<g class="st4">
			<path class="st3" d="M451.9,441.7l54.7-24.9c0,0-15.1,31.8-6.4,62c4.3,15,0.9,31.4-9.9,42.6c-8.4,8.7-17.2,10.1-26.2,6
				c-9.7-4.5-16.2-13.9-17.5-24.5C444.3,484.3,444.9,460.9,451.9,441.7z"/>
		</g>
		<path class="st5" d="M527.9,572c2.6-9.5,6.1-18.6,10.6-27.4c4.5-8.7,10.1-17,16.9-24.2c6.8-7.2,15-13.1,23.9-17.3
			c8.9-4.2,18.6-6.4,28.2-7.3c1.7-0.2,3.2,1.1,3.3,2.7c0.2,1.6-1,3.1-2.6,3.3h-0.1c-8.9,1.4-17.5,4.2-25.2,8.5
			c-7.7,4.3-14.5,10-20,16.8c-5.6,6.7-10,14.5-13.5,22.6c-3.4,8.2-6,16.7-7.8,25.5v0c-0.8,3.9-4.6,6.4-8.4,5.6
			c-3.9-0.8-6.4-4.6-5.6-8.4C527.8,572.3,527.8,572.2,527.9,572z"/>
		<path class="st5" d="M384.6,475c26.8-18.4,55-34.7,84.3-48.6c29.4-13.9,59.9-25.3,91.2-34c7.8-2.4,15.7-4.1,23.6-6.1
			c3.9-1,7.9-1.9,11.9-2.7l11.9-2.5l5.9-1.3c2-0.4,4-0.7,6-1l12-2c2-0.3,4-0.7,6-0.9l6.1-0.7c4-0.5,8.1-0.9,12.1-1.3
			c32.3-2.8,64.8-3.1,97-0.4c1.5,0.1,2.6,1.4,2.4,2.9c-0.1,1.4-1.3,2.4-2.6,2.5c-32.1,0.8-64,2.8-95.5,7.2
			c-7.9,1.3-15.8,2.1-23.6,3.5l-11.8,1.8c-2,0.3-3.9,0.6-5.9,0.9l-5.9,1.1c-7.8,1.6-15.7,2.9-23.3,4.9c-7.7,1.9-15.5,3.6-23.1,5.9
			c-30.6,8.6-60.5,19.7-89.2,33.3c-28.8,13.6-56.4,29.5-82.6,47.5h0c-2.7,2.1-6.7,1.6-8.8-1.2c-2.1-2.7-1.6-6.7,1.2-8.8
			C384.2,475.2,384.4,475.1,384.6,475z"/>
		<path class="st5" d="M445.5,327.8c8.3-5,16.6-9.4,25.1-13.7c4.2-2.1,8.5-4.2,12.7-6.2c4.3-1.9,8.6-4,12.9-5.9l13-5.6l13.1-5.3
			c8.8-3.3,17.6-6.7,26.7-9.6c8.9-3.1,18.2-5.2,27.3-7.6l13.8-3c2.3-0.5,4.6-1,6.9-1.5l7-1.2c18.6-3.4,37.5-5,56.2-5.7
			c1.5-0.1,2.7,1.1,2.8,2.6c0,1.4-0.9,2.5-2.2,2.7l-0.1,0c-4.6,0.7-9.2,1.4-13.8,2.1l-6.9,1c-2.3,0.4-4.6,0.9-6.8,1.3l-13.6,2.6
			c-4.5,1-9,2.2-13.5,3.2l-6.7,1.6c-2.2,0.6-4.5,1.2-6.7,1.8l-13.4,3.7c-8.8,2.8-17.6,5.5-26.4,8.5c-4.4,1.4-8.8,2.8-13.1,4.4
			c-4.3,1.6-8.7,3-13,4.7l-12.9,5l-12.7,5.5c-4.2,1.8-8.4,3.8-12.6,5.7c-4.2,2-8.3,4-12.5,6.1c-8.2,4.2-16.4,8.6-24.1,13.2l-0.2,0.1
			c-3.1,1.6-6.9,0.5-8.5-2.6C442,333.1,442.9,329.6,445.5,327.8z"/>
		<g class="st4">
			<path class="st5" d="M829.5,500.8c-22.6-3.6-45.6-5-69.2-4.4c-20,0.5-39.9,2.3-59.6,5.4c-1.8,0.4-3.5,0.8-5.1,1.3
				c1.2-1.2,2.3-2.5,3.4-3.7c39.2-45.9-1-118.9-52.3-118.9l-7.8,1.4l-34.8,6.4c2-1.5,3.9-3.1,5.7-4.8c39.8-36.6,15.8-95.3-20.8-105
				l23.6-4.9c43-75.6-16.6-137.3-82.1-133.1c0,0,0.5-0.6,1.4-1.7c10-2.4,20.2-3.9,30.4-4.5h0.1c71.6,4.1,133.5,51.4,100.2,125.4
				c77.3,5.6,128.3,55.9,100.9,116.5C813.1,376.3,869.7,438.3,829.5,500.8z"/>
		</g>
		<g class="st4">
			<path class="st5" d="M602.3,532.4c0,0-44.2,13.3-30.9,54.5l-8.5,2.8c0,0,0.8,21,20.6,37.5s27.8,57.9-25.3,68.3
				c14.8-12.2,19.1-33.3,0.4-53.9C516.2,598.5,536.7,519.5,602.3,532.4z"/>
		</g>
	</g>
</g>
</svg>
