<?xml version="1.0" encoding="utf-8"?>
<!-- Generator: Adobe Illustrator 24.3.0, SVG Export Plug-In . SVG Version: 6.00 Build 0)  -->
<svg version="1.1" id="Layer_1" xmlns="http://www.w3.org/2000/svg" xmlns:xlink="http://www.w3.org/1999/xlink" x="0px" y="0px"
	 viewBox="0 0 3376.4 3663" style="enable-background:new 0 0 3376.4 3663;" xml:space="preserve">
<style type="text/css">
	.st0{fill:#FFC5DA;}
	.st1{fill:#FFA42C;}
	.st2{opacity:0.6;}
	.st3{fill:#FFFFFF;}
	.st4{opacity:0.3;}
	.st5{fill:#000072;}
	.st6{fill:#FF4893;}
	.st7{fill:#70003B;}
</style>
<circle class="st0" cx="1673.8" cy="1863.7" r="1323.3"/>
<path class="st1" d="M2329.8,1660.2c-121-12.8-245.2-13.7-368.2-3.4c-320.8,26.8-633.9,129.8-863.5,296.9c-0.1,0.1-0.2,0.2-0.3,0.2
	c-18.3,13.3-36.1,27.1-53.3,41.3c-67.3,31.7-147.5-53.6-55.3-138.3c7.4-7.1,15-14.1,22.7-21c227.6-204.7,583.3-351,961.8-366.9
	c123.5-5.1,249.3,3.6,374,28.7C2429.3,1518.7,2452.5,1652.9,2329.8,1660.2z"/>
<path class="st1" d="M2329.8,1660.2l-295.6,1478.6c-26.6,133-196.1,167.8-274.7,65c-4-5.3-7.6-10.8-11-16.4l-704-1192.2
	c233.1-191.6,570.6-309.4,917.1-338.4C2084.6,1646.6,2208.8,1647.4,2329.8,1660.2z"/>
<g class="st2">
	<path class="st3" d="M2009.1,3198.5c-57,81.3-184.5,90.5-249.6,5.3c-4-5.3-7.6-10.8-11-16.4l-704-1192.2
		c17.3-14.2,35.2-28.1,53.6-41.5l701.5,1188c3.3,5.7,7,11.2,11,16.4C1860.2,3223,1945.9,3233.1,2009.1,3198.5z"/>
</g>
<g class="st2">
	<path class="st3" d="M1097.8,1954c-18.3,13.3-36.1,27.1-53.3,41.3c-67.3,31.7-147.5-53.6-55.3-138.3c7.4-7.1,15-14.1,22.7-21l2,0.7
		C948.9,1883.5,1032.8,2000.3,1097.8,1954z"/>
</g>
<g class="st4">
	<path class="st5" d="M2271.9,1658.8l-295.6,1478.6c-14.1,70.4-68.3,113.3-127.8,122.8c-35.5-7.4-67.1-27.5-89-56.4
		c93.2-46.8,92.6-157.3,92.6-157.3l100.1-1270.8c-16.4,21.3-39.6,29.7-60.6,32.3c-16.7,2-33.6,1-50-2.7l0,0l-1.2-0.3
		c93.5-74.5,14.4-161.8,11.8-254.9c-1.9-66.7,67.6-76.2,107.1-76.2l14.4-4.7c26.2-1.1,52.5-1.5,78.9-1.4
		c79.7,3.3,159,12.9,237.2,28.6C2371.4,1517.2,2394.6,1651.5,2271.9,1658.8z"/>
</g>
<path class="st5" d="M1014.4,2022.6c-29.3,0.1-56.6-14.5-72.9-38.8c-22.3-33.2-25.2-87.9,33.7-141.9c8.3-7.7,21.3-7.2,29,1.1
	c7.7,8.3,7.2,21.3-1.1,29c-0.1,0-0.1,0.1-0.2,0.1c-33.7,30.9-43.9,64.1-27.3,88.7c12.8,18.7,37.1,25.8,57.9,16.8
	c312.2-255.2,820.5-387.8,1296.7-337.9c38.8-2.8,61.6-20,64.4-48.6c2.7-28.2-16.4-64.2-52-73.3c-11-2.8-17.6-14-14.8-25
	c2.8-11,14-17.6,25-14.8c51.4,13.1,87.8,64.5,82.7,117c-3.7,38.7-33.1,81.6-104.5,85.8c-1.1,0.1-2.3,0-3.4-0.1
	c-467.3-49.3-965.8,80.3-1270.1,330.4c-1.3,1.1-2.7,2-4.3,2.7C1041.1,2019.5,1027.8,2022.5,1014.4,2022.6z"/>
<path class="st5" d="M1880.3,3284.3c-61.5,0-117-31.5-149.6-86.5l-704-1192.1c-5.8-9.8-2.5-22.4,7.2-28.1c9.7-5.7,22.4-2.5,28.1,7.2
	l704,1192.1c34.7,58.8,94.2,71.7,138.4,64.3s96.1-39.4,109.5-106.3l295.6-1478.6c2.3-11.1,13.2-18.2,24.3-15.9c11,2.3,18.1,13,16,24
	L2054.2,3143c-14.6,73.1-69.4,126.3-142.9,138.8C1901.1,3283.4,1890.7,3284.3,1880.3,3284.3z"/>
<g class="st4">
	<path class="st5" d="M2307.6,1745.7c-106.2-16.1-214.4-14-319.9,6.1c-105.5,20-207.6,57.6-302.1,109.1
		c-94.7,51.8-181.8,116.5-258.7,192.3c-76.6,75.8-143.2,162.5-192.4,258.5l-9.2-4.6c48.7-97.9,115-186.2,191.6-263.9
		c77-77.8,164.5-144.4,259.9-198c95.4-53.5,199-93.1,306.6-114.8c107.9-21.9,218.8-25.3,327.9-10.1L2307.6,1745.7z"/>
	<path class="st5" d="M1357.4,2530.2c43.3-78.3,100.4-148.2,164.5-210.2c64.4-62.1,136.1-116.1,213.6-160.9
		c77.5-44.6,160.9-79.8,248.2-101.1c87.3-21.3,178.7-28.2,268.5-16.3l-3.6,25.4c-86.1-12.7-174.7-7.4-259.9,12.1
		c-85.2,19.5-167.6,52.7-244.4,95.5c-77,43-148.4,95.2-212.8,155.5c-64.1,60.3-121.6,128.5-165.3,205L1357.4,2530.2z"/>
	<path class="st5" d="M1481.9,2751.9c15.3-33,35.7-63.1,58.4-91.1s47.7-54,74.1-78.4c52.8-48.8,110.8-91.7,172-129.5
		c61.3-37.6,126-70,194.2-94.2c34.1-12,69.1-21.9,105.1-28.1s73-8.9,110.2-4.8l-3.2,25.5c-33.8-4.3-68.7-2.5-103,2.8
		s-68.5,14.3-101.9,25.3c-66.8,22.3-131,53-192,88.9c-60.9,36.1-118.9,77.5-171.8,124.6c-26.4,23.6-51.5,48.7-74.2,75.7
		s-43.1,56.1-58.4,87.6L1481.9,2751.9z"/>
	<path class="st5" d="M1608.5,2950.9c30.3-43.2,64.6-83.5,102.4-120.2c37.8-37,78.9-70.4,122.9-99.8c44.1-29.3,91.3-54.4,141.6-72.4
		s103.8-28.8,158.2-27.2l-1.1,25.7c-50.4-2.7-101.4,6.1-150,22.2s-95.2,39.3-139,66.9c-87.8,55.8-164.7,127.3-226.7,210.9
		L1608.5,2950.9z"/>
	<path class="st5" d="M2086.1,2911.6l-13.9,1.8c-4.6,0.7-9.2,1.1-13.7,2l-13.5,2.6c-4.5,0.8-9,1.7-13.4,3
		c-8.9,2.3-17.9,4.3-26.6,7.2l-13.2,4.1c-4.4,1.3-8.7,3.1-13,4.7c-34.7,12.8-67.9,29.4-99,49.4c-62.2,40.1-115.6,94.6-152.8,159.3
		l-9-4.9c35.8-67.4,88.8-125.6,151.8-169.3c31.6-22,65.5-40.4,101.2-54.9c4.5-1.8,8.9-3.8,13.4-5.4l13.7-4.8
		c9-3.4,18.4-5.8,27.7-8.6c4.6-1.4,9.3-2.6,14.1-3.6l14.2-3.3c4.7-1.1,9.5-1.7,14.2-2.6l14-2.4L2086.1,2911.6z"/>
	<path class="st5" d="M1172.9,2207.2c92.3,4,183.2,22.9,271.4,49.4s173.8,61.6,256.2,103c82.4,41.4,161.7,89.1,235.6,144.7
		c36.9,27.9,72.4,57.8,105.4,90.7c16.6,16.5,32.3,33.9,46.9,52.1c14.5,18.5,28,38,39.3,59.2l-22.8,11.8
		c-10.1-19.4-22.5-37.9-36-55.7c-13.9-17.7-28.7-34.6-44.4-50.6c-31.4-32.4-65.8-62.1-101.7-90c-71.9-55.6-149.7-103.8-230.6-146
		s-165.2-77.9-252.2-105.5c-87-27.6-176.6-47.4-267.7-52.6L1172.9,2207.2z"/>
	<path class="st5" d="M1402.6,2595.3c66.8,9.5,132.5,25.1,196.4,46.5c64.1,21.5,125.8,49.6,184.1,83.9
		c58.2,34.4,112.7,75.6,161.3,123.1c48.8,47.6,91.1,101.5,125.6,160.3l-22.3,12.7c-32.3-57.6-72.2-110.6-118.7-157.5
		c-46.4-47.1-98.8-88.3-155.2-123.1c-113-69.8-241.2-114.2-372.7-135.7L1402.6,2595.3z"/>
	<path class="st5" d="M1587.6,2916.9c43.6,5,86.2,16.6,127,32.4c40.8,16,80,35.8,117,59.3c37.2,23.3,72.2,50.1,104.4,80
		c32.1,30.1,61.7,63.5,85.3,101.7l-22.2,13c-20.8-36.1-48.1-69.1-78.2-99c-30.4-29.9-63.5-57-99-80.7
		c-35.5-23.9-73.2-44.5-112.5-61.2c-39.4-16.6-80.7-29.2-123-35.3L1587.6,2916.9z"/>
	<path class="st5" d="M1190.5,1888.1c96.3,15.7,191.3,38.7,284.2,68.8c92.8,30.2,183.4,67.7,270,113.3
		c86.6,45.6,169.1,99.2,244.4,162.1c75.3,62.9,143.4,135.2,198.3,217.3l-21.5,14.1c-52.2-80.4-117.8-152-190.9-214.7
		c-73.1-62.7-153.9-116.8-238.8-163s-174.2-84.6-265.9-115.8c-91.9-31.1-185.9-55.2-281.4-72.1L1190.5,1888.1z"/>
	<path class="st5" d="M1743,1742.1c49.9,21.1,98.4,45.5,144.9,73.2c46.7,27.8,91.2,59,133.2,93.5c84.2,68.8,157.5,150.6,220.2,239.3
		l-21.2,14.6c-59.6-88.6-129.5-170.5-210.7-240.1c-40.6-34.9-83.7-66.7-129-95.2c-45.4-28.5-92.8-53.8-141.7-75.8L1743,1742.1z"/>
	<path class="st5" d="M2080.2,1639.3c24.2,11.4,47.3,24.8,69.3,40c22,15.3,42.7,32.2,62.1,50.7c19.6,18.6,37.3,39,53,60.9l11.6,16.8
		l10.3,17.6l5,8.9l4.2,9.3c2.8,6.2,5.5,12.5,8,18.8l-24,9.3c-2.8-5.7-5.3-11.5-7.9-17.2l-3.7-8.7l-4.4-8.4l-8.7-16.9l-10-16.3
		c-13.7-21.6-29.5-41.9-47.2-60.5c-17.7-18.8-36.9-36.3-57.3-52.1c-20.4-15.8-42.1-30.7-64.7-42.9L2080.2,1639.3z"/>
</g>
<path class="st6" d="M2085.1,862.4c-117.9-69.7-274.8-51.4-274.8-51.4c-335.7,25.4-608.9,195.2-608.9,195.2
	c-55.3-143.7,8.8-264.8,130.9-318.8c173.6-85.6,205.9-207,89.1-235.3c6.3-1.8,12.6-3.4,18.9-4.9c254-60.5,551.9,85.3,434.1,347.8
	C1957.9,801.1,2030.8,825.3,2085.1,862.4z"/>
<path class="st6" d="M2347.7,1497.8c-134.5-29-275.7-29.1-422.1-6.9c-5.2,1.1-10.1,2.3-14.6,3.7c-99.8,28.2-48.3,95.7-29.9,184.9
	c4.9,23.6,4.7,48.2-2.5,71.2c-31.1,100.9-154.1,80.4-154.1-10.1c0-116.6-50.4-162-109.8-169.6c-45.7-5.9-90.7,13.2-121.6,47.5
	c-87.7,97.1-47.4,208.7,28.4,295.2c32.2,36.8,27.6,94.3-11.7,123.5c-49.4,36.6-131.4,15.4-142.4-97.6c-3-40.5-9.1-71.6-15.4-94.5
	c-10.9-39.4-35.3-74.1-70.1-95.6c-101.1-62.4-196.5,38-292.9,107.7c-151-94.6-83.2-325.2,38-428.2c-82.5-148-1.9-336.1,168.4-419.6
	c3.8-1.8,6-2.9,6-2.9s273.1-169.8,608.8-195.2c0,0,156.9-18.3,274.8,51.4c8,5.5,15.7,11.3,23.1,17.6c47.8,40.3,76.2,92.5,77.8,151.4
	c0.9,31.3-5.9,64.5-21.4,98.8c2.9,0,5.8,0,8.7,0.2C2316,1137.5,2473,1318.7,2347.7,1497.8z"/>
<path class="st6" d="M2173.3,1130.4c-0.2,0.8-0.5,1.7-0.7,2.5l-97.6-2.6c-349.1-10.3-708,64.1-1047.9,298.5
	c-82.5-148-1.9-336.1,168.4-419.6c3.8-1.8,6-2.9,6-2.9s273.1-169.8,608.8-195.2c0,0,156.9-18.3,274.8,51.4c5.3,3.2,10.6,6.5,15.8,10
	c2.5,2.5,5,5,7.3,7.5c48.1,50,73.7,97.1,77.8,151.4C2188.3,1061.5,2184,1094,2173.3,1130.4z"/>
<g class="st2">
	<path class="st3" d="M1490.7,2047.7c-49,19.4-113.6-9-123.2-108.4c-3-40.5-9.1-71.6-15.4-94.5c-10.9-39.4-35.3-74.1-70.1-95.6
		c-11.5-7.3-24.1-12.7-37.3-16.1c31.7-7.2,63.7-4.1,96.3,16.1c34.8,21.5,59.2,56.3,70.1,95.6c6.3,22.9,12.4,54.1,15.4,94.5
		C1432.5,2000.8,1459.4,2035.1,1490.7,2047.7z"/>
</g>
<g class="st2">
	<path class="st3" d="M1703.4,1165.3c-191.7,50.4-390.5,134-577.7,244.8c-62.3,36.9-113,91.3-142.5,157.4
		c-32.7,73.5-45.3,171.1,35.7,267c-10,7.6-19.9,15.2-29.9,22.3c-151-94.6-83.2-325.2,38-428.2c-83.5-149.7,0-340.5,174.3-422.5
		c-55.3-143.7,8.8-264.8,130.9-318.8c173.6-85.6,205.9-207,89.2-235.3c6.3-1.8,12.6-3.4,18.9-4.9c47.8-11.3,97.1-15.6,146.1-12.8
		c-29.4,1.7-58.5,6-87.1,12.8c-6.3,1.5-12.6,3.1-18.9,4.9c116.8,28.4,84.4,149.7-89.1,235.3C1282,735.8,1219.1,838,1246.9,962.1
		c1.5,6.6,1.9,13.4,1.2,20.1c141.7-71.7,276.2-131,374.3-127.3C1510.7,888.4,1376,951.7,1231,1028c-50.3,26.5-94,64.5-125.9,111.6
		c-40.3,59.7-72.9,148.5-32,261.8C1274.2,1270.1,1482.9,1183.6,1703.4,1165.3z"/>
</g>
<g class="st2">
	<path class="st3" d="M1827.7,1811.8c-46.2,19.5-103.2-9.7-103.2-71.3c0-108-43.3-155-96.8-167.2c15.1-3.5,30.7-4.3,46.1-2.4
		c59.3,7.6,109.7,53,109.7,169.6C1783.5,1776.2,1802.6,1801,1827.7,1811.8z"/>
</g>
<path class="st5" d="M1460.9,2073.9c-13.7,0-27.3-2.8-39.9-8.4c-24.1-10.7-65.8-41.1-73.9-124.2c-2.5-34.1-7.5-64.6-14.8-91
	c-9.8-35.7-31.5-65.3-61-83.6c-73-45-146.1,11.7-223.6,71.7c-15.2,11.8-30.8,23.9-46.5,35.2c-6.8,4.9-15.9,5.2-23,0.8
	c-57.5-36-90.6-92.7-95.8-163.8c-7.1-98,41.4-213.5,119-286.5c-31.6-65.5-36.2-140.5-12.8-213.3c29.1-89.8,96.8-167.3,187.4-214.8
	c-21.9-67.5-20-133.2,5.6-191c26.4-59.5,75.5-106.5,142-136.1c106.7-52.7,150.3-114.5,146.1-152.3c-3-26.8-30.5-38.9-53.1-44.4
	c-11-2.7-17.8-13.8-15.1-24.9c1.8-7.2,7.3-12.9,14.4-14.9c169.1-47.6,358.2-5.1,449.8,101c57.6,66.8,70.8,152.6,38.1,243.9
	c124,15.2,224.8,70.5,272.7,150.9c33.3,55.8,39.2,118.8,17.4,183.6c77.3,11.4,153.7,66.4,192.8,141.5
	c43.2,83.1,35.4,174.1-22.2,256.3c-4.7,6.8-13.1,10-21.2,8.3c-125.6-27.1-264.9-29.3-414-6.8c-28.5,6.2-46.4,15.3-53.2,26.9
	c-9.7,16.5-0.8,45.7,9.5,79.5c5.3,17.4,11.3,37.1,15.6,57.8c5.8,28.1,4.8,56.3-3,81.4c-19.9,64.6-71.8,87-114.4,80.6
	c-47-7.1-79.9-46.9-79.9-96.8c0-62.7-15.9-139.5-91.8-149.2c-37.5-4.8-76.2,10.5-103.7,40.8c-91,100.8-21.2,211.1,28.6,267.9
	c19.6,22.5,29,52.1,25.8,81.8c-3.1,29.1-17.6,54.6-40.7,71.7C1504.4,2066.7,1483,2073.9,1460.9,2073.9z M1216.4,1709.1
	c25,0,50.5,6.7,76.4,22.7c38.4,23.7,66.5,62,79.1,107.7c8,29,13.4,62.1,16.1,98.4c4.4,45.7,22.1,77.9,49.6,90.1
	c19.6,8.7,42,5.9,60-7.4c13.8-10.3,22.7-25.9,24.3-43.1c1.9-18.3-3.8-36.5-15.9-50.4c-99.9-114.1-110.2-231.6-28.2-322.5
	c36.4-40.4,88.6-60.6,139.4-54.1c47.7,6.1,127.7,38.9,127.7,190c0,36.4,24.2,53,44.9,56.2c23.3,3.5,55.4-8,69-52.1
	c5.7-18.5,6.4-39.6,2-61c-3.9-18.8-9.4-36.8-14.7-54.1c-12.6-41.3-24.5-80.3-5.7-112.3c13.3-22.6,38.9-37.4,80.6-46.4
	c0.4-0.1,0.8-0.2,1.2-0.2c149-22.6,288.7-21.1,415.8,4.3c41.5-66,45.9-137.5,12-202.6c-36.8-70.4-114.8-121.5-185.7-121.5
	c-11.4,0-20.6-9.2-20.6-20.6c0-2.9,0.6-5.8,1.8-8.4c27.6-61.4,26-121-4.7-172.5c-44.6-74.8-144.9-124.8-268.2-133.7
	c-11.3-0.8-19.8-10.7-19-22c0.2-2.4,0.8-4.8,1.8-6.9c39-86.9,31.7-165.1-21.1-226.4c-70.5-81.8-214.2-121-351.2-100.4
	c15.3,13.4,25,32,27.2,52.2c7.1,64.6-57.7,138.9-169.2,193.9l-0.8,0.4c-120.7,53.5-167.8,168.3-120,292.6c3.9,10.1-0.7,21.4-10.4,26
	c-88.7,41.7-155.1,114-182.3,198.5c-21.7,67.3-15.6,136.7,17.2,195.4c4.8,8.6,2.8,19.3-4.7,25.7c-74.2,63-123.4,173.7-116.8,263.2
	c2.7,37.4,16.5,88,65.2,124.2c11.3-8.4,22.7-17.2,33.8-25.8C1082,1759.8,1147.4,1709.1,1216.4,1709.1z"/>
<g class="st4">
	<path class="st3" d="M1339.2,923.8c-7-149.9,174.2-223.6,184.5-68.9c-92.1,81.9-121.4,190.1-50.1,340.4l-164.4,65.5
		C1246.4,1169.7,1228.8,1021.3,1339.2,923.8z"/>
</g>
<g class="st4">
	<path class="st3" d="M1210.3,1318.4l157.4-71.7c0,0-43.3,91.4-18.5,178.4c12.3,43.1,2.7,90.2-28.5,122.4
		c-24.2,25.1-49.4,29-75.4,17.2c-27.8-12.8-46.5-39.9-50.2-70.3C1188.4,1441,1190,1373.5,1210.3,1318.4z"/>
</g>
<path class="st5" d="M1428.7,1693.1c7.5-27.2,17.6-53.5,30.4-78.7c12.9-25.1,28.9-48.9,48.6-69.5c19.6-20.8,43-37.7,68.8-49.8
	c25.7-12,53.5-18.5,81.1-20.9c4.8-0.5,9.2,3.1,9.6,7.9c0.5,4.7-2.8,8.9-7.5,9.6h-0.2c-25.6,4.1-50.3,12-72.5,24.3
	c-22.1,12.3-41.6,28.7-57.5,48.3c-16,19.4-28.7,41.6-38.7,65c-9.9,23.6-17.3,48.1-22.3,73.2v0.1c-2.3,11.1-13.1,18.3-24.2,16.1
	c-11.1-2.3-18.3-13.1-16.1-24.2C1428.5,1694,1428.6,1693.5,1428.7,1693.1z"/>
<path class="st5" d="M1016.9,1414c77-53,158-99.7,242.5-139.7c84.5-39.9,172.2-72.6,262.2-97.8c22.3-6.9,45.2-11.8,67.8-17.5
	c11.3-2.8,22.7-5.6,34.2-7.7l34.3-7.1l17.1-3.6c5.7-1.1,11.5-2,17.2-3l34.6-5.7c5.8-0.9,11.5-2,17.3-2.7l17.4-1.9
	c11.6-1.3,23.2-2.5,34.8-3.6c93-8,186.4-8.8,278.9-1.2c4.2,0.4,7.4,4.1,7,8.3c-0.3,3.9-3.6,7-7.5,7.1
	c-92.2,2.3-183.9,8.1-274.6,20.8c-22.6,3.7-45.4,5.9-67.9,10l-33.8,5.3c-5.7,0.9-11.3,1.7-16.9,2.6l-16.9,3.3
	c-22.4,4.6-45,8.3-67.1,14.2c-22.2,5.5-44.5,10.3-66.4,17.1c-88.1,24.6-173.9,56.6-256.5,95.7c-82.7,39.2-162.1,84.9-237.4,136.7
	h-0.1c-7.9,6-19.2,4.5-25.2-3.4s-4.5-19.2,3.4-25.2C1015.8,1414.7,1016.3,1414.3,1016.9,1414z"/>
<path class="st5" d="M1191.9,991c24-14.4,47.7-27,72-39.4c12.2-6.1,24.4-12,36.6-17.9c12.4-5.6,24.6-11.5,37.1-16.9l37.5-16
	l37.8-15.2c25.4-9.6,50.7-19.4,76.7-27.5c25.7-8.8,52.3-14.9,78.5-21.9l39.8-8.7c6.7-1.4,13.3-2.9,19.9-4.2l20.1-3.4
	c53.4-9.9,107.7-14.3,161.7-16.5c4.3-0.2,7.8,3.2,8,7.4c0.1,3.9-2.6,7.3-6.4,7.9l-0.4,0.1c-13.2,2.1-26.4,4.1-39.6,6.1l-19.8,3
	c-6.6,1.1-13.1,2.6-19.6,3.8l-39.2,7.6c-13,2.9-25.9,6.2-38.8,9.3l-19.3,4.4c-6.4,1.6-12.8,3.5-19.2,5.3l-38.4,10.7
	c-25.3,8.1-50.7,15.7-75.8,24.5c-12.6,4.1-25.3,8-37.7,12.7c-12.5,4.5-25.1,8.7-37.5,13.4l-37.1,14.5l-36.6,15.7
	c-12.2,5.3-24.2,11-36.2,16.5c-12,5.7-23.9,11.6-35.8,17.5c-23.5,12-47.2,24.6-69.3,37.9l-0.5,0.3c-8.8,4.7-19.7,1.3-24.3-7.5
	C1181.8,1006.2,1184.3,996.2,1191.9,991z"/>
<g class="st4">
	<path class="st7" d="M2295.9,1488.2c-64.9-10.4-131.2-14.4-198.9-12.7c-57.4,1.5-114.7,6.7-171.4,15.4c-5.2,1.1-10.1,2.3-14.6,3.7
		c3.4-3.5,6.7-7.1,9.9-10.7c112.6-132-3-341.8-150.4-341.8l-22.5,4.1l-100,18.4c5.7-4.3,11.2-8.9,16.4-13.7
		c114.3-105.1,45.3-274-59.9-302l67.9-14.1c123.7-217.5-47.8-394.9-236-382.6c0,0,1.4-1.7,4.1-4.9c28.7-6.8,58-11.1,87.5-12.8h0.2
		c206,11.7,383.8,147.8,288.2,360.6c222.3,16,368.8,160.6,290.2,335.1C2248.8,1130.2,2411.5,1308.6,2295.9,1488.2z"/>
</g>
<g class="st4">
	<path class="st5" d="M1642.6,1579.3c0,0-127.2,38.2-88.9,156.6l-24.3,8c0,0,2.2,60.3,59.3,107.9s79.9,166.6-72.8,196.3
		c42.6-35.2,55-95.6,1.2-154.9C1395.1,1769.1,1454.2,1542,1642.6,1579.3z"/>
</g>
</svg>
