<svg xmlns="http://www.w3.org/2000/svg" viewBox="0 0 2646.67 2871.32"><defs><style>.cls-1{fill:#fcbd88;}.cls-2{fill:#ffa42c;}.cls-3{opacity:0.6;}.cls-4{fill:#fff;}.cls-5{opacity:0.3;}.cls-6{fill:#000072;}.cls-7{fill:#ff6112;}.cls-8{fill:#b70606;}</style></defs><g id="Layer_2" data-name="Layer 2"><g id="Layer_1-2" data-name="Layer 1"><circle class="cls-1" cx="1323.33" cy="1450.68" r="1323.33"/><path class="cls-2" d="M1979.28,1247.23c-121-12.8-245.19-13.67-368.19-3.39-320.82,26.82-633.88,129.78-863.5,296.92-.1.06-.21.16-.31.21q-27.51,20-53.33,41.26c-67.31,31.7-147.51-53.64-55.34-138.27,7.4-7.09,15-14.08,22.71-21,227.57-204.65,583.27-351,961.84-366.86,123.47-5.13,249.35,3.55,374,28.67C2078.81,1105.67,2102,1239.93,1979.28,1247.23Z"/><path class="cls-2" d="M1979.28,1247.23,1683.69,2725.85c-26.56,133-196.12,167.81-274.68,65a176.47,176.47,0,0,1-11-16.44L694,1582.23c233.06-191.6,570.58-309.42,917.14-338.39C1734.09,1233.56,1858.28,1234.43,1979.28,1247.23Z"/><g class="cls-3"><path class="cls-4" d="M1658.57,2785.46c-57,81.28-184.46,90.53-249.56,5.34a176.47,176.47,0,0,1-11-16.44L694,1582.23q26-21.35,53.64-41.47l701.55,1188a171.35,171.35,0,0,0,11,16.44C1509.72,2810,1595.37,2820.14,1658.57,2785.46Z"/></g><g class="cls-3"><path class="cls-4" d="M747.28,1541q-27.51,20-53.33,41.26c-67.31,31.7-147.51-53.64-55.34-138.27,7.4-7.09,15-14.08,22.71-21l2,.67C598.38,1470.48,682.29,1587.26,747.28,1541Z"/></g><g class="cls-5"><path class="cls-6" d="M1921.38,1245.79l-295.6,1478.63c-14.07,70.44-68.28,113.29-127.78,122.79a149.86,149.86,0,0,1-89-56.41c93.15-46.76,92.64-157.28,92.64-157.28l100.09-1270.84c-16.44,21.32-39.56,29.7-60.58,32.27a148,148,0,0,1-50-2.68h0l-1.19-.3c93.52-74.51,14.39-161.8,11.77-254.9-1.9-66.69,67.56-76.2,107.08-76.25l14.43-4.68q39.31-1.62,78.87-1.38a1531,1531,0,0,1,237.23,28.62C2020.9,1104.24,2044.07,1238.49,1921.38,1245.79Z"/></g><path class="cls-6" d="M663.92,1609.56A87.4,87.4,0,0,1,591,1570.74c-22.29-33.19-25.15-87.89,33.68-141.9a20.55,20.55,0,1,1,27.79,30.28c-33.67,30.91-43.89,64.07-27.35,88.7A47.29,47.29,0,0,0,683,1564.57c312.17-255.25,820.54-387.76,1296.65-337.94,38.81-2.75,61.64-20,64.38-48.61,2.69-28.17-16.42-64.19-52-73.28a20.55,20.55,0,0,1,10.17-39.83c51.41,13.14,87.76,64.54,82.74,117-3.7,38.7-33.09,81.58-104.49,85.83a20.11,20.11,0,0,1-3.38-.07C1509.82,1218.35,1011.26,1348,707,1598.09a20.36,20.36,0,0,1-4.28,2.71A90.87,90.87,0,0,1,663.92,1609.56Z"/><path class="cls-6" d="M1529.8,2871.32c-61.52,0-117-31.48-149.55-86.53l-704-1192.13a20.55,20.55,0,1,1,35.39-20.9l704,1192.13c34.72,58.8,94.24,71.74,138.41,64.26s96.08-39.36,109.47-106.32l295.59-1478.61a20.55,20.55,0,0,1,40.3,8.06L1703.82,2729.89c-14.62,73.13-69.37,126.31-142.9,138.78A185.87,185.87,0,0,1,1529.8,2871.32Z"/><g class="cls-5"><path class="cls-6" d="M1957.14,1332.65a949.91,949.91,0,0,0-319.9,6.12c-105.46,20-207.61,57.57-302.09,109.13a1160.18,1160.18,0,0,0-258.65,192.3c-76.58,75.83-143.2,162.46-192.41,258.52l-9.2-4.58c48.68-97.86,115-186.25,191.62-263.94a1176.39,1176.39,0,0,1,259.94-198c95.38-53.52,199-93.06,306.57-114.81a973.87,973.87,0,0,1,327.88-10.12Z"/><path class="cls-6" d="M1006.86,2117.23c43.27-78.34,100.43-148.19,164.53-210.23A1102.57,1102.57,0,0,1,1385,1746.14c77.48-44.62,160.88-79.78,248.25-101.08s178.71-28.25,268.5-16.31l-3.59,25.44c-86.1-12.72-174.65-7.39-259.9,12.13s-167.6,52.7-244.39,95.46a1086.46,1086.46,0,0,0-212.76,155.46c-64.14,60.29-121.57,128.47-165.28,205Z"/><path class="cls-6" d="M1131.39,2338.88c15.28-33,35.74-63.08,58.37-91.09s47.74-54,74.11-78.4c52.84-48.79,110.83-91.73,172-129.54,61.29-37.57,126-70,194.19-94.17,34.1-12,69.13-21.87,105.11-28.14s73-8.9,110.15-4.81l-3.24,25.48c-33.77-4.32-68.67-2.54-103,2.78s-68.52,14.26-101.9,25.35c-66.77,22.35-131,53-192,88.91-60.88,36.14-118.87,77.49-171.76,124.59-26.39,23.59-51.48,48.68-74.21,75.72s-43.13,56.06-58.45,87.63Z"/><path class="cls-6" d="M1258,2537.85A843.68,843.68,0,0,1,1360.4,2417.6a853.67,853.67,0,0,1,122.88-99.8c44.09-29.27,91.33-54.35,141.64-72.39s103.82-28.84,158.24-27.23l-1.13,25.66c-50.36-2.74-101.4,6.14-150,22.21s-95.22,39.31-139,66.85a850.1,850.1,0,0,0-226.71,210.92Z"/><path class="cls-6" d="M1735.58,2498.55l-13.92,1.84c-4.55.69-9.17,1.1-13.66,2l-13.49,2.64c-4.5.83-9,1.73-13.43,3-8.88,2.32-17.88,4.27-26.61,7.23l-13.18,4.11c-4.42,1.33-8.67,3.14-13,4.68a502.54,502.54,0,0,0-99,49.44c-62.24,40.1-115.6,94.62-152.85,159.31l-9-4.95c35.83-67.45,88.82-125.59,151.84-169.29a521.9,521.9,0,0,1,101.15-54.88c4.48-1.76,8.86-3.8,13.43-5.35l13.66-4.77c9-3.4,18.41-5.8,27.68-8.55,4.62-1.44,9.33-2.56,14.06-3.61l14.17-3.26c4.73-1.1,9.49-1.71,14.24-2.58l14-2.35Z"/><path class="cls-6" d="M822.43,1794.25c92.28,4,183.25,22.87,271.39,49.4s173.81,61.63,256.15,103,161.68,89.08,235.64,144.65c36.91,27.85,72.44,57.75,105.37,90.69a642,642,0,0,1,46.94,52.05c14.47,18.53,28,38,39.35,59.16L1754.43,2305c-10.12-19.39-22.48-37.89-36-55.68a619.39,619.39,0,0,0-44.42-50.64c-31.45-32.36-65.82-62.14-101.69-90-71.91-55.63-149.72-103.84-230.56-146s-165.18-77.94-252.15-105.53S913,1809.78,821.93,1804.52Z"/><path class="cls-6" d="M1052.1,2182.32a1103.81,1103.81,0,0,1,196.42,46.54,972.48,972.48,0,0,1,184.07,83.95c58.22,34.45,112.74,75.55,161.33,123.05a761.34,761.34,0,0,1,125.57,160.27l-22.32,12.73a737.6,737.6,0,0,0-118.67-157.54c-46.36-47.09-98.81-88.27-155.22-123.13-113-69.82-241.17-114.23-372.73-135.71Z"/><path class="cls-6" d="M1237.05,2503.89c43.58,5,86.18,16.63,127,32.43a688.7,688.7,0,0,1,117,59.27,702.8,702.8,0,0,1,104.37,80c32.13,30.08,61.65,63.49,85.27,101.74l-22.17,13c-20.85-36.12-48.1-69.07-78.23-99a682.5,682.5,0,0,0-99-80.7,672.11,672.11,0,0,0-112.53-61.24c-39.39-16.63-80.65-29.23-123-35.34Z"/><path class="cls-6" d="M840,1475.06a1926.86,1926.86,0,0,1,284.19,68.84c92.82,30.22,183.4,67.74,270,113.3s169.08,99.23,244.44,162.13,143.39,135.18,198.31,217.3l-21.49,14.09c-52.22-80.38-117.83-152-190.92-214.71s-153.91-116.77-238.83-163-174.24-84.56-265.94-115.75a1913.83,1913.83,0,0,0-281.44-72.12Z"/><path class="cls-6" d="M1392.48,1329.13a1183.17,1183.17,0,0,1,144.94,73.2,1091.82,1091.82,0,0,1,133.18,93.46c84.17,68.85,157.48,150.59,220.25,239.34l-21.16,14.57c-59.55-88.6-129.51-170.46-210.65-240.13a1076.15,1076.15,0,0,0-129-95.19,1172,1172,0,0,0-141.69-75.83Z"/><path class="cls-6" d="M1729.66,1226.35a477.39,477.39,0,0,1,69.27,40,515.55,515.55,0,0,1,62.06,50.71,417.27,417.27,0,0,1,53,60.94l11.55,16.76,10.27,17.64,5,8.91,4.24,9.32c2.75,6.24,5.48,12.51,8,18.84l-24,9.28c-2.78-5.7-5.34-11.46-7.87-17.25l-3.7-8.73-4.39-8.41-8.67-16.94-10-16.27a395.71,395.71,0,0,0-47.2-60.5,498,498,0,0,0-57.27-52.12c-20.42-15.83-42.13-30.67-64.7-42.86Z"/></g><path class="cls-7" d="M1734.56,449.44c-117.92-69.67-274.79-51.38-274.79-51.38C1124.05,423.5,850.92,593.31,850.92,593.31c-55.29-143.71,8.83-264.77,130.86-318.82,173.57-85.65,205.94-207,89.15-235.32,6.27-1.75,12.59-3.39,18.91-4.88,254-60.48,551.92,85.29,434.06,347.79C1607.44,388.09,1680.35,412.3,1734.56,449.44Z"/><path class="cls-7" d="M1997.16,1084.81c-134.51-29-275.7-29.08-422.09-6.93-5.19,1.13-10.07,2.31-14.64,3.65-99.78,28.15-48.35,95.67-29.9,184.86,4.88,23.64,4.67,48.2-2.47,71.22C1496.92,1438.52,1374,1418,1374,1327.48c0-116.63-50.4-162-109.75-169.6-45.73-5.86-90.69,13.25-121.57,47.47-87.65,97.11-47.37,208.71,28.37,295.18,32.21,36.79,27.64,94.34-11.67,123.47C1110,1660.63,1028,1639.36,1017,1526.38c-3-40.49-9.1-71.63-15.41-94.54-10.9-39.36-35.3-74.14-70.09-95.62-101.11-62.43-196.48,38-292.92,107.74-151-94.64-83.18-325.24,38-428.2-82.51-148-1.9-336.13,168.38-419.57,3.85-1.85,6-2.88,6-2.88s273.13-169.81,608.85-195.25c0,0,156.87-18.29,274.79,51.38A288.8,288.8,0,0,1,1757.68,467c47.78,40.34,76.25,92.49,77.79,151.42.87,31.29-5.91,64.48-21.38,98.81,2.88,0,5.76,0,8.69.2C1965.51,724.53,2122.53,905.65,1997.16,1084.81Z"/><path class="cls-7" d="M1822.78,717.39c-.21.82-.46,1.65-.72,2.47l-97.57-2.57c-349.13-10.28-708,64.12-1047.91,298.47-82.51-148-1.9-336.13,168.38-419.57,3.85-1.85,6-2.88,6-2.88s273.13-169.81,608.85-195.25c0,0,156.87-18.29,274.79,51.38,5.34,3.19,10.63,6.48,15.77,10,2.52,2.52,5,5,7.35,7.5,48.09,50,73.68,97.11,77.79,151.42C1837.78,648.54,1833.52,681,1822.78,717.39Z"/><g class="cls-3"><path class="cls-4" d="M1140.19,1634.74c-49,19.42-113.55-9-123.16-108.36-3-40.49-9.1-71.63-15.41-94.54-10.9-39.36-35.3-74.14-70.09-95.62a132.06,132.06,0,0,0-37.35-16.08c31.65-7.25,63.71-4.06,96.34,16.08,34.78,21.48,59.19,56.26,70.08,95.62,6.32,22.91,12.43,54.05,15.41,94.54C1082,1587.78,1108.9,1622.1,1140.19,1634.74Z"/></g><g class="cls-3"><path class="cls-4" d="M1352.88,752.32c-191.7,50.4-390.54,134-577.67,244.82-62.32,36.9-113,91.26-142.47,157.43-32.73,73.48-45.32,171.1,35.71,267-10,7.6-19.89,15.16-29.86,22.35-151-94.64-83.18-325.24,38-428.21-83.49-149.67,0-340.49,174.34-422.45-55.29-143.71,8.84-264.76,130.86-318.81,173.57-85.65,205.94-207,89.15-235.32,6.27-1.75,12.59-3.39,18.91-4.88a508.5,508.5,0,0,1,146.12-12.75,502,502,0,0,0-87.14,12.75c-6.32,1.49-12.64,3.13-18.91,4.88,116.79,28.36,84.42,149.67-89.14,235.32C931.46,322.93,868.62,425.13,896.42,549.21a60.71,60.71,0,0,1,1.18,20.14c141.71-71.73,276.22-131,374.26-127.27-111.66,33.53-246.43,96.78-391.43,173.13-50.33,26.51-94,64.49-125.91,111.62-40.35,59.71-72.92,148.55-32,261.84C923.65,857.08,1132.41,770.56,1352.88,752.32Z"/></g><g class="cls-3"><path class="cls-4" d="M1477.19,1398.8c-46.19,19.52-103.22-9.66-103.22-71.32,0-108-43.26-155-96.85-167.24a130.64,130.64,0,0,1,46.09-2.36c59.34,7.6,109.74,53,109.74,169.6C1433,1363.19,1452.12,1388,1477.19,1398.8Z"/></g><path class="cls-6" d="M1110.38,1660.91a98.16,98.16,0,0,1-39.92-8.41c-24.14-10.71-65.84-41.1-73.87-124.15-2.55-34.11-7.51-64.59-14.8-91-9.83-35.66-31.51-65.35-61-83.6-73-45-146.14,11.68-223.64,71.73-15.17,11.76-30.85,23.91-46.45,35.19a20.54,20.54,0,0,1-22.95.76c-57.49-36-90.6-92.68-95.75-163.82-7.09-98,41.38-213.46,119-286.48-31.56-65.45-36.17-140.53-12.75-213.29C667.16,708,734.89,630.53,825.46,583c-21.91-67.46-20.05-133.17,5.6-191,26.36-59.46,75.45-106.5,142-136.08,106.72-52.74,150.28-114.48,146.11-152.29-3-26.77-30.5-38.94-53.09-44.43a20.56,20.56,0,0,1-.7-39.76c169.09-47.6,358.25-5.11,449.77,101,57.6,66.81,70.75,152.58,38.08,243.88,124,15.18,224.78,70.51,272.74,150.92,33.31,55.85,39.18,118.83,17.41,183.62,77.31,11.39,153.67,66.38,192.77,141.47,43.25,83.07,35.38,174.1-22.17,256.32a20.57,20.57,0,0,1-21.16,8.31c-125.58-27.05-264.89-29.34-414-6.82-28.51,6.22-46.42,15.26-53.24,26.87-9.69,16.5-.78,45.69,9.54,79.5,5.31,17.37,11.32,37.07,15.6,57.77,5.82,28.14,4.8,56.29-3,81.41-19.94,64.61-71.82,87-114.39,80.63-47-7.09-79.91-46.9-79.91-96.8,0-62.71-15.93-139.49-91.83-149.22-37.48-4.8-76.25,10.46-103.67,40.85-91,100.81-21.16,211.11,28.56,267.88a107.23,107.23,0,0,1,25.83,81.81c-3.12,29.09-17.56,54.56-40.68,71.72A102.89,102.89,0,0,1,1110.38,1660.91ZM865.92,1296.1c25,0,50.54,6.67,76.42,22.65,38.4,23.72,66.48,62,79.08,107.65,8,29,13.42,62.13,16.12,98.45,4.43,45.7,22.06,77.86,49.6,90.08,19.58,8.7,42,5.93,60-7.41a61,61,0,0,0,24.32-43.09,66,66,0,0,0-15.89-50.36c-99.9-114.08-110.16-231.63-28.15-322.5,36.45-40.38,88.58-60.6,139.42-54.08,47.69,6.11,127.7,38.92,127.7,190,0,36.45,24.21,53,44.94,56.16,23.33,3.52,55.37-8,69-52.12,5.72-18.5,6.4-39.58,2-61-3.9-18.85-9.37-36.77-14.66-54.1-12.6-41.27-24.5-80.26-5.67-112.32,13.3-22.64,38.92-37.37,80.63-46.36.41-.09.83-.17,1.25-.23,149-22.56,288.74-21.1,415.75,4.32,41.53-66,45.87-137.49,12-202.61C1963,788.85,1885,737.74,1814.1,737.74a20.56,20.56,0,0,1-18.74-29c27.64-61.36,26-121-4.69-172.49-44.63-74.83-144.91-124.8-268.25-133.68a20.55,20.55,0,0,1-17.27-28.92c39-86.86,31.69-165.15-21.14-226.42-70.52-81.8-214.25-121-351.21-100.37A81,81,0,0,1,1160,99.06c7.13,64.58-57.69,138.86-169.16,193.85l-.76.36c-120.72,53.47-167.82,168.34-120,292.64a20.56,20.56,0,0,1-10.44,26c-88.65,41.67-155.1,114-182.29,198.52-21.66,67.29-15.57,136.68,17.15,195.36a20.54,20.54,0,0,1-4.65,25.67C615.65,1094.5,566.48,1205.18,573,1294.62c2.7,37.36,16.45,88,65.2,124.19,11.3-8.43,22.68-17.25,33.77-25.85C731.5,1346.79,796.92,1296.1,865.92,1296.1Z"/><g class="cls-5"><path class="cls-4" d="M988.74,510.83c-7-149.86,174.17-223.6,184.54-68.94-92.12,81.88-121.38,190.08-50.1,340.4L958.76,847.8C895.94,756.67,878.32,608.29,988.74,510.83Z"/></g><g class="cls-5"><path class="cls-4" d="M859.75,905.39l157.43-71.67s-43.29,91.41-18.53,178.4c12.27,43.08,2.67,90.17-28.45,122.4-24.19,25.07-49.4,29-75.36,17.16-27.83-12.75-46.45-39.92-50.24-70.3C837.94,1028,839.55,960.45,859.75,905.39Z"/></g><path class="cls-6" d="M1078.23,1280.05a419.14,419.14,0,0,1,30.36-78.66c12.91-25.1,28.94-48.91,48.64-69.54a227,227,0,0,1,68.83-49.76c25.74-12,53.49-18.53,81.14-20.88a8.81,8.81,0,0,1,2.17,17.48l-.23,0c-25.62,4.09-50.34,12-72.46,24.32a200.31,200.31,0,0,0-57.53,48.34c-16,19.45-28.73,41.61-38.68,65a380.79,380.79,0,0,0-22.27,73.23v.05a20.56,20.56,0,0,1-40.31-8.17C1078,1281,1078.1,1280.51,1078.23,1280.05Z"/><path class="cls-6" d="M666.36,1001A1748.17,1748.17,0,0,1,908.83,861.33a1660.44,1660.44,0,0,1,262.23-97.77c22.34-6.86,45.18-11.79,67.83-17.45,11.33-2.8,22.67-5.6,34.15-7.73l34.29-7.08,17.14-3.58c5.73-1.09,11.5-2,17.25-3l34.55-5.71c5.76-.91,11.5-2,17.29-2.7l17.41-1.89c11.59-1.28,23.2-2.54,34.81-3.59,93-8,186.37-8.8,278.94-1.24a7.72,7.72,0,0,1-.46,15.41c-92.15,2.26-183.88,8.08-274.56,20.77-22.6,3.69-45.37,5.93-67.88,10L1348,761.06c-5.65.88-11.31,1.66-16.94,2.62L1314.19,767c-22.39,4.56-45,8.31-67.07,14.17-22.17,5.55-44.53,10.35-66.38,17.08a1624.53,1624.53,0,0,0-256.55,95.65,1712.68,1712.68,0,0,0-237.42,136.74l-.06,0A18,18,0,1,1,666.36,1001Z"/><path class="cls-6" d="M841.42,578c24-14.44,47.71-27,72.05-39.43q18.24-9.11,36.63-17.89c12.36-5.62,24.63-11.45,37.06-16.91l37.45-16,37.79-15.2c25.39-9.62,50.73-19.44,76.7-27.51,25.74-8.75,52.28-14.92,78.52-21.88l39.82-8.71c6.65-1.38,13.26-2.91,19.93-4.18l20.09-3.43c53.42-9.85,107.72-14.3,161.74-16.47a7.71,7.71,0,0,1,1.55,15.31l-.38.06c-13.22,2.14-26.41,4.15-39.59,6.12l-19.75,3c-6.56,1.13-13.08,2.6-19.63,3.8l-39.18,7.57c-13,2.88-25.88,6.21-38.81,9.26L1284,440c-6.43,1.64-12.81,3.54-19.21,5.3L1226.42,456c-25.31,8.13-50.72,15.71-75.78,24.45-12.61,4.14-25.29,8-37.73,12.69-12.49,4.47-25.09,8.68-37.51,13.37L1038.32,521l-36.63,15.67c-12.16,5.33-24.15,11-36.23,16.52q-18,8.6-35.77,17.47c-23.52,12-47.25,24.64-69.28,37.87l-.47.28A18,18,0,0,1,841.42,578Z"/><g class="cls-5"><path class="cls-8" d="M1945.42,1075.15c-64.89-10.37-131.22-14.38-198.94-12.69a1369.9,1369.9,0,0,0-171.41,15.42c-5.19,1.13-10.07,2.31-14.64,3.65,3.44-3.5,6.73-7.1,9.86-10.74,112.58-131.95-3-341.79-150.39-341.79l-22.5,4.11-100,18.4a207.26,207.26,0,0,0,16.44-13.72c114.27-105.07,45.27-274-59.86-302l67.88-14.08c123.72-217.49-47.84-394.86-236-382.58,0,0,1.38-1.7,4.06-4.88a506.72,506.72,0,0,1,87.5-12.79h.15c206,11.71,383.76,147.77,288.19,360.58,222.27,16,368.81,160.62,290.2,335.11C1898.26,717.19,2061,895.58,1945.42,1075.15Z"/></g><g class="cls-5"><path class="cls-6" d="M1292.09,1166.27s-127.2,38.18-88.94,156.58l-24.27,8s2.15,60.33,59.31,107.86,79.91,166.62-72.82,196.35c42.59-35.25,55-95.55,1.19-154.89C1044.58,1356.14,1103.65,1129,1292.09,1166.27Z"/></g></g></g></svg>