<?xml version="1.0" encoding="utf-8"?>
<!-- Generator: Adobe Illustrator 24.3.0, SVG Export Plug-In . SVG Version: 6.00 Build 0)  -->
<svg version="1.1" id="Layer_1" xmlns="http://www.w3.org/2000/svg" xmlns:xlink="http://www.w3.org/1999/xlink" x="0px" y="0px"
	 viewBox="0 0 1216.1 1241.9" style="enable-background:new 0 0 1216.1 1241.9;" xml:space="preserve">
<style type="text/css">
	.st0{fill:#FFC67E;}
	.st1{fill:#ECB370;}
	.st2{fill:#EFE6D9;}
	.st3{fill:#85C606;}
	.st4{fill:#A5C966;}
</style>
<g>
	<path class="st0" d="M617,1119.3L617,1119.3c-24.2,0-43.9-19.6-43.9-43.9V445c0-24.2,19.6-43.9,43.9-43.9l0,0
		c24.2,0,43.9,19.6,43.9,43.9v630.5C660.9,1099.7,641.3,1119.3,617,1119.3z"/>
	<path class="st1" d="M606.3,1119.3L606.3,1119.3c-24.2,0-43.9-19.6-43.9-43.9V445c0-24.2,19.6-43.9,43.9-43.9l0,0
		c24.2,0,43.9,19.6,43.9,43.9v630.5C650.2,1099.7,630.6,1119.3,606.3,1119.3z"/>
	<path class="st2" d="M573.1,1075.4V445c0-22.4,16.8-40.9,38.5-43.5c-1.8-0.2-3.5-0.4-5.3-0.4l0,0c-24.2,0-43.9,19.6-43.9,43.9
		v630.5c0,24.2,19.6,43.9,43.9,43.9l0,0c1.8,0,3.6-0.1,5.3-0.4C590,1116.3,573.1,1097.9,573.1,1075.4z"/>
</g>
<path class="st3" d="M398.2,773.2c0,55.9,45.3,101.2,101.2,101.2H724c55.9,0,101.2-45.3,101.2-101.2V516.4h-427V773.2z"/>
<path class="st3" d="M724,129.2H499.4c-55.9,0-101.2,45.3-101.2,101.2v294.1h427V230.4C825.2,174.5,779.9,129.2,724,129.2z"/>
<g>
	<path class="st4" d="M747.9,777.2c0,31.7-14.6,60-37.5,78.6h12c43.3,0,78.6-35.3,78.6-78.6V520.4h-53.1V777.2z"/>
	<path class="st4" d="M722.5,147.8h-12c22.9,18.6,37.5,46.9,37.5,78.6v294.1h53.1V226.4C801.1,183,765.8,147.8,722.5,147.8z"/>
</g>
</svg>
